<ttFont>
<head>
    <!-- Most of this table will be recalculated by the compiler -->
    <tableVersion value="1.0"/>
    <fontRevision value="1.0"/>
    <checkSumAdjustment value="0x9e8ed737"/>
    <magicNumber value="0x5f0f3cf5"/>
    <flags value="00000000 00001011"/>
    <unitsPerEm value="1000"/>
    <created value="Thu Apr  4 20:53:13 2019"/>
    <modified value="Thu Apr  4 20:53:14 2019"/>
    <xMin value="-67"/>
    <yMin value="-264"/>
    <xMax value="1058"/>
    <yMax value="1003"/>
    <macStyle value="00000000 00000000"/>
    <lowestRecPPEM value="6"/>
    <fontDirectionHint value="2"/>
    <indexToLocFormat value="0"/>
    <glyphDataFormat value="0"/>
  </head>
    <TTGlyph name=".notdef" xMin="60" yMin="-100" xMax="454" yMax="750">
      <contour>
        <pt x="60" y="-100" on="1"/>
        <pt x="60" y="750" on="1"/>
        <pt x="454" y="750" on="1"/>
        <pt x="454" y="-100" on="1"/>
      </contour>
    </TTGlyph>
    <TTGlyph name="A" xMin="4" yMin="0" xMax="675" yMax="700">
      <contour>
        <pt x="4" y="0" on="1"/>
        <pt x="295" y="700" on="1"/>
        <pt x="388" y="700" on="1"/>
        <pt x="675" y="0" on="1"/>
        <pt x="591" y="0" on="1"/>
        <pt x="503" y="220" on="1"/>
        <pt x="173" y="220" on="1"/>
        <pt x="84" y="0" on="1"/>
      </contour>
      <contour>
        <pt x="200" y="286" on="1"/>
        <pt x="476" y="286" on="1"/>
        <pt x="339" y="628" on="1"/>
      </contour>
    </TTGlyph>
    <TTGlyph name="AE" xMin="4" yMin="0" xMax="919" yMax="700">
      <contour>
        <pt x="4" y="0" on="1"/>
        <pt x="295" y="700" on="1"/>
        <pt x="919" y="700" on="1"/>
        <pt x="919" y="632" on="1"/>
        <pt x="418" y="632" on="1"/>
        <pt x="517" y="387" on="1"/>
        <pt x="778" y="387" on="1"/>
        <pt x="778" y="320" on="1"/>
        <pt x="544" y="320" on="1"/>
        <pt x="645" y="68" on="1"/>
        <pt x="919" y="68" on="1"/>
        <pt x="919" y="0" on="1"/>
        <pt x="591" y="0" on="1"/>
        <pt x="503" y="220" on="1"/>
        <pt x="173" y="220" on="1"/>
        <pt x="84" y="0" on="1"/>
      </contour>
      <contour>
        <pt x="200" y="286" on="1"/>
        <pt x="476" y="286" on="1"/>
        <pt x="339" y="628" on="1"/>
      </contour>
    </TTGlyph>
    <TTGlyph name="Aacute" xMin="4" yMin="0" xMax="675" yMax="915">
      <component glyphName="A" x="0" y="0" flags="0x204"/>
      <component glyphName="acute" x="119" y="199" flags="0x4"/>
    </TTGlyph>
    <TTGlyph name="Abreve" xMin="4" yMin="0" xMax="675" yMax="927">
      <component glyphName="A" x="0" y="0" flags="0x204"/>
      <component glyphName="breve" x="80" y="199" flags="0x4"/>
    </TTGlyph>
    <TTGlyph name="Acircumflex" xMin="4" yMin="0" xMax="675" yMax="916">
      <component glyphName="A" x="0" y="0" flags="0x204"/>
      <component glyphName="circumflex" x="80" y="199" flags="0x4"/>
    </TTGlyph>
    <TTGlyph name="Adieresis" xMin="4" yMin="0" xMax="675" yMax="906">
      <component glyphName="A" x="0" y="0" flags="0x204"/>
      <component glyphName="dieresis" x="71" y="199" flags="0x4"/>
    </TTGlyph>
    <TTGlyph name="Agrave" xMin="4" yMin="0" xMax="675" yMax="915">
      <component glyphName="A" x="0" y="0" flags="0x204"/>
      <component glyphName="grave" x="38" y="199" flags="0x4"/>
    </TTGlyph>
    <TTGlyph name="Amacron" xMin="4" yMin="0" xMax="675" yMax="873">
      <component glyphName="A" x="0" y="0" flags="0x204"/>
      <component glyphName="macron" x="80" y="199" flags="0x4"/>
    </TTGlyph>
    <TTGlyph name="Aogonek" xMin="4" yMin="-221" xMax="691" yMax="700">
      <contour>
        <pt x="4" y="0" on="1"/>
        <pt x="295" y="700" on="1"/>
        <pt x="388" y="700" on="1"/>
        <pt x="675" y="1" on="1"/>
        <pt x="676" y="0" on="1"/>
        <pt x="622" y="-34" on="0"/>
        <pt x="570" y="-94" on="0"/>
        <pt x="570" y="-123" on="1"/>
        <pt x="570" y="-148" on="0"/>
        <pt x="600" y="-175" on="0"/>
        <pt x="628" y="-175" on="1"/>
        <pt x="641" y="-175" on="0"/>
        <pt x="666" y="-168" on="0"/>
        <pt x="676" y="-161" on="1"/>
        <pt x="691" y="-200" on="1"/>
        <pt x="675" y="-210" on="0"/>
        <pt x="638" y="-221" on="0"/>
        <pt x="617" y="-221" on="1"/>
        <pt x="573" y="-221" on="0"/>
        <pt x="519" y="-174" on="0"/>
        <pt x="519" y="-135" on="1"/>
        <pt x="519" y="-100" on="0"/>
        <pt x="566" y="-36" on="0"/>
        <pt x="618" y="0" on="1"/>
        <pt x="591" y="0" on="1"/>
        <pt x="503" y="220" on="1"/>
        <pt x="173" y="220" on="1"/>
        <pt x="84" y="0" on="1"/>
      </contour>
      <contour>
        <pt x="200" y="286" on="1"/>
        <pt x="476" y="286" on="1"/>
        <pt x="339" y="628" on="1"/>
      </contour>
    </TTGlyph>
    <TTGlyph name="Aring" xMin="4" yMin="0" xMax="675" yMax="1003">
      <component glyphName="A" x="0" y="0" flags="0x204"/>
      <component glyphName="ring" x="80" y="199" flags="0x4"/>
    </TTGlyph>
    <TTGlyph name="Atilde" xMin="4" yMin="0" xMax="675" yMax="905">
      <component glyphName="A" x="0" y="0" flags="0x204"/>
      <component glyphName="tilde" x="84" y="199" flags="0x4"/>
    </TTGlyph>
    <TTGlyph name="B" xMin="77" yMin="0" xMax="611" yMax="700">
      <contour>
        <pt x="77" y="700" on="1"/>
        <pt x="361" y="700" on="1"/>
        <pt x="462" y="700" on="0"/>
        <pt x="582" y="602" on="0"/>
        <pt x="582" y="520" on="1"/>
        <pt x="582" y="466" on="0"/>
        <pt x="525" y="386" on="0"/>
        <pt x="475" y="365" on="1"/>
        <pt x="538" y="346" on="0"/>
        <pt x="611" y="257" on="0"/>
        <pt x="611" y="197" on="1"/>
        <pt x="611" y="107" on="0"/>
        <pt x="480" y="0" on="0"/>
        <pt x="373" y="0" on="1"/>
        <pt x="77" y="0" on="1"/>
      </contour>
      <contour>
        <pt x="357" y="633" on="1"/>
        <pt x="154" y="633" on="1"/>
        <pt x="154" y="395" on="1"/>
        <pt x="357" y="395" on="1"/>
        <pt x="425" y="395" on="0"/>
        <pt x="506" y="460" on="0"/>
        <pt x="506" y="514" on="1"/>
        <pt x="506" y="568" on="0"/>
        <pt x="425" y="633" on="0"/>
      </contour>
      <contour>
        <pt x="367" y="67" on="1"/>
        <pt x="442" y="67" on="0"/>
        <pt x="533" y="139" on="0"/>
        <pt x="533" y="199" on="1"/>
        <pt x="533" y="259" on="0"/>
        <pt x="442" y="331" on="0"/>
        <pt x="367" y="331" on="1"/>
        <pt x="154" y="331" on="1"/>
        <pt x="154" y="67" on="1"/>
      </contour>
    </TTGlyph>
    <TTGlyph name="C" xMin="44" yMin="-11" xMax="684" yMax="711">
      <contour>
        <pt x="409" y="60" on="1"/>
        <pt x="474" y="60" on="0"/>
        <pt x="592" y="111" on="0"/>
        <pt x="632" y="156" on="1"/>
        <pt x="682" y="104" on="1"/>
        <pt x="630" y="50" on="0"/>
        <pt x="486" y="-11" on="0"/>
        <pt x="407" y="-11" on="1"/>
        <pt x="331" y="-11" on="0"/>
        <pt x="198" y="45" on="0"/>
        <pt x="100" y="142" on="0"/>
        <pt x="44" y="275" on="0"/>
        <pt x="44" y="350" on="1"/>
        <pt x="44" y="425" on="0"/>
        <pt x="100" y="558" on="0"/>
        <pt x="198" y="655" on="0"/>
        <pt x="331" y="711" on="0"/>
        <pt x="407" y="711" on="1"/>
        <pt x="488" y="711" on="0"/>
        <pt x="633" y="650" on="0"/>
        <pt x="684" y="596" on="1"/>
        <pt x="633" y="542" on="1"/>
        <pt x="592" y="588" on="0"/>
        <pt x="471" y="640" on="0"/>
        <pt x="407" y="640" on="1"/>
        <pt x="347" y="640" on="0"/>
        <pt x="242" y="595" on="0"/>
        <pt x="166" y="518" on="0"/>
        <pt x="122" y="411" on="0"/>
        <pt x="122" y="350" on="1"/>
        <pt x="122" y="289" on="0"/>
        <pt x="166" y="182" on="0"/>
        <pt x="243" y="105" on="0"/>
        <pt x="348" y="60" on="0"/>
      </contour>
    </TTGlyph>
    <TTGlyph name="Cacute" xMin="44" yMin="-11" xMax="684" yMax="915">
      <component glyphName="C" x="0" y="0" flags="0x204"/>
      <component glyphName="acute" x="182" y="199" flags="0x4"/>
    </TTGlyph>
    <TTGlyph name="Ccaron" xMin="44" yMin="-11" xMax="684" yMax="917">
      <component glyphName="C" x="0" y="0" flags="0x204"/>
      <component glyphName="caron" x="143" y="199" flags="0x4"/>
    </TTGlyph>
    <TTGlyph name="Ccedilla" xMin="44" yMin="-228" xMax="684" yMax="711">
      <contour>
        <pt x="409" y="60" on="1"/>
        <pt x="474" y="60" on="0"/>
        <pt x="592" y="111" on="0"/>
        <pt x="632" y="156" on="1"/>
        <pt x="682" y="104" on="1"/>
        <pt x="633" y="53" on="0"/>
        <pt x="499" y="-7" on="0"/>
        <pt x="425" y="-11" on="1"/>
        <pt x="413" y="-55" on="1"/>
        <pt x="456" y="-57" on="0"/>
        <pt x="508" y="-101" on="0"/>
        <pt x="508" y="-137" on="1"/>
        <pt x="508" y="-177" on="0"/>
        <pt x="443" y="-228" on="0"/>
        <pt x="393" y="-228" on="1"/>
        <pt x="360" y="-228" on="0"/>
        <pt x="302" y="-207" on="0"/>
        <pt x="280" y="-187" on="1"/>
        <pt x="310" y="-155" on="1"/>
        <pt x="329" y="-171" on="0"/>
        <pt x="371" y="-187" on="0"/>
        <pt x="393" y="-187" on="1"/>
        <pt x="423" y="-187" on="0"/>
        <pt x="457" y="-160" on="0"/>
        <pt x="457" y="-138" on="1"/>
        <pt x="457" y="-116" on="0"/>
        <pt x="420" y="-91" on="0"/>
        <pt x="388" y="-91" on="1"/>
        <pt x="359" y="-91" on="1"/>
        <pt x="382" y="-10" on="1"/>
        <pt x="310" y="-6" on="0"/>
        <pt x="186" y="54" on="0"/>
        <pt x="96" y="150" on="0"/>
        <pt x="44" y="278" on="0"/>
        <pt x="44" y="350" on="1"/>
        <pt x="44" y="425" on="0"/>
        <pt x="100" y="558" on="0"/>
        <pt x="198" y="655" on="0"/>
        <pt x="331" y="711" on="0"/>
        <pt x="407" y="711" on="1"/>
        <pt x="488" y="711" on="0"/>
        <pt x="633" y="650" on="0"/>
        <pt x="684" y="596" on="1"/>
        <pt x="633" y="542" on="1"/>
        <pt x="592" y="588" on="0"/>
        <pt x="471" y="640" on="0"/>
        <pt x="407" y="640" on="1"/>
        <pt x="347" y="640" on="0"/>
        <pt x="242" y="595" on="0"/>
        <pt x="166" y="518" on="0"/>
        <pt x="122" y="411" on="0"/>
        <pt x="122" y="350" on="1"/>
        <pt x="122" y="289" on="0"/>
        <pt x="166" y="182" on="0"/>
        <pt x="243" y="105" on="0"/>
        <pt x="348" y="60" on="0"/>
      </contour>
    </TTGlyph>
    <TTGlyph name="Ccircumflex" xMin="44" yMin="-11" xMax="684" yMax="916">
      <component glyphName="C" x="0" y="0" flags="0x204"/>
      <component glyphName="circumflex" x="144" y="199" flags="0x4"/>
    </TTGlyph>
    <TTGlyph name="Cdotaccent" xMin="44" yMin="-11" xMax="684" yMax="899">
      <component glyphName="C" x="0" y="0" flags="0x204"/>
      <component glyphName="dotaccent" x="269" y="199" flags="0x4"/>
    </TTGlyph>
    <TTGlyph name="D" xMin="77" yMin="0" xMax="676" yMax="700">
      <contour>
        <pt x="77" y="0" on="1"/>
        <pt x="77" y="700" on="1"/>
        <pt x="308" y="700" on="1"/>
        <pt x="387" y="700" on="0"/>
        <pt x="523" y="647" on="0"/>
        <pt x="621" y="555" on="0"/>
        <pt x="676" y="426" on="0"/>
        <pt x="676" y="350" on="1"/>
        <pt x="676" y="274" on="0"/>
        <pt x="621" y="145" on="0"/>
        <pt x="524" y="53" on="0"/>
        <pt x="388" y="0" on="0"/>
        <pt x="308" y="0" on="1"/>
      </contour>
      <contour>
        <pt x="312" y="630" on="1"/>
        <pt x="154" y="630" on="1"/>
        <pt x="154" y="70" on="1"/>
        <pt x="312" y="70" on="1"/>
        <pt x="372" y="70" on="0"/>
        <pt x="478" y="113" on="0"/>
        <pt x="554" y="188" on="0"/>
        <pt x="598" y="291" on="0"/>
        <pt x="598" y="350" on="1"/>
        <pt x="598" y="409" on="0"/>
        <pt x="554" y="512" on="0"/>
        <pt x="478" y="587" on="0"/>
        <pt x="372" y="630" on="0"/>
      </contour>
    </TTGlyph>
    <TTGlyph name="Dcaron" xMin="77" yMin="0" xMax="676" yMax="917">
      <component glyphName="D" x="0" y="0" flags="0x204"/>
      <component glyphName="caron" x="100" y="199" flags="0x4"/>
    </TTGlyph>
    <TTGlyph name="Dcroat" xMin="13" yMin="0" xMax="699" yMax="700">
      <contour>
        <pt x="100" y="0" on="1"/>
        <pt x="100" y="317" on="1"/>
        <pt x="13" y="317" on="1"/>
        <pt x="13" y="383" on="1"/>
        <pt x="100" y="383" on="1"/>
        <pt x="100" y="700" on="1"/>
        <pt x="331" y="700" on="1"/>
        <pt x="410" y="700" on="0"/>
        <pt x="546" y="647" on="0"/>
        <pt x="644" y="555" on="0"/>
        <pt x="699" y="426" on="0"/>
        <pt x="699" y="350" on="1"/>
        <pt x="699" y="274" on="0"/>
        <pt x="644" y="145" on="0"/>
        <pt x="547" y="53" on="0"/>
        <pt x="411" y="0" on="0"/>
        <pt x="331" y="0" on="1"/>
      </contour>
      <contour>
        <pt x="335" y="630" on="1"/>
        <pt x="177" y="630" on="1"/>
        <pt x="177" y="383" on="1"/>
        <pt x="366" y="383" on="1"/>
        <pt x="366" y="317" on="1"/>
        <pt x="177" y="317" on="1"/>
        <pt x="177" y="70" on="1"/>
        <pt x="335" y="70" on="1"/>
        <pt x="395" y="70" on="0"/>
        <pt x="501" y="113" on="0"/>
        <pt x="577" y="188" on="0"/>
        <pt x="621" y="291" on="0"/>
        <pt x="621" y="350" on="1"/>
        <pt x="621" y="409" on="0"/>
        <pt x="577" y="512" on="0"/>
        <pt x="501" y="587" on="0"/>
        <pt x="395" y="630" on="0"/>
      </contour>
    </TTGlyph>
    <TTGlyph name="E" xMin="77" yMin="0" xMax="582" yMax="700">
      <contour>
        <pt x="77" y="0" on="1"/>
        <pt x="77" y="700" on="1"/>
        <pt x="578" y="700" on="1"/>
        <pt x="578" y="632" on="1"/>
        <pt x="154" y="632" on="1"/>
        <pt x="154" y="387" on="1"/>
        <pt x="431" y="387" on="1"/>
        <pt x="431" y="320" on="1"/>
        <pt x="154" y="320" on="1"/>
        <pt x="154" y="68" on="1"/>
        <pt x="582" y="68" on="1"/>
        <pt x="582" y="0" on="1"/>
      </contour>
    </TTGlyph>
    <TTGlyph name="Eacute" xMin="77" yMin="0" xMax="582" yMax="915">
      <component glyphName="E" x="0" y="0" flags="0x204"/>
      <component glyphName="acute" x="119" y="199" flags="0x4"/>
    </TTGlyph>
    <TTGlyph name="Ebreve" xMin="77" yMin="0" xMax="582" yMax="927">
      <component glyphName="E" x="0" y="0" flags="0x204"/>
      <component glyphName="breve" x="81" y="199" flags="0x4"/>
    </TTGlyph>
    <TTGlyph name="Ecaron" xMin="77" yMin="0" xMax="582" yMax="917">
      <component glyphName="E" x="0" y="0" flags="0x204"/>
      <component glyphName="caron" x="80" y="199" flags="0x4"/>
    </TTGlyph>
    <TTGlyph name="Ecircumflex" xMin="77" yMin="0" xMax="582" yMax="916">
      <component glyphName="E" x="0" y="0" flags="0x204"/>
      <component glyphName="circumflex" x="81" y="199" flags="0x4"/>
    </TTGlyph>
    <TTGlyph name="Edieresis" xMin="77" yMin="0" xMax="582" yMax="906">
      <component glyphName="E" x="0" y="0" flags="0x204"/>
      <component glyphName="dieresis" x="71" y="199" flags="0x4"/>
    </TTGlyph>
    <TTGlyph name="Edotaccent" xMin="77" yMin="0" xMax="582" yMax="899">
      <component glyphName="E" x="0" y="0" flags="0x204"/>
      <component glyphName="dotaccent" x="206" y="199" flags="0x4"/>
    </TTGlyph>
    <TTGlyph name="Egrave" xMin="77" yMin="0" xMax="582" yMax="915">
      <component glyphName="E" x="0" y="0" flags="0x204"/>
      <component glyphName="grave" x="39" y="199" flags="0x4"/>
    </TTGlyph>
    <TTGlyph name="Emacron" xMin="77" yMin="0" xMax="582" yMax="873">
      <component glyphName="E" x="0" y="0" flags="0x204"/>
      <component glyphName="macron" x="81" y="199" flags="0x4"/>
    </TTGlyph>
    <TTGlyph name="Eng" xMin="77" yMin="-208" xMax="648" yMax="700">
      <contour>
        <pt x="575" y="0" on="1"/>
        <pt x="150" y="577" on="1"/>
        <pt x="150" y="0" on="1"/>
        <pt x="77" y="0" on="1"/>
        <pt x="77" y="700" on="1"/>
        <pt x="149" y="700" on="1"/>
        <pt x="575" y="124" on="1"/>
        <pt x="575" y="700" on="1"/>
        <pt x="648" y="700" on="1"/>
        <pt x="648" y="-83" on="1"/>
        <pt x="648" y="-143" on="0"/>
        <pt x="581" y="-208" on="0"/>
        <pt x="520" y="-208" on="1"/>
        <pt x="510" y="-208" on="0"/>
        <pt x="481" y="-204" on="0"/>
        <pt x="473" y="-202" on="1"/>
        <pt x="473" y="-140" on="1"/>
        <pt x="483" y="-142" on="0"/>
        <pt x="499" y="-144" on="0"/>
        <pt x="511" y="-144" on="1"/>
        <pt x="545" y="-144" on="0"/>
        <pt x="575" y="-112" on="0"/>
        <pt x="575" y="-76" on="1"/>
      </contour>
    </TTGlyph>
    <TTGlyph name="Eogonek" xMin="77" yMin="-221" xMax="597" yMax="700">
      <contour>
        <pt x="77" y="0" on="1"/>
        <pt x="77" y="700" on="1"/>
        <pt x="578" y="700" on="1"/>
        <pt x="578" y="632" on="1"/>
        <pt x="154" y="632" on="1"/>
        <pt x="154" y="387" on="1"/>
        <pt x="431" y="387" on="1"/>
        <pt x="431" y="320" on="1"/>
        <pt x="154" y="320" on="1"/>
        <pt x="154" y="68" on="1"/>
        <pt x="582" y="68" on="1"/>
        <pt x="582" y="0" on="1"/>
        <pt x="528" y="-34" on="0"/>
        <pt x="476" y="-94" on="0"/>
        <pt x="476" y="-123" on="1"/>
        <pt x="476" y="-148" on="0"/>
        <pt x="506" y="-175" on="0"/>
        <pt x="534" y="-175" on="1"/>
        <pt x="547" y="-175" on="0"/>
        <pt x="572" y="-168" on="0"/>
        <pt x="582" y="-161" on="1"/>
        <pt x="597" y="-200" on="1"/>
        <pt x="581" y="-210" on="0"/>
        <pt x="544" y="-221" on="0"/>
        <pt x="523" y="-221" on="1"/>
        <pt x="479" y="-221" on="0"/>
        <pt x="425" y="-174" on="0"/>
        <pt x="425" y="-135" on="1"/>
        <pt x="425" y="-100" on="0"/>
        <pt x="472" y="-36" on="0"/>
        <pt x="524" y="0" on="1"/>
      </contour>
    </TTGlyph>
    <TTGlyph name="Eth" xMin="13" yMin="0" xMax="699" yMax="700">
      <contour>
        <pt x="100" y="0" on="1"/>
        <pt x="100" y="317" on="1"/>
        <pt x="13" y="317" on="1"/>
        <pt x="13" y="383" on="1"/>
        <pt x="100" y="383" on="1"/>
        <pt x="100" y="700" on="1"/>
        <pt x="331" y="700" on="1"/>
        <pt x="410" y="700" on="0"/>
        <pt x="546" y="647" on="0"/>
        <pt x="644" y="555" on="0"/>
        <pt x="699" y="426" on="0"/>
        <pt x="699" y="350" on="1"/>
        <pt x="699" y="274" on="0"/>
        <pt x="644" y="145" on="0"/>
        <pt x="547" y="53" on="0"/>
        <pt x="411" y="0" on="0"/>
        <pt x="331" y="0" on="1"/>
      </contour>
      <contour>
        <pt x="335" y="630" on="1"/>
        <pt x="177" y="630" on="1"/>
        <pt x="177" y="383" on="1"/>
        <pt x="366" y="383" on="1"/>
        <pt x="366" y="317" on="1"/>
        <pt x="177" y="317" on="1"/>
        <pt x="177" y="70" on="1"/>
        <pt x="335" y="70" on="1"/>
        <pt x="395" y="70" on="0"/>
        <pt x="501" y="113" on="0"/>
        <pt x="577" y="188" on="0"/>
        <pt x="621" y="291" on="0"/>
        <pt x="621" y="350" on="1"/>
        <pt x="621" y="409" on="0"/>
        <pt x="577" y="512" on="0"/>
        <pt x="501" y="587" on="0"/>
        <pt x="395" y="630" on="0"/>
      </contour>
    </TTGlyph>
    <TTGlyph name="Euro" xMin="33" yMin="-11" xMax="730" yMax="711">
      <contour>
        <pt x="198" y="350" on="1"/>
        <pt x="198" y="340" on="0"/>
        <pt x="199" y="320" on="0"/>
        <pt x="200" y="310" on="1"/>
        <pt x="445" y="310" on="1"/>
        <pt x="427" y="259" on="1"/>
        <pt x="209" y="259" on="1"/>
        <pt x="231" y="166" on="0"/>
        <pt x="367" y="54" on="0"/>
        <pt x="463" y="54" on="1"/>
        <pt x="528" y="54" on="0"/>
        <pt x="641" y="107" on="0"/>
        <pt x="676" y="156" on="1"/>
        <pt x="727" y="116" on="1"/>
        <pt x="681" y="56" on="0"/>
        <pt x="544" y="-11" on="0"/>
        <pt x="463" y="-11" on="1"/>
        <pt x="338" y="-11" on="0"/>
        <pt x="161" y="138" on="0"/>
        <pt x="135" y="259" on="1"/>
        <pt x="33" y="259" on="1"/>
        <pt x="33" y="310" on="1"/>
        <pt x="128" y="310" on="1"/>
        <pt x="127" y="320" on="0"/>
        <pt x="126" y="340" on="0"/>
        <pt x="126" y="350" on="1"/>
        <pt x="126" y="361" on="0"/>
        <pt x="127" y="383" on="0"/>
        <pt x="128" y="393" on="1"/>
        <pt x="33" y="393" on="1"/>
        <pt x="33" y="443" on="1"/>
        <pt x="136" y="443" on="1"/>
        <pt x="149" y="503" on="0"/>
        <pt x="209" y="602" on="0"/>
        <pt x="294" y="672" on="0"/>
        <pt x="404" y="711" on="0"/>
        <pt x="466" y="711" on="1"/>
        <pt x="549" y="711" on="0"/>
        <pt x="684" y="647" on="0"/>
        <pt x="730" y="586" on="1"/>
        <pt x="677" y="545" on="1"/>
        <pt x="640" y="595" on="0"/>
        <pt x="530" y="647" on="0"/>
        <pt x="464" y="647" on="1"/>
        <pt x="368" y="647" on="0"/>
        <pt x="232" y="536" on="0"/>
        <pt x="209" y="443" on="1"/>
        <pt x="492" y="443" on="1"/>
        <pt x="474" y="393" on="1"/>
        <pt x="200" y="393" on="1"/>
        <pt x="199" y="383" on="0"/>
        <pt x="198" y="361" on="0"/>
      </contour>
    </TTGlyph>
    <TTGlyph name="F" xMin="77" yMin="0" xMax="578" yMax="700">
      <contour>
        <pt x="77" y="0" on="1"/>
        <pt x="77" y="700" on="1"/>
        <pt x="578" y="700" on="1"/>
        <pt x="578" y="632" on="1"/>
        <pt x="154" y="632" on="1"/>
        <pt x="154" y="382" on="1"/>
        <pt x="432" y="382" on="1"/>
        <pt x="432" y="315" on="1"/>
        <pt x="154" y="315" on="1"/>
        <pt x="154" y="0" on="1"/>
      </contour>
    </TTGlyph>
    <TTGlyph name="G" xMin="44" yMin="-11" xMax="746" yMax="711">
      <contour>
        <pt x="746" y="335" on="1"/>
        <pt x="746" y="262" on="0"/>
        <pt x="694" y="135" on="0"/>
        <pt x="602" y="43" on="0"/>
        <pt x="478" y="-11" on="0"/>
        <pt x="406" y="-11" on="1"/>
        <pt x="331" y="-11" on="0"/>
        <pt x="198" y="46" on="0"/>
        <pt x="101" y="143" on="0"/>
        <pt x="44" y="275" on="0"/>
        <pt x="44" y="350" on="1"/>
        <pt x="44" y="425" on="0"/>
        <pt x="100" y="557" on="0"/>
        <pt x="197" y="654" on="0"/>
        <pt x="330" y="711" on="0"/>
        <pt x="405" y="711" on="1"/>
        <pt x="486" y="711" on="0"/>
        <pt x="630" y="650" on="0"/>
        <pt x="681" y="596" on="1"/>
        <pt x="629" y="543" on="1"/>
        <pt x="589" y="589" on="0"/>
        <pt x="469" y="640" on="0"/>
        <pt x="405" y="640" on="1"/>
        <pt x="345" y="640" on="0"/>
        <pt x="241" y="595" on="0"/>
        <pt x="166" y="518" on="0"/>
        <pt x="122" y="411" on="0"/>
        <pt x="122" y="350" on="1"/>
        <pt x="122" y="289" on="0"/>
        <pt x="166" y="182" on="0"/>
        <pt x="241" y="105" on="0"/>
        <pt x="345" y="60" on="0"/>
        <pt x="405" y="60" on="1"/>
        <pt x="458" y="60" on="0"/>
        <pt x="551" y="96" on="0"/>
        <pt x="620" y="159" on="0"/>
        <pt x="664" y="247" on="0"/>
        <pt x="668" y="298" on="1"/>
        <pt x="417" y="298" on="1"/>
        <pt x="417" y="366" on="1"/>
        <pt x="746" y="366" on="1"/>
      </contour>
    </TTGlyph>
    <TTGlyph name="Gbreve" xMin="44" yMin="-11" xMax="746" yMax="927">
      <component glyphName="G" x="0" y="0" flags="0x204"/>
      <component glyphName="breve" x="145" y="199" flags="0x4"/>
    </TTGlyph>
    <TTGlyph name="Gcircumflex" xMin="44" yMin="-11" xMax="746" yMax="916">
      <component glyphName="G" x="0" y="0" flags="0x204"/>
      <component glyphName="circumflex" x="145" y="199" flags="0x4"/>
    </TTGlyph>
    <TTGlyph name="Gcommaaccent" xMin="44" yMin="-264" xMax="746" yMax="711">
      <component glyphName="G" x="0" y="0" flags="0x204"/>
      <component glyphName="commaaccent" x="300" y="0" flags="0x4"/>
    </TTGlyph>
    <TTGlyph name="Gdotaccent" xMin="44" yMin="-11" xMax="746" yMax="899">
      <component glyphName="G" x="0" y="0" flags="0x204"/>
      <component glyphName="dotaccent" x="270" y="199" flags="0x4"/>
    </TTGlyph>
    <TTGlyph name="H" xMin="77" yMin="0" xMax="638" yMax="700">
      <contour>
        <pt x="77" y="0" on="1"/>
        <pt x="77" y="700" on="1"/>
        <pt x="154" y="700" on="1"/>
        <pt x="154" y="387" on="1"/>
        <pt x="561" y="387" on="1"/>
        <pt x="561" y="700" on="1"/>
        <pt x="638" y="700" on="1"/>
        <pt x="638" y="0" on="1"/>
        <pt x="561" y="0" on="1"/>
        <pt x="561" y="318" on="1"/>
        <pt x="154" y="318" on="1"/>
        <pt x="154" y="0" on="1"/>
      </contour>
    </TTGlyph>
    <TTGlyph name="Hbar" xMin="15" yMin="0" xMax="712" yMax="700">
      <contour>
        <pt x="83" y="0" on="1"/>
        <pt x="83" y="518" on="1"/>
        <pt x="15" y="518" on="1"/>
        <pt x="15" y="584" on="1"/>
        <pt x="83" y="584" on="1"/>
        <pt x="83" y="700" on="1"/>
        <pt x="160" y="700" on="1"/>
        <pt x="160" y="584" on="1"/>
        <pt x="567" y="584" on="1"/>
        <pt x="567" y="700" on="1"/>
        <pt x="644" y="700" on="1"/>
        <pt x="644" y="584" on="1"/>
        <pt x="712" y="584" on="1"/>
        <pt x="712" y="518" on="1"/>
        <pt x="644" y="518" on="1"/>
        <pt x="644" y="0" on="1"/>
        <pt x="567" y="0" on="1"/>
        <pt x="567" y="318" on="1"/>
        <pt x="160" y="318" on="1"/>
        <pt x="160" y="0" on="1"/>
      </contour>
      <contour>
        <pt x="160" y="387" on="1"/>
        <pt x="567" y="387" on="1"/>
        <pt x="567" y="518" on="1"/>
        <pt x="160" y="518" on="1"/>
      </contour>
    </TTGlyph>
    <TTGlyph name="Hcircumflex" xMin="77" yMin="0" xMax="638" yMax="916">
      <component glyphName="H" x="0" y="0" flags="0x204"/>
      <component glyphName="circumflex" x="98" y="199" flags="0x4"/>
    </TTGlyph>
    <TTGlyph name="I" xMin="77" yMin="0" xMax="154" yMax="700">
      <contour>
        <pt x="77" y="0" on="1"/>
        <pt x="77" y="700" on="1"/>
        <pt x="154" y="700" on="1"/>
        <pt x="154" y="0" on="1"/>
      </contour>
    </TTGlyph>
    <TTGlyph name="IJ" xMin="77" yMin="-11" xMax="768" yMax="700">
      <component glyphName="I" x="0" y="0" flags="0x4"/>
      <component glyphName="J" x="231" y="0" flags="0x4"/>
    </TTGlyph>
    <TTGlyph name="Iacute" xMin="61" yMin="0" xMax="250" yMax="915">
      <component glyphName="I" x="0" y="0" flags="0x204"/>
      <component glyphName="acute" x="-106" y="199" flags="0x4"/>
    </TTGlyph>
    <TTGlyph name="Ibreve" xMin="-38" yMin="0" xMax="270" yMax="927">
      <component glyphName="I" x="0" y="0" flags="0x204"/>
      <component glyphName="breve" x="-144" y="199" flags="0x4"/>
    </TTGlyph>
    <TTGlyph name="Icircumflex" xMin="-28" yMin="0" xMax="260" yMax="916">
      <component glyphName="I" x="0" y="0" flags="0x204"/>
      <component glyphName="circumflex" x="-144" y="199" flags="0x4"/>
    </TTGlyph>
    <TTGlyph name="Idieresis" xMin="-22" yMin="0" xMax="252" yMax="906">
      <component glyphName="I" x="0" y="0" flags="0x204"/>
      <component glyphName="dieresis" x="-154" y="199" flags="0x4"/>
    </TTGlyph>
    <TTGlyph name="Idotaccent" xMin="66" yMin="0" xMax="165" yMax="899">
      <component glyphName="I" x="0" y="0" flags="0x204"/>
      <component glyphName="dotaccent" x="-19" y="199" flags="0x4"/>
    </TTGlyph>
    <TTGlyph name="Igrave" xMin="-21" yMin="0" xMax="167" yMax="915">
      <component glyphName="I" x="0" y="0" flags="0x204"/>
      <component glyphName="grave" x="-186" y="199" flags="0x4"/>
    </TTGlyph>
    <TTGlyph name="Imacron" xMin="-22" yMin="0" xMax="261" yMax="873">
      <component glyphName="I" x="0" y="0" flags="0x204"/>
      <component glyphName="macron" x="-144" y="199" flags="0x4"/>
    </TTGlyph>
    <TTGlyph name="Iogonek" xMin="-3" yMin="-221" xMax="169" yMax="700">
      <contour>
        <pt x="77" y="0" on="1"/>
        <pt x="77" y="700" on="1"/>
        <pt x="154" y="700" on="1"/>
        <pt x="154" y="0" on="1"/>
        <pt x="100" y="-34" on="0"/>
        <pt x="48" y="-94" on="0"/>
        <pt x="48" y="-123" on="1"/>
        <pt x="48" y="-148" on="0"/>
        <pt x="78" y="-175" on="0"/>
        <pt x="106" y="-175" on="1"/>
        <pt x="119" y="-175" on="0"/>
        <pt x="144" y="-168" on="0"/>
        <pt x="154" y="-161" on="1"/>
        <pt x="169" y="-200" on="1"/>
        <pt x="153" y="-210" on="0"/>
        <pt x="116" y="-221" on="0"/>
        <pt x="95" y="-221" on="1"/>
        <pt x="51" y="-221" on="0"/>
        <pt x="-3" y="-174" on="0"/>
        <pt x="-3" y="-135" on="1"/>
        <pt x="-3" y="-100" on="0"/>
        <pt x="44" y="-36" on="0"/>
        <pt x="96" y="0" on="1"/>
      </contour>
    </TTGlyph>
    <TTGlyph name="Itilde" xMin="-48" yMin="0" xMax="287" yMax="905">
      <component glyphName="I" x="0" y="0" flags="0x204"/>
      <component glyphName="tilde" x="-140" y="199" flags="0x4"/>
    </TTGlyph>
    <TTGlyph name="J" xMin="17" yMin="-11" xMax="537" yMax="700">
      <contour>
        <pt x="537" y="264" on="1"/>
        <pt x="537" y="139" on="0"/>
        <pt x="393" y="-11" on="0"/>
        <pt x="271" y="-11" on="1"/>
        <pt x="181" y="-11" on="0"/>
        <pt x="48" y="83" on="0"/>
        <pt x="17" y="168" on="1"/>
        <pt x="87" y="197" on="1"/>
        <pt x="114" y="128" on="0"/>
        <pt x="207" y="60" on="0"/>
        <pt x="272" y="60" on="1"/>
        <pt x="357" y="60" on="0"/>
        <pt x="460" y="172" on="0"/>
        <pt x="460" y="265" on="1"/>
        <pt x="460" y="700" on="1"/>
        <pt x="537" y="700" on="1"/>
      </contour>
    </TTGlyph>
    <TTGlyph name="Jcircumflex" xMin="17" yMin="-11" xMax="644" yMax="916">
      <component glyphName="J" x="0" y="0" flags="0x204"/>
      <component glyphName="circumflex" x="240" y="199" flags="0x4"/>
    </TTGlyph>
    <TTGlyph name="K" xMin="77" yMin="0" xMax="625" yMax="700">
      <contour>
        <pt x="77" y="0" on="1"/>
        <pt x="77" y="700" on="1"/>
        <pt x="154" y="700" on="1"/>
        <pt x="154" y="368" on="1"/>
        <pt x="516" y="700" on="1"/>
        <pt x="617" y="700" on="1"/>
        <pt x="237" y="357" on="1"/>
        <pt x="625" y="0" on="1"/>
        <pt x="517" y="0" on="1"/>
        <pt x="154" y="336" on="1"/>
        <pt x="154" y="0" on="1"/>
      </contour>
    </TTGlyph>
    <TTGlyph name="Kcommaaccent" xMin="77" yMin="-264" xMax="625" yMax="700">
      <component glyphName="K" x="0" y="0" flags="0x204"/>
      <component glyphName="commaaccent" x="222" y="0" flags="0x4"/>
    </TTGlyph>
    <TTGlyph name="L" xMin="77" yMin="0" xMax="571" yMax="700">
      <contour>
        <pt x="77" y="0" on="1"/>
        <pt x="77" y="700" on="1"/>
        <pt x="154" y="700" on="1"/>
        <pt x="154" y="69" on="1"/>
        <pt x="571" y="69" on="1"/>
        <pt x="571" y="0" on="1"/>
      </contour>
    </TTGlyph>
    <TTGlyph name="Lacute" xMin="61" yMin="0" xMax="571" yMax="915">
      <component glyphName="L" x="0" y="0" flags="0x204"/>
      <component glyphName="acute" x="-106" y="199" flags="0x4"/>
    </TTGlyph>
    <TTGlyph name="Lcaron" xMin="77" yMin="0" xMax="571" yMax="714">
      <component glyphName="L" x="0" y="0" flags="0x4"/>
      <component glyphName="caronSlovak" x="201" y="0" flags="0x4"/>
    </TTGlyph>
    <TTGlyph name="Lcommaaccent" xMin="77" yMin="-264" xMax="571" yMax="700">
      <component glyphName="L" x="0" y="0" flags="0x204"/>
      <component glyphName="commaaccent" x="234" y="0" flags="0x4"/>
    </TTGlyph>
    <TTGlyph name="Ldot" xMin="77" yMin="0" xMax="571" yMax="700">
      <component glyphName="L" x="0" y="0" flags="0x4"/>
      <component glyphName="dotaccent" x="274" y="-296" flags="0x4"/>
    </TTGlyph>
    <TTGlyph name="Lslash" xMin="11" yMin="0" xMax="585" yMax="700">
      <contour>
        <pt x="91" y="0" on="1"/>
        <pt x="91" y="232" on="1"/>
        <pt x="11" y="171" on="1"/>
        <pt x="11" y="245" on="1"/>
        <pt x="91" y="306" on="1"/>
        <pt x="91" y="700" on="1"/>
        <pt x="168" y="700" on="1"/>
        <pt x="168" y="364" on="1"/>
        <pt x="368" y="515" on="1"/>
        <pt x="368" y="441" on="1"/>
        <pt x="168" y="290" on="1"/>
        <pt x="168" y="69" on="1"/>
        <pt x="585" y="69" on="1"/>
        <pt x="585" y="0" on="1"/>
      </contour>
    </TTGlyph>
    <TTGlyph name="M" xMin="77" yMin="0" xMax="770" yMax="700">
      <contour>
        <pt x="423" y="50" on="1"/>
        <pt x="149" y="611" on="1"/>
        <pt x="149" y="0" on="1"/>
        <pt x="77" y="0" on="1"/>
        <pt x="77" y="700" on="1"/>
        <pt x="185" y="700" on="1"/>
        <pt x="424" y="203" on="1"/>
        <pt x="662" y="700" on="1"/>
        <pt x="770" y="700" on="1"/>
        <pt x="770" y="0" on="1"/>
        <pt x="697" y="0" on="1"/>
        <pt x="697" y="612" on="1"/>
      </contour>
    </TTGlyph>
    <TTGlyph name="N" xMin="77" yMin="0" xMax="648" yMax="700">
      <contour>
        <pt x="77" y="700" on="1"/>
        <pt x="154" y="700" on="1"/>
        <pt x="575" y="132" on="1"/>
        <pt x="575" y="700" on="1"/>
        <pt x="648" y="700" on="1"/>
        <pt x="648" y="0" on="1"/>
        <pt x="580" y="0" on="1"/>
        <pt x="150" y="583" on="1"/>
        <pt x="150" y="0" on="1"/>
        <pt x="77" y="0" on="1"/>
      </contour>
    </TTGlyph>
    <TTGlyph name="Nacute" xMin="77" yMin="0" xMax="648" yMax="915">
      <component glyphName="N" x="0" y="0" flags="0x204"/>
      <component glyphName="acute" x="141" y="199" flags="0x4"/>
    </TTGlyph>
    <TTGlyph name="Ncaron" xMin="77" yMin="0" xMax="648" yMax="917">
      <component glyphName="N" x="0" y="0" flags="0x204"/>
      <component glyphName="caron" x="102" y="199" flags="0x4"/>
    </TTGlyph>
    <TTGlyph name="Ncommaaccent" xMin="77" yMin="-264" xMax="648" yMax="700">
      <component glyphName="N" x="0" y="0" flags="0x204"/>
      <component glyphName="commaaccent" x="253" y="0" flags="0x4"/>
    </TTGlyph>
    <TTGlyph name="Ntilde" xMin="77" yMin="0" xMax="648" yMax="905">
      <component glyphName="N" x="0" y="0" flags="0x204"/>
      <component glyphName="tilde" x="107" y="199" flags="0x4"/>
    </TTGlyph>
    <TTGlyph name="O" xMin="44" yMin="-11" xMax="765" yMax="711">
      <contour>
        <pt x="765" y="350" on="1"/>
        <pt x="765" y="275" on="0"/>
        <pt x="709" y="142" on="0"/>
        <pt x="612" y="45" on="0"/>
        <pt x="480" y="-11" on="0"/>
        <pt x="405" y="-11" on="1"/>
        <pt x="330" y="-11" on="0"/>
        <pt x="197" y="45" on="0"/>
        <pt x="100" y="142" on="0"/>
        <pt x="44" y="275" on="0"/>
        <pt x="44" y="350" on="1"/>
        <pt x="44" y="425" on="0"/>
        <pt x="100" y="558" on="0"/>
        <pt x="197" y="655" on="0"/>
        <pt x="330" y="711" on="0"/>
        <pt x="405" y="711" on="1"/>
        <pt x="480" y="711" on="0"/>
        <pt x="612" y="655" on="0"/>
        <pt x="709" y="558" on="0"/>
        <pt x="765" y="425" on="0"/>
      </contour>
      <contour>
        <pt x="687" y="350" on="1"/>
        <pt x="687" y="411" on="0"/>
        <pt x="643" y="518" on="0"/>
        <pt x="568" y="595" on="0"/>
        <pt x="464" y="640" on="0"/>
        <pt x="405" y="640" on="1"/>
        <pt x="345" y="640" on="0"/>
        <pt x="241" y="595" on="0"/>
        <pt x="166" y="518" on="0"/>
        <pt x="122" y="411" on="0"/>
        <pt x="122" y="350" on="1"/>
        <pt x="122" y="289" on="0"/>
        <pt x="166" y="183" on="0"/>
        <pt x="241" y="105" on="0"/>
        <pt x="345" y="60" on="0"/>
        <pt x="405" y="60" on="1"/>
        <pt x="464" y="60" on="0"/>
        <pt x="568" y="105" on="0"/>
        <pt x="643" y="183" on="0"/>
        <pt x="687" y="289" on="0"/>
      </contour>
    </TTGlyph>
    <TTGlyph name="OE" xMin="45" yMin="0" xMax="1050" yMax="700">
      <contour>
        <pt x="394" y="0" on="1"/>
        <pt x="321" y="0" on="0"/>
        <pt x="193" y="55" on="0"/>
        <pt x="99" y="149" on="0"/>
        <pt x="45" y="277" on="0"/>
        <pt x="45" y="350" on="1"/>
        <pt x="45" y="423" on="0"/>
        <pt x="99" y="551" on="0"/>
        <pt x="193" y="645" on="0"/>
        <pt x="321" y="700" on="0"/>
        <pt x="394" y="700" on="1"/>
        <pt x="1050" y="700" on="1"/>
        <pt x="1050" y="632" on="1"/>
        <pt x="595" y="632" on="1"/>
        <pt x="655" y="592" on="0"/>
        <pt x="733" y="462" on="0"/>
        <pt x="741" y="387" on="1"/>
        <pt x="922" y="387" on="1"/>
        <pt x="922" y="320" on="1"/>
        <pt x="742" y="320" on="1"/>
        <pt x="735" y="242" on="0"/>
        <pt x="658" y="110" on="0"/>
        <pt x="596" y="68" on="1"/>
        <pt x="1050" y="68" on="1"/>
        <pt x="1050" y="0" on="1"/>
      </contour>
      <contour>
        <pt x="394" y="70" on="1"/>
        <pt x="451" y="70" on="0"/>
        <pt x="551" y="113" on="0"/>
        <pt x="623" y="188" on="0"/>
        <pt x="665" y="291" on="0"/>
        <pt x="665" y="350" on="1"/>
        <pt x="665" y="409" on="0"/>
        <pt x="623" y="512" on="0"/>
        <pt x="551" y="587" on="0"/>
        <pt x="451" y="630" on="0"/>
        <pt x="394" y="630" on="1"/>
        <pt x="337" y="630" on="0"/>
        <pt x="238" y="587" on="0"/>
        <pt x="165" y="512" on="0"/>
        <pt x="123" y="409" on="0"/>
        <pt x="123" y="350" on="1"/>
        <pt x="123" y="291" on="0"/>
        <pt x="165" y="188" on="0"/>
        <pt x="238" y="113" on="0"/>
        <pt x="337" y="70" on="0"/>
      </contour>
    </TTGlyph>
    <TTGlyph name="Oacute" xMin="44" yMin="-11" xMax="765" yMax="915">
      <component glyphName="O" x="0" y="0" flags="0x204"/>
      <component glyphName="acute" x="184" y="199" flags="0x4"/>
    </TTGlyph>
    <TTGlyph name="Obreve" xMin="44" yMin="-11" xMax="765" yMax="927">
      <component glyphName="O" x="0" y="0" flags="0x204"/>
      <component glyphName="breve" x="145" y="199" flags="0x4"/>
    </TTGlyph>
    <TTGlyph name="Ocircumflex" xMin="44" yMin="-11" xMax="765" yMax="916">
      <component glyphName="O" x="0" y="0" flags="0x204"/>
      <component glyphName="circumflex" x="145" y="199" flags="0x4"/>
    </TTGlyph>
    <TTGlyph name="Odieresis" xMin="44" yMin="-11" xMax="765" yMax="906">
      <component glyphName="O" x="0" y="0" flags="0x204"/>
      <component glyphName="dieresis" x="135" y="199" flags="0x4"/>
    </TTGlyph>
    <TTGlyph name="Ograve" xMin="44" yMin="-11" xMax="765" yMax="915">
      <component glyphName="O" x="0" y="0" flags="0x204"/>
      <component glyphName="grave" x="103" y="199" flags="0x4"/>
    </TTGlyph>
    <TTGlyph name="Ohungarumlaut" xMin="44" yMin="-11" xMax="765" yMax="915">
      <component glyphName="O" x="0" y="0" flags="0x204"/>
      <component glyphName="hungarumlaut" x="158" y="199" flags="0x4"/>
    </TTGlyph>
    <TTGlyph name="Omacron" xMin="44" yMin="-11" xMax="765" yMax="873">
      <component glyphName="O" x="0" y="0" flags="0x204"/>
      <component glyphName="macron" x="145" y="199" flags="0x4"/>
    </TTGlyph>
    <TTGlyph name="Oslash" xMin="44" yMin="-11" xMax="765" yMax="711">
      <contour>
        <pt x="151" y="0" on="1"/>
        <pt x="72" y="0" on="1"/>
        <pt x="149" y="93" on="1"/>
        <pt x="100" y="142" on="0"/>
        <pt x="44" y="275" on="0"/>
        <pt x="44" y="350" on="1"/>
        <pt x="44" y="425" on="0"/>
        <pt x="100" y="558" on="0"/>
        <pt x="197" y="655" on="0"/>
        <pt x="330" y="711" on="0"/>
        <pt x="405" y="711" on="1"/>
        <pt x="462" y="711" on="0"/>
        <pt x="566" y="678" on="0"/>
        <pt x="609" y="649" on="1"/>
        <pt x="651" y="700" on="1"/>
        <pt x="732" y="700" on="1"/>
        <pt x="657" y="610" on="1"/>
        <pt x="707" y="561" on="0"/>
        <pt x="765" y="427" on="0"/>
        <pt x="765" y="350" on="1"/>
        <pt x="765" y="275" on="0"/>
        <pt x="709" y="142" on="0"/>
        <pt x="612" y="45" on="0"/>
        <pt x="480" y="-11" on="0"/>
        <pt x="405" y="-11" on="1"/>
        <pt x="347" y="-11" on="0"/>
        <pt x="240" y="23" on="0"/>
        <pt x="196" y="54" on="1"/>
      </contour>
      <contour>
        <pt x="122" y="350" on="1"/>
        <pt x="122" y="292" on="0"/>
        <pt x="162" y="189" on="0"/>
        <pt x="197" y="151" on="1"/>
        <pt x="562" y="593" on="1"/>
        <pt x="529" y="615" on="0"/>
        <pt x="449" y="640" on="0"/>
        <pt x="405" y="640" on="1"/>
        <pt x="345" y="640" on="0"/>
        <pt x="241" y="595" on="0"/>
        <pt x="166" y="518" on="0"/>
        <pt x="122" y="411" on="0"/>
      </contour>
      <contour>
        <pt x="687" y="350" on="1"/>
        <pt x="687" y="410" on="0"/>
        <pt x="646" y="514" on="0"/>
        <pt x="610" y="552" on="1"/>
        <pt x="243" y="110" on="1"/>
        <pt x="277" y="87" on="0"/>
        <pt x="359" y="60" on="0"/>
        <pt x="405" y="60" on="1"/>
        <pt x="464" y="60" on="0"/>
        <pt x="568" y="105" on="0"/>
        <pt x="643" y="183" on="0"/>
        <pt x="687" y="289" on="0"/>
      </contour>
    </TTGlyph>
    <TTGlyph name="Otilde" xMin="44" yMin="-11" xMax="765" yMax="905">
      <component glyphName="O" x="0" y="0" flags="0x204"/>
      <component glyphName="tilde" x="149" y="199" flags="0x4"/>
    </TTGlyph>
    <TTGlyph name="P" xMin="77" yMin="0" xMax="607" yMax="700">
      <contour>
        <pt x="77" y="0" on="1"/>
        <pt x="77" y="700" on="1"/>
        <pt x="381" y="700" on="1"/>
        <pt x="483" y="700" on="0"/>
        <pt x="607" y="589" on="0"/>
        <pt x="607" y="498" on="1"/>
        <pt x="607" y="407" on="0"/>
        <pt x="482" y="295" on="0"/>
        <pt x="381" y="295" on="1"/>
        <pt x="154" y="295" on="1"/>
        <pt x="154" y="0" on="1"/>
      </contour>
      <contour>
        <pt x="375" y="631" on="1"/>
        <pt x="154" y="631" on="1"/>
        <pt x="154" y="362" on="1"/>
        <pt x="375" y="362" on="1"/>
        <pt x="446" y="362" on="0"/>
        <pt x="530" y="435" on="0"/>
        <pt x="530" y="497" on="1"/>
        <pt x="530" y="559" on="0"/>
        <pt x="446" y="631" on="0"/>
      </contour>
    </TTGlyph>
    <TTGlyph name="Q" xMin="44" yMin="-16" xMax="765" yMax="711">
      <contour>
        <pt x="765" y="350" on="1"/>
        <pt x="765" y="271" on="0"/>
        <pt x="703" y="133" on="0"/>
        <pt x="650" y="84" on="1"/>
        <pt x="724" y="-5" on="1"/>
        <pt x="645" y="-16" on="1"/>
        <pt x="596" y="43" on="1"/>
        <pt x="555" y="18" on="0"/>
        <pt x="457" y="-11" on="0"/>
        <pt x="405" y="-11" on="1"/>
        <pt x="330" y="-11" on="0"/>
        <pt x="197" y="45" on="0"/>
        <pt x="100" y="142" on="0"/>
        <pt x="44" y="275" on="0"/>
        <pt x="44" y="350" on="1"/>
        <pt x="44" y="425" on="0"/>
        <pt x="100" y="558" on="0"/>
        <pt x="197" y="655" on="0"/>
        <pt x="330" y="711" on="0"/>
        <pt x="405" y="711" on="1"/>
        <pt x="480" y="711" on="0"/>
        <pt x="612" y="655" on="0"/>
        <pt x="709" y="558" on="0"/>
        <pt x="765" y="425" on="0"/>
      </contour>
      <contour>
        <pt x="527" y="230" on="1"/>
        <pt x="602" y="140" on="1"/>
        <pt x="642" y="180" on="0"/>
        <pt x="687" y="288" on="0"/>
        <pt x="687" y="350" on="1"/>
        <pt x="687" y="411" on="0"/>
        <pt x="643" y="518" on="0"/>
        <pt x="568" y="595" on="0"/>
        <pt x="464" y="640" on="0"/>
        <pt x="405" y="640" on="1"/>
        <pt x="345" y="640" on="0"/>
        <pt x="241" y="595" on="0"/>
        <pt x="166" y="518" on="0"/>
        <pt x="122" y="411" on="0"/>
        <pt x="122" y="350" on="1"/>
        <pt x="122" y="289" on="0"/>
        <pt x="166" y="183" on="0"/>
        <pt x="241" y="105" on="0"/>
        <pt x="345" y="60" on="0"/>
        <pt x="405" y="60" on="1"/>
        <pt x="445" y="60" on="0"/>
        <pt x="517" y="80" on="0"/>
        <pt x="548" y="99" on="1"/>
        <pt x="448" y="218" on="1"/>
      </contour>
    </TTGlyph>
    <TTGlyph name="R" xMin="77" yMin="0" xMax="613" yMax="700">
      <contour>
        <pt x="77" y="0" on="1"/>
        <pt x="77" y="700" on="1"/>
        <pt x="377" y="700" on="1"/>
        <pt x="479" y="700" on="0"/>
        <pt x="605" y="589" on="0"/>
        <pt x="605" y="499" on="1"/>
        <pt x="605" y="430" on="0"/>
        <pt x="524" y="330" on="0"/>
        <pt x="456" y="311" on="1"/>
        <pt x="613" y="0" on="1"/>
        <pt x="528" y="0" on="1"/>
        <pt x="378" y="301" on="1"/>
        <pt x="154" y="301" on="1"/>
        <pt x="154" y="0" on="1"/>
      </contour>
      <contour>
        <pt x="372" y="631" on="1"/>
        <pt x="154" y="631" on="1"/>
        <pt x="154" y="366" on="1"/>
        <pt x="372" y="366" on="1"/>
        <pt x="442" y="366" on="0"/>
        <pt x="528" y="439" on="0"/>
        <pt x="528" y="499" on="1"/>
        <pt x="528" y="559" on="0"/>
        <pt x="442" y="631" on="0"/>
      </contour>
    </TTGlyph>
    <TTGlyph name="Racute" xMin="77" yMin="0" xMax="613" yMax="915">
      <component glyphName="R" x="0" y="0" flags="0x204"/>
      <component glyphName="acute" x="96" y="199" flags="0x4"/>
    </TTGlyph>
    <TTGlyph name="Rcaron" xMin="77" yMin="0" xMax="613" yMax="917">
      <component glyphName="R" x="0" y="0" flags="0x204"/>
      <component glyphName="caron" x="57" y="199" flags="0x4"/>
    </TTGlyph>
    <TTGlyph name="Rcommaaccent" xMin="77" yMin="-264" xMax="613" yMax="700">
      <component glyphName="R" x="0" y="0" flags="0x204"/>
      <component glyphName="commaaccent" x="210" y="0" flags="0x4"/>
    </TTGlyph>
    <TTGlyph name="S" xMin="11" yMin="-10" xMax="572" yMax="709">
      <contour>
        <pt x="11" y="120" on="1"/>
        <pt x="62" y="173" on="1"/>
        <pt x="116" y="116" on="0"/>
        <pt x="239" y="57" on="0"/>
        <pt x="307" y="57" on="1"/>
        <pt x="389" y="57" on="0"/>
        <pt x="495" y="135" on="0"/>
        <pt x="495" y="195" on="1"/>
        <pt x="495" y="249" on="0"/>
        <pt x="420" y="307" on="0"/>
        <pt x="334" y="321" on="1"/>
        <pt x="233" y="337" on="1"/>
        <pt x="132" y="353" on="0"/>
        <pt x="36" y="440" on="0"/>
        <pt x="36" y="514" on="1"/>
        <pt x="36" y="601" on="0"/>
        <pt x="172" y="709" on="0"/>
        <pt x="282" y="709" on="1"/>
        <pt x="355" y="709" on="0"/>
        <pt x="499" y="661" on="0"/>
        <pt x="558" y="616" on="1"/>
        <pt x="514" y="556" on="1"/>
        <pt x="457" y="599" on="0"/>
        <pt x="339" y="643" on="0"/>
        <pt x="279" y="643" on="1"/>
        <pt x="204" y="643" on="0"/>
        <pt x="111" y="574" on="0"/>
        <pt x="111" y="520" on="1"/>
        <pt x="111" y="471" on="0"/>
        <pt x="177" y="419" on="0"/>
        <pt x="253" y="407" on="1"/>
        <pt x="353" y="391" on="1"/>
        <pt x="467" y="372" on="0"/>
        <pt x="572" y="280" on="0"/>
        <pt x="572" y="199" on="1"/>
        <pt x="572" y="153" on="0"/>
        <pt x="533" y="76" on="0"/>
        <pt x="462" y="21" on="0"/>
        <pt x="363" y="-10" on="0"/>
        <pt x="304" y="-10" on="1"/>
        <pt x="221" y="-10" on="0"/>
        <pt x="68" y="57" on="0"/>
      </contour>
    </TTGlyph>
    <TTGlyph name="Sacute" xMin="11" yMin="-10" xMax="572" yMax="916">
      <component glyphName="S" x="0" y="0" flags="0x204"/>
      <component glyphName="acute" x="60" y="200" flags="0x4"/>
    </TTGlyph>
    <TTGlyph name="Scaron" xMin="11" yMin="-10" xMax="572" yMax="918">
      <component glyphName="S" x="0" y="0" flags="0x204"/>
      <component glyphName="caron" x="21" y="200" flags="0x4"/>
    </TTGlyph>
    <TTGlyph name="Scedilla" xMin="11" yMin="-226" xMax="572" yMax="709">
      <contour>
        <pt x="11" y="120" on="1"/>
        <pt x="62" y="173" on="1"/>
        <pt x="116" y="116" on="0"/>
        <pt x="239" y="57" on="0"/>
        <pt x="307" y="57" on="1"/>
        <pt x="389" y="57" on="0"/>
        <pt x="495" y="135" on="0"/>
        <pt x="495" y="195" on="1"/>
        <pt x="495" y="249" on="0"/>
        <pt x="420" y="307" on="0"/>
        <pt x="334" y="321" on="1"/>
        <pt x="233" y="337" on="1"/>
        <pt x="132" y="353" on="0"/>
        <pt x="36" y="440" on="0"/>
        <pt x="36" y="514" on="1"/>
        <pt x="36" y="601" on="0"/>
        <pt x="172" y="709" on="0"/>
        <pt x="282" y="709" on="1"/>
        <pt x="355" y="709" on="0"/>
        <pt x="499" y="661" on="0"/>
        <pt x="558" y="616" on="1"/>
        <pt x="514" y="556" on="1"/>
        <pt x="457" y="599" on="0"/>
        <pt x="339" y="643" on="0"/>
        <pt x="279" y="643" on="1"/>
        <pt x="204" y="643" on="0"/>
        <pt x="111" y="574" on="0"/>
        <pt x="111" y="520" on="1"/>
        <pt x="111" y="471" on="0"/>
        <pt x="177" y="419" on="0"/>
        <pt x="253" y="407" on="1"/>
        <pt x="353" y="391" on="1"/>
        <pt x="467" y="372" on="0"/>
        <pt x="572" y="280" on="0"/>
        <pt x="572" y="199" on="1"/>
        <pt x="572" y="153" on="0"/>
        <pt x="533" y="76" on="0"/>
        <pt x="462" y="21" on="0"/>
        <pt x="364" y="-10" on="0"/>
        <pt x="306" y="-10" on="1"/>
        <pt x="294" y="-53" on="1"/>
        <pt x="337" y="-55" on="0"/>
        <pt x="389" y="-99" on="0"/>
        <pt x="389" y="-135" on="1"/>
        <pt x="389" y="-175" on="0"/>
        <pt x="324" y="-226" on="0"/>
        <pt x="274" y="-226" on="1"/>
        <pt x="241" y="-226" on="0"/>
        <pt x="183" y="-205" on="0"/>
        <pt x="161" y="-185" on="1"/>
        <pt x="191" y="-153" on="1"/>
        <pt x="210" y="-169" on="0"/>
        <pt x="252" y="-185" on="0"/>
        <pt x="274" y="-185" on="1"/>
        <pt x="304" y="-185" on="0"/>
        <pt x="338" y="-158" on="0"/>
        <pt x="338" y="-136" on="1"/>
        <pt x="338" y="-114" on="0"/>
        <pt x="301" y="-89" on="0"/>
        <pt x="269" y="-89" on="1"/>
        <pt x="240" y="-89" on="1"/>
        <pt x="263" y="-8" on="1"/>
        <pt x="191" y="-1" on="0"/>
        <pt x="61" y="65" on="0"/>
      </contour>
    </TTGlyph>
    <TTGlyph name="Scircumflex" xMin="11" yMin="-10" xMax="572" yMax="917">
      <component glyphName="S" x="0" y="0" flags="0x204"/>
      <component glyphName="circumflex" x="21" y="200" flags="0x4"/>
    </TTGlyph>
    <TTGlyph name="Scommaaccent" xMin="11" yMin="-262" xMax="572" yMax="709">
      <component glyphName="S" x="0" y="0" flags="0x204"/>
      <component glyphName="commaaccent" x="179" y="2" flags="0x4"/>
    </TTGlyph>
    <TTGlyph name="T" xMin="17" yMin="0" xMax="600" yMax="700">
      <contour>
        <pt x="17" y="631" on="1"/>
        <pt x="17" y="700" on="1"/>
        <pt x="600" y="700" on="1"/>
        <pt x="600" y="631" on="1"/>
        <pt x="347" y="631" on="1"/>
        <pt x="347" y="0" on="1"/>
        <pt x="270" y="0" on="1"/>
        <pt x="270" y="631" on="1"/>
      </contour>
    </TTGlyph>
    <TTGlyph name="Tbar" xMin="17" yMin="0" xMax="600" yMax="700">
      <contour>
        <pt x="121" y="372" on="1"/>
        <pt x="270" y="372" on="1"/>
        <pt x="270" y="631" on="1"/>
        <pt x="17" y="631" on="1"/>
        <pt x="17" y="700" on="1"/>
        <pt x="600" y="700" on="1"/>
        <pt x="600" y="631" on="1"/>
        <pt x="347" y="631" on="1"/>
        <pt x="347" y="372" on="1"/>
        <pt x="496" y="372" on="1"/>
        <pt x="496" y="306" on="1"/>
        <pt x="347" y="306" on="1"/>
        <pt x="347" y="0" on="1"/>
        <pt x="270" y="0" on="1"/>
        <pt x="270" y="306" on="1"/>
        <pt x="121" y="306" on="1"/>
      </contour>
    </TTGlyph>
    <TTGlyph name="Tcaron" xMin="17" yMin="0" xMax="600" yMax="917">
      <component glyphName="T" x="0" y="0" flags="0x204"/>
      <component glyphName="caron" x="48" y="199" flags="0x4"/>
    </TTGlyph>
    <TTGlyph name="Tcedilla" xMin="17" yMin="-228" xMax="600" yMax="700">
      <contour>
        <pt x="17" y="631" on="1"/>
        <pt x="17" y="700" on="1"/>
        <pt x="600" y="700" on="1"/>
        <pt x="600" y="631" on="1"/>
        <pt x="347" y="631" on="1"/>
        <pt x="347" y="0" on="1"/>
        <pt x="330" y="0" on="1"/>
        <pt x="315" y="-55" on="1"/>
        <pt x="358" y="-57" on="0"/>
        <pt x="410" y="-101" on="0"/>
        <pt x="410" y="-137" on="1"/>
        <pt x="410" y="-177" on="0"/>
        <pt x="345" y="-228" on="0"/>
        <pt x="295" y="-228" on="1"/>
        <pt x="262" y="-228" on="0"/>
        <pt x="204" y="-207" on="0"/>
        <pt x="182" y="-187" on="1"/>
        <pt x="212" y="-155" on="1"/>
        <pt x="231" y="-171" on="0"/>
        <pt x="273" y="-187" on="0"/>
        <pt x="295" y="-187" on="1"/>
        <pt x="325" y="-187" on="0"/>
        <pt x="359" y="-160" on="0"/>
        <pt x="359" y="-138" on="1"/>
        <pt x="359" y="-116" on="0"/>
        <pt x="322" y="-91" on="0"/>
        <pt x="290" y="-91" on="1"/>
        <pt x="261" y="-91" on="1"/>
        <pt x="287" y="0" on="1"/>
        <pt x="270" y="0" on="1"/>
        <pt x="270" y="631" on="1"/>
      </contour>
    </TTGlyph>
    <TTGlyph name="Thorn" xMin="77" yMin="0" xMax="598" yMax="700">
      <contour>
        <pt x="77" y="0" on="1"/>
        <pt x="77" y="700" on="1"/>
        <pt x="154" y="700" on="1"/>
        <pt x="154" y="559" on="1"/>
        <pt x="383" y="559" on="1"/>
        <pt x="429" y="559" on="0"/>
        <pt x="508" y="527" on="0"/>
        <pt x="565" y="471" on="0"/>
        <pt x="598" y="394" on="0"/>
        <pt x="598" y="349" on="1"/>
        <pt x="598" y="305" on="0"/>
        <pt x="565" y="229" on="0"/>
        <pt x="508" y="174" on="0"/>
        <pt x="429" y="142" on="0"/>
        <pt x="383" y="142" on="1"/>
        <pt x="154" y="142" on="1"/>
        <pt x="154" y="0" on="1"/>
      </contour>
      <contour>
        <pt x="375" y="490" on="1"/>
        <pt x="154" y="490" on="1"/>
        <pt x="154" y="209" on="1"/>
        <pt x="375" y="209" on="1"/>
        <pt x="436" y="209" on="0"/>
        <pt x="520" y="289" on="0"/>
        <pt x="520" y="349" on="1"/>
        <pt x="520" y="409" on="0"/>
        <pt x="436" y="491" on="0"/>
      </contour>
    </TTGlyph>
    <TTGlyph name="U" xMin="63" yMin="-11" xMax="641" yMax="700">
      <contour>
        <pt x="641" y="296" on="1"/>
        <pt x="641" y="156" on="0"/>
        <pt x="484" y="-11" on="0"/>
        <pt x="352" y="-11" on="1"/>
        <pt x="219" y="-11" on="0"/>
        <pt x="63" y="155" on="0"/>
        <pt x="63" y="296" on="1"/>
        <pt x="63" y="700" on="1"/>
        <pt x="140" y="700" on="1"/>
        <pt x="140" y="296" on="1"/>
        <pt x="140" y="189" on="0"/>
        <pt x="256" y="60" on="0"/>
        <pt x="352" y="60" on="1"/>
        <pt x="448" y="60" on="0"/>
        <pt x="564" y="189" on="0"/>
        <pt x="564" y="296" on="1"/>
        <pt x="564" y="700" on="1"/>
        <pt x="641" y="700" on="1"/>
      </contour>
    </TTGlyph>
    <TTGlyph name="Uacute" xMin="63" yMin="-11" xMax="641" yMax="915">
      <component glyphName="U" x="0" y="0" flags="0x204"/>
      <component glyphName="acute" x="131" y="199" flags="0x4"/>
    </TTGlyph>
    <TTGlyph name="Ubreve" xMin="63" yMin="-11" xMax="641" yMax="927">
      <component glyphName="U" x="0" y="0" flags="0x204"/>
      <component glyphName="breve" x="92" y="199" flags="0x4"/>
    </TTGlyph>
    <TTGlyph name="Ucircumflex" xMin="63" yMin="-11" xMax="641" yMax="916">
      <component glyphName="U" x="0" y="0" flags="0x204"/>
      <component glyphName="circumflex" x="92" y="199" flags="0x4"/>
    </TTGlyph>
    <TTGlyph name="Udieresis" xMin="63" yMin="-11" xMax="641" yMax="906">
      <component glyphName="U" x="0" y="0" flags="0x204"/>
      <component glyphName="dieresis" x="83" y="199" flags="0x4"/>
    </TTGlyph>
    <TTGlyph name="Ugrave" xMin="63" yMin="-11" xMax="641" yMax="915">
      <component glyphName="U" x="0" y="0" flags="0x204"/>
      <component glyphName="grave" x="50" y="199" flags="0x4"/>
    </TTGlyph>
    <TTGlyph name="Uhungarumlaut" xMin="63" yMin="-11" xMax="641" yMax="915">
      <component glyphName="U" x="0" y="0" flags="0x204"/>
      <component glyphName="hungarumlaut" x="105" y="199" flags="0x4"/>
    </TTGlyph>
    <TTGlyph name="Umacron" xMin="63" yMin="-11" xMax="641" yMax="873">
      <component glyphName="U" x="0" y="0" flags="0x204"/>
      <component glyphName="macron" x="92" y="199" flags="0x4"/>
    </TTGlyph>
    <TTGlyph name="Uogonek" xMin="63" yMin="-221" xMax="641" yMax="700">
      <contour>
        <pt x="641" y="296" on="1"/>
        <pt x="641" y="177" on="0"/>
        <pt x="528" y="19" on="0"/>
        <pt x="429" y="-3" on="1"/>
        <pt x="377" y="-37" on="0"/>
        <pt x="327" y="-95" on="0"/>
        <pt x="327" y="-123" on="1"/>
        <pt x="327" y="-148" on="0"/>
        <pt x="357" y="-175" on="0"/>
        <pt x="385" y="-175" on="1"/>
        <pt x="398" y="-175" on="0"/>
        <pt x="423" y="-168" on="0"/>
        <pt x="433" y="-161" on="1"/>
        <pt x="448" y="-200" on="1"/>
        <pt x="432" y="-210" on="0"/>
        <pt x="395" y="-221" on="0"/>
        <pt x="374" y="-221" on="1"/>
        <pt x="330" y="-221" on="0"/>
        <pt x="276" y="-174" on="0"/>
        <pt x="276" y="-135" on="1"/>
        <pt x="276" y="-103" on="0"/>
        <pt x="316" y="-44" on="0"/>
        <pt x="360" y="-11" on="1"/>
        <pt x="352" y="-11" on="1"/>
        <pt x="219" y="-11" on="0"/>
        <pt x="63" y="155" on="0"/>
        <pt x="63" y="296" on="1"/>
        <pt x="63" y="700" on="1"/>
        <pt x="140" y="700" on="1"/>
        <pt x="140" y="296" on="1"/>
        <pt x="140" y="189" on="0"/>
        <pt x="256" y="60" on="0"/>
        <pt x="352" y="60" on="1"/>
        <pt x="448" y="60" on="0"/>
        <pt x="564" y="189" on="0"/>
        <pt x="564" y="296" on="1"/>
        <pt x="564" y="700" on="1"/>
        <pt x="641" y="700" on="1"/>
      </contour>
    </TTGlyph>
    <TTGlyph name="Uring" xMin="63" yMin="-11" xMax="641" yMax="1003">
      <component glyphName="U" x="0" y="0" flags="0x204"/>
      <component glyphName="ring" x="92" y="199" flags="0x4"/>
    </TTGlyph>
    <TTGlyph name="Utilde" xMin="63" yMin="-11" xMax="641" yMax="905">
      <component glyphName="U" x="0" y="0" flags="0x204"/>
      <component glyphName="tilde" x="96" y="199" flags="0x4"/>
    </TTGlyph>
    <TTGlyph name="V" xMin="4" yMin="0" xMax="675" yMax="700">
      <contour>
        <pt x="291" y="0" on="1"/>
        <pt x="4" y="700" on="1"/>
        <pt x="87" y="700" on="1"/>
        <pt x="340" y="72" on="1"/>
        <pt x="597" y="700" on="1"/>
        <pt x="675" y="700" on="1"/>
        <pt x="384" y="0" on="1"/>
      </contour>
    </TTGlyph>
    <TTGlyph name="W" xMin="35" yMin="0" xMax="848" yMax="700">
      <contour>
        <pt x="264" y="0" on="1"/>
        <pt x="186" y="0" on="1"/>
        <pt x="35" y="700" on="1"/>
        <pt x="113" y="700" on="1"/>
        <pt x="232" y="122" on="1"/>
        <pt x="405" y="700" on="1"/>
        <pt x="480" y="700" on="1"/>
        <pt x="653" y="124" on="1"/>
        <pt x="773" y="700" on="1"/>
        <pt x="848" y="700" on="1"/>
        <pt x="697" y="0" on="1"/>
        <pt x="619" y="0" on="1"/>
        <pt x="442" y="593" on="1"/>
      </contour>
    </TTGlyph>
    <TTGlyph name="Wacute" xMin="35" yMin="0" xMax="848" yMax="915">
      <component glyphName="W" x="0" y="0" flags="0x204"/>
      <component glyphName="acute" x="222" y="199" flags="0x4"/>
    </TTGlyph>
    <TTGlyph name="Wcircumflex" xMin="35" yMin="0" xMax="848" yMax="916">
      <component glyphName="W" x="0" y="0" flags="0x204"/>
      <component glyphName="circumflex" x="181" y="199" flags="0x4"/>
    </TTGlyph>
    <TTGlyph name="Wdieresis" xMin="35" yMin="0" xMax="848" yMax="906">
      <component glyphName="W" x="0" y="0" flags="0x204"/>
      <component glyphName="dieresis" x="172" y="199" flags="0x4"/>
    </TTGlyph>
    <TTGlyph name="Wgrave" xMin="35" yMin="0" xMax="848" yMax="915">
      <component glyphName="W" x="0" y="0" flags="0x204"/>
      <component glyphName="grave" x="142" y="199" flags="0x4"/>
    </TTGlyph>
    <TTGlyph name="X" xMin="3" yMin="0" xMax="635" yMax="700">
      <contour>
        <pt x="93" y="0" on="1"/>
        <pt x="3" y="0" on="1"/>
        <pt x="273" y="363" on="1"/>
        <pt x="20" y="700" on="1"/>
        <pt x="114" y="700" on="1"/>
        <pt x="319" y="422" on="1"/>
        <pt x="524" y="700" on="1"/>
        <pt x="614" y="700" on="1"/>
        <pt x="364" y="364" on="1"/>
        <pt x="635" y="0" on="1"/>
        <pt x="542" y="0" on="1"/>
        <pt x="318" y="305" on="1"/>
      </contour>
    </TTGlyph>
    <TTGlyph name="Y" xMin="3" yMin="0" xMax="637" yMax="700">
      <contour>
        <pt x="281" y="0" on="1"/>
        <pt x="281" y="285" on="1"/>
        <pt x="3" y="700" on="1"/>
        <pt x="93" y="700" on="1"/>
        <pt x="322" y="353" on="1"/>
        <pt x="550" y="700" on="1"/>
        <pt x="637" y="700" on="1"/>
        <pt x="358" y="282" on="1"/>
        <pt x="358" y="0" on="1"/>
      </contour>
    </TTGlyph>
    <TTGlyph name="Yacute" xMin="3" yMin="0" xMax="637" yMax="915">
      <component glyphName="Y" x="0" y="0" flags="0x204"/>
      <component glyphName="acute" x="99" y="199" flags="0x4"/>
    </TTGlyph>
    <TTGlyph name="Ycircumflex" xMin="3" yMin="0" xMax="637" yMax="916">
      <component glyphName="Y" x="0" y="0" flags="0x204"/>
      <component glyphName="circumflex" x="61" y="199" flags="0x4"/>
    </TTGlyph>
    <TTGlyph name="Ydieresis" xMin="3" yMin="0" xMax="637" yMax="906">
      <component glyphName="Y" x="0" y="0" flags="0x204"/>
      <component glyphName="dieresis" x="51" y="199" flags="0x4"/>
    </TTGlyph>
    <TTGlyph name="Ygrave" xMin="3" yMin="0" xMax="637" yMax="915">
      <component glyphName="Y" x="0" y="0" flags="0x204"/>
      <component glyphName="grave" x="19" y="199" flags="0x4"/>
    </TTGlyph>
    <TTGlyph name="Z" xMin="24" yMin="0" xMax="578" yMax="700">
      <contour>
        <pt x="24" y="0" on="1"/>
        <pt x="24" y="55" on="1"/>
        <pt x="469" y="632" on="1"/>
        <pt x="28" y="632" on="1"/>
        <pt x="28" y="700" on="1"/>
        <pt x="570" y="700" on="1"/>
        <pt x="570" y="645" on="1"/>
        <pt x="123" y="68" on="1"/>
        <pt x="578" y="68" on="1"/>
        <pt x="578" y="0" on="1"/>
      </contour>
    </TTGlyph>
    <TTGlyph name="Zacute" xMin="24" yMin="0" xMax="578" yMax="915">
      <component glyphName="Z" x="0" y="0" flags="0x204"/>
      <component glyphName="acute" x="87" y="199" flags="0x4"/>
    </TTGlyph>
    <TTGlyph name="Zcaron" xMin="24" yMin="0" xMax="578" yMax="917">
      <component glyphName="Z" x="0" y="0" flags="0x204"/>
      <component glyphName="caron" x="48" y="199" flags="0x4"/>
    </TTGlyph>
    <TTGlyph name="Zdotaccent" xMin="24" yMin="0" xMax="578" yMax="899">
      <component glyphName="Z" x="0" y="0" flags="0x204"/>
      <component glyphName="dotaccent" x="174" y="199" flags="0x4"/>
    </TTGlyph>
    <TTGlyph name="a" xMin="36" yMin="-9" xMax="455" yMax="511">
      <contour>
        <pt x="221" y="-9" on="1"/>
        <pt x="139" y="-9" on="0"/>
        <pt x="36" y="75" on="0"/>
        <pt x="36" y="142" on="1"/>
        <pt x="36" y="212" on="0"/>
        <pt x="144" y="295" on="0"/>
        <pt x="236" y="295" on="1"/>
        <pt x="276" y="295" on="0"/>
        <pt x="351" y="277" on="0"/>
        <pt x="383" y="261" on="1"/>
        <pt x="383" y="327" on="1"/>
        <pt x="383" y="387" on="0"/>
        <pt x="315" y="448" on="0"/>
        <pt x="250" y="448" on="1"/>
        <pt x="213" y="448" on="0"/>
        <pt x="138" y="427" on="0"/>
        <pt x="93" y="404" on="1"/>
        <pt x="65" y="461" on="1"/>
        <pt x="119" y="487" on="0"/>
        <pt x="211" y="511" on="0"/>
        <pt x="257" y="511" on="1"/>
        <pt x="352" y="511" on="0"/>
        <pt x="455" y="421" on="0"/>
        <pt x="455" y="337" on="1"/>
        <pt x="455" y="0" on="1"/>
        <pt x="383" y="0" on="1"/>
        <pt x="383" y="49" on="1"/>
        <pt x="349" y="20" on="0"/>
        <pt x="268" y="-9" on="0"/>
      </contour>
      <contour>
        <pt x="107" y="144" on="1"/>
        <pt x="107" y="102" on="0"/>
        <pt x="178" y="49" on="0"/>
        <pt x="234" y="49" on="1"/>
        <pt x="279" y="49" on="0"/>
        <pt x="353" y="77" on="0"/>
        <pt x="383" y="107" on="1"/>
        <pt x="383" y="201" on="1"/>
        <pt x="352" y="222" on="0"/>
        <pt x="281" y="241" on="0"/>
        <pt x="238" y="241" on="1"/>
        <pt x="178" y="241" on="0"/>
        <pt x="107" y="188" on="0"/>
      </contour>
    </TTGlyph>
    <TTGlyph name="a.school" xMin="40" yMin="-8" xMax="527" yMax="509">
      <contour>
        <pt x="454" y="0" on="1"/>
        <pt x="454" y="53" on="1"/>
        <pt x="422" y="23" on="0"/>
        <pt x="339" y="-8" on="0"/>
        <pt x="292" y="-8" on="1"/>
        <pt x="239" y="-8" on="0"/>
        <pt x="147" y="32" on="0"/>
        <pt x="79" y="101" on="0"/>
        <pt x="40" y="197" on="0"/>
        <pt x="40" y="251" on="1"/>
        <pt x="40" y="305" on="0"/>
        <pt x="79" y="400" on="0"/>
        <pt x="147" y="469" on="0"/>
        <pt x="240" y="509" on="0"/>
        <pt x="293" y="509" on="1"/>
        <pt x="336" y="509" on="0"/>
        <pt x="419" y="480" on="0"/>
        <pt x="453" y="452" on="1"/>
        <pt x="453" y="501" on="1"/>
        <pt x="527" y="501" on="1"/>
        <pt x="527" y="0" on="1"/>
      </contour>
      <contour>
        <pt x="113" y="252" on="1"/>
        <pt x="113" y="211" on="0"/>
        <pt x="142" y="139" on="0"/>
        <pt x="192" y="87" on="0"/>
        <pt x="260" y="57" on="0"/>
        <pt x="299" y="57" on="1"/>
        <pt x="346" y="57" on="0"/>
        <pt x="427" y="94" on="0"/>
        <pt x="453" y="127" on="1"/>
        <pt x="453" y="375" on="1"/>
        <pt x="427" y="407" on="0"/>
        <pt x="345" y="444" on="0"/>
        <pt x="299" y="444" on="1"/>
        <pt x="221" y="444" on="0"/>
        <pt x="113" y="334" on="0"/>
      </contour>
    </TTGlyph>
    <TTGlyph name="aacute" xMin="36" yMin="-9" xMax="455" yMax="716">
      <component glyphName="a" x="0" y="0" flags="0x204"/>
      <component glyphName="acute" x="28" y="0" flags="0x4"/>
    </TTGlyph>
    <TTGlyph name="aacute.school" xMin="40" yMin="-8" xMax="527" yMax="716">
      <component glyphName="a.school" x="0" y="0" flags="0x204"/>
      <component glyphName="acute" x="73" y="0" flags="0x4"/>
    </TTGlyph>
    <TTGlyph name="abreve" xMin="36" yMin="-9" xMax="455" yMax="728">
      <component glyphName="a" x="0" y="0" flags="0x204"/>
      <component glyphName="breve" x="-11" y="0" flags="0x4"/>
    </TTGlyph>
    <TTGlyph name="abreve.school" xMin="40" yMin="-8" xMax="527" yMax="728">
      <component glyphName="a.school" x="0" y="0" flags="0x204"/>
      <component glyphName="breve" x="35" y="0" flags="0x4"/>
    </TTGlyph>
    <TTGlyph name="acircumflex" xMin="36" yMin="-9" xMax="455" yMax="717">
      <component glyphName="a" x="0" y="0" flags="0x204"/>
      <component glyphName="circumflex" x="-11" y="0" flags="0x4"/>
    </TTGlyph>
    <TTGlyph name="acircumflex.school" xMin="40" yMin="-8" xMax="527" yMax="717">
      <component glyphName="a.school" x="0" y="0" flags="0x204"/>
      <component glyphName="circumflex" x="35" y="0" flags="0x4"/>
    </TTGlyph>
    <TTGlyph name="acute" xMin="167" yMin="600" xMax="356" yMax="716">
      <contour>
        <pt x="261" y="716" on="1"/>
        <pt x="356" y="716" on="1"/>
        <pt x="232" y="600" on="1"/>
        <pt x="167" y="600" on="1"/>
      </contour>
    </TTGlyph>
    <TTGlyph name="adieresis" xMin="36" yMin="-9" xMax="455" yMax="707">
      <component glyphName="a" x="0" y="0" flags="0x204"/>
      <component glyphName="dieresis" x="-20" y="0" flags="0x4"/>
    </TTGlyph>
    <TTGlyph name="adieresis.school" xMin="40" yMin="-8" xMax="527" yMax="707">
      <component glyphName="a.school" x="0" y="0" flags="0x204"/>
      <component glyphName="dieresis" x="25" y="0" flags="0x4"/>
    </TTGlyph>
    <TTGlyph name="ae" xMin="37" yMin="-9" xMax="867" yMax="511">
      <contour>
        <pt x="221" y="-9" on="1"/>
        <pt x="139" y="-9" on="0"/>
        <pt x="37" y="75" on="0"/>
        <pt x="37" y="142" on="1"/>
        <pt x="37" y="211" on="0"/>
        <pt x="147" y="295" on="0"/>
        <pt x="239" y="295" on="1"/>
        <pt x="278" y="295" on="0"/>
        <pt x="352" y="279" on="0"/>
        <pt x="383" y="263" on="1"/>
        <pt x="383" y="327" on="1"/>
        <pt x="383" y="387" on="0"/>
        <pt x="315" y="448" on="0"/>
        <pt x="250" y="448" on="1"/>
        <pt x="213" y="448" on="0"/>
        <pt x="138" y="427" on="0"/>
        <pt x="93" y="404" on="1"/>
        <pt x="65" y="461" on="1"/>
        <pt x="119" y="487" on="0"/>
        <pt x="211" y="511" on="0"/>
        <pt x="257" y="511" on="1"/>
        <pt x="327" y="511" on="0"/>
        <pt x="421" y="461" on="0"/>
        <pt x="440" y="413" on="1"/>
        <pt x="473" y="458" on="0"/>
        <pt x="572" y="509" on="0"/>
        <pt x="630" y="509" on="1"/>
        <pt x="680" y="509" on="0"/>
        <pt x="767" y="469" on="0"/>
        <pt x="830" y="399" on="0"/>
        <pt x="867" y="305" on="0"/>
        <pt x="867" y="251" on="1"/>
        <pt x="867" y="228" on="1"/>
        <pt x="456" y="228" on="1"/>
        <pt x="464" y="154" on="0"/>
        <pt x="570" y="56" on="0"/>
        <pt x="644" y="56" on="1"/>
        <pt x="683" y="56" on="0"/>
        <pt x="757" y="80" on="0"/>
        <pt x="782" y="102" on="1"/>
        <pt x="828" y="53" on="1"/>
        <pt x="786" y="22" on="0"/>
        <pt x="695" y="-9" on="0"/>
        <pt x="641" y="-9" on="1"/>
        <pt x="578" y="-9" on="0"/>
        <pt x="469" y="46" on="0"/>
        <pt x="435" y="92" on="1"/>
        <pt x="394" y="43" on="0"/>
        <pt x="285" y="-9" on="0"/>
      </contour>
      <contour>
        <pt x="628" y="444" on="1"/>
        <pt x="563" y="444" on="0"/>
        <pt x="468" y="356" on="0"/>
        <pt x="458" y="287" on="1"/>
        <pt x="793" y="287" on="1"/>
        <pt x="783" y="353" on="0"/>
        <pt x="690" y="444" on="0"/>
      </contour>
      <contour>
        <pt x="108" y="144" on="1"/>
        <pt x="108" y="102" on="0"/>
        <pt x="179" y="49" on="0"/>
        <pt x="234" y="49" on="1"/>
        <pt x="285" y="49" on="0"/>
        <pt x="372" y="93" on="0"/>
        <pt x="408" y="137" on="1"/>
        <pt x="401" y="152" on="0"/>
        <pt x="391" y="184" on="0"/>
        <pt x="387" y="201" on="1"/>
        <pt x="356" y="222" on="0"/>
        <pt x="284" y="241" on="0"/>
        <pt x="241" y="241" on="1"/>
        <pt x="181" y="241" on="0"/>
        <pt x="108" y="187" on="0"/>
      </contour>
    </TTGlyph>
    <TTGlyph name="agrave" xMin="36" yMin="-9" xMax="455" yMax="716">
      <component glyphName="a" x="0" y="0" flags="0x204"/>
      <component glyphName="grave" x="-53" y="0" flags="0x4"/>
    </TTGlyph>
    <TTGlyph name="agrave.school" xMin="40" yMin="-8" xMax="527" yMax="716">
      <component glyphName="a.school" x="0" y="0" flags="0x204"/>
      <component glyphName="grave" x="-7" y="0" flags="0x4"/>
    </TTGlyph>
    <TTGlyph name="amacron" xMin="36" yMin="-9" xMax="455" yMax="674">
      <component glyphName="a" x="0" y="0" flags="0x204"/>
      <component glyphName="macron" x="-11" y="0" flags="0x4"/>
    </TTGlyph>
    <TTGlyph name="amacron.school" xMin="40" yMin="-8" xMax="527" yMax="674">
      <component glyphName="a.school" x="0" y="0" flags="0x204"/>
      <component glyphName="macron" x="35" y="0" flags="0x4"/>
    </TTGlyph>
    <TTGlyph name="ampersand" xMin="26" yMin="-13" xMax="646" yMax="710">
      <contour>
        <pt x="646" y="40" on="1"/>
        <pt x="601" y="-13" on="1"/>
        <pt x="573" y="9" on="0"/>
        <pt x="512" y="58" on="0"/>
        <pt x="481" y="84" on="1"/>
        <pt x="438" y="38" on="0"/>
        <pt x="323" y="-10" on="0"/>
        <pt x="257" y="-10" on="1"/>
        <pt x="153" y="-10" on="0"/>
        <pt x="26" y="99" on="0"/>
        <pt x="26" y="188" on="1"/>
        <pt x="26" y="248" on="0"/>
        <pt x="89" y="338" on="0"/>
        <pt x="162" y="378" on="1"/>
        <pt x="181" y="389" on="1"/>
        <pt x="146" y="433" on="0"/>
        <pt x="117" y="506" on="0"/>
        <pt x="117" y="546" on="1"/>
        <pt x="117" y="616" on="0"/>
        <pt x="214" y="710" on="0"/>
        <pt x="286" y="710" on="1"/>
        <pt x="355" y="710" on="0"/>
        <pt x="444" y="629" on="0"/>
        <pt x="444" y="566" on="1"/>
        <pt x="444" y="517" on="0"/>
        <pt x="389" y="439" on="0"/>
        <pt x="332" y="405" on="1"/>
        <pt x="282" y="375" on="1"/>
        <pt x="323" y="329" on="0"/>
        <pt x="421" y="232" on="0"/>
        <pt x="472" y="186" on="1"/>
        <pt x="497" y="226" on="0"/>
        <pt x="530" y="322" on="0"/>
        <pt x="540" y="374" on="1"/>
        <pt x="608" y="363" on="1"/>
        <pt x="595" y="299" on="0"/>
        <pt x="553" y="187" on="0"/>
        <pt x="522" y="141" on="1"/>
        <pt x="554" y="113" on="0"/>
        <pt x="618" y="62" on="0"/>
      </contour>
      <contour>
        <pt x="187" y="547" on="1"/>
        <pt x="187" y="516" on="0"/>
        <pt x="212" y="459" on="0"/>
        <pt x="243" y="421" on="1"/>
        <pt x="300" y="454" on="1"/>
        <pt x="337" y="476" on="0"/>
        <pt x="374" y="530" on="0"/>
        <pt x="374" y="564" on="1"/>
        <pt x="374" y="601" on="0"/>
        <pt x="321" y="650" on="0"/>
        <pt x="284" y="650" on="1"/>
        <pt x="242" y="650" on="0"/>
        <pt x="187" y="593" on="0"/>
      </contour>
      <contour>
        <pt x="96" y="190" on="1"/>
        <pt x="96" y="128" on="0"/>
        <pt x="187" y="53" on="0"/>
        <pt x="261" y="53" on="1"/>
        <pt x="310" y="53" on="0"/>
        <pt x="398" y="91" on="0"/>
        <pt x="432" y="128" on="1"/>
        <pt x="375" y="180" on="0"/>
        <pt x="264" y="290" on="0"/>
        <pt x="220" y="341" on="1"/>
        <pt x="197" y="328" on="1"/>
        <pt x="143" y="297" on="0"/>
        <pt x="96" y="233" on="0"/>
      </contour>
    </TTGlyph>
    <TTGlyph name="aogonek" xMin="36" yMin="-221" xMax="471" yMax="511">
      <contour>
        <pt x="221" y="-9" on="1"/>
        <pt x="139" y="-9" on="0"/>
        <pt x="36" y="75" on="0"/>
        <pt x="36" y="142" on="1"/>
        <pt x="36" y="212" on="0"/>
        <pt x="144" y="295" on="0"/>
        <pt x="236" y="295" on="1"/>
        <pt x="276" y="295" on="0"/>
        <pt x="351" y="277" on="0"/>
        <pt x="383" y="261" on="1"/>
        <pt x="383" y="327" on="1"/>
        <pt x="383" y="387" on="0"/>
        <pt x="315" y="448" on="0"/>
        <pt x="250" y="448" on="1"/>
        <pt x="213" y="448" on="0"/>
        <pt x="138" y="427" on="0"/>
        <pt x="93" y="404" on="1"/>
        <pt x="65" y="461" on="1"/>
        <pt x="119" y="487" on="0"/>
        <pt x="211" y="511" on="0"/>
        <pt x="257" y="511" on="1"/>
        <pt x="352" y="511" on="0"/>
        <pt x="455" y="421" on="0"/>
        <pt x="455" y="337" on="1"/>
        <pt x="455" y="0" on="1"/>
        <pt x="456" y="0" on="1"/>
        <pt x="402" y="-34" on="0"/>
        <pt x="350" y="-94" on="0"/>
        <pt x="350" y="-123" on="1"/>
        <pt x="350" y="-148" on="0"/>
        <pt x="380" y="-175" on="0"/>
        <pt x="408" y="-175" on="1"/>
        <pt x="421" y="-175" on="0"/>
        <pt x="446" y="-168" on="0"/>
        <pt x="456" y="-161" on="1"/>
        <pt x="471" y="-200" on="1"/>
        <pt x="455" y="-210" on="0"/>
        <pt x="418" y="-221" on="0"/>
        <pt x="397" y="-221" on="1"/>
        <pt x="353" y="-221" on="0"/>
        <pt x="299" y="-174" on="0"/>
        <pt x="299" y="-135" on="1"/>
        <pt x="299" y="-100" on="0"/>
        <pt x="346" y="-36" on="0"/>
        <pt x="398" y="0" on="1"/>
        <pt x="383" y="0" on="1"/>
        <pt x="383" y="49" on="1"/>
        <pt x="349" y="20" on="0"/>
        <pt x="268" y="-9" on="0"/>
      </contour>
      <contour>
        <pt x="107" y="144" on="1"/>
        <pt x="107" y="102" on="0"/>
        <pt x="178" y="49" on="0"/>
        <pt x="234" y="49" on="1"/>
        <pt x="279" y="49" on="0"/>
        <pt x="353" y="77" on="0"/>
        <pt x="383" y="107" on="1"/>
        <pt x="383" y="201" on="1"/>
        <pt x="352" y="222" on="0"/>
        <pt x="281" y="241" on="0"/>
        <pt x="238" y="241" on="1"/>
        <pt x="178" y="241" on="0"/>
        <pt x="107" y="188" on="0"/>
      </contour>
    </TTGlyph>
    <TTGlyph name="aogonek.school" xMin="40" yMin="-221" xMax="542" yMax="509">
      <contour>
        <pt x="454" y="0" on="1"/>
        <pt x="454" y="53" on="1"/>
        <pt x="422" y="23" on="0"/>
        <pt x="339" y="-8" on="0"/>
        <pt x="292" y="-8" on="1"/>
        <pt x="239" y="-8" on="0"/>
        <pt x="147" y="32" on="0"/>
        <pt x="79" y="101" on="0"/>
        <pt x="40" y="197" on="0"/>
        <pt x="40" y="251" on="1"/>
        <pt x="40" y="305" on="0"/>
        <pt x="79" y="400" on="0"/>
        <pt x="147" y="469" on="0"/>
        <pt x="240" y="509" on="0"/>
        <pt x="293" y="509" on="1"/>
        <pt x="336" y="509" on="0"/>
        <pt x="419" y="480" on="0"/>
        <pt x="453" y="452" on="1"/>
        <pt x="453" y="501" on="1"/>
        <pt x="527" y="501" on="1"/>
        <pt x="527" y="0" on="1"/>
        <pt x="473" y="-34" on="0"/>
        <pt x="421" y="-94" on="0"/>
        <pt x="421" y="-123" on="1"/>
        <pt x="421" y="-148" on="0"/>
        <pt x="451" y="-175" on="0"/>
        <pt x="479" y="-175" on="1"/>
        <pt x="492" y="-175" on="0"/>
        <pt x="517" y="-168" on="0"/>
        <pt x="527" y="-161" on="1"/>
        <pt x="542" y="-200" on="1"/>
        <pt x="526" y="-210" on="0"/>
        <pt x="489" y="-221" on="0"/>
        <pt x="468" y="-221" on="1"/>
        <pt x="424" y="-221" on="0"/>
        <pt x="370" y="-174" on="0"/>
        <pt x="370" y="-135" on="1"/>
        <pt x="370" y="-100" on="0"/>
        <pt x="417" y="-36" on="0"/>
        <pt x="469" y="0" on="1"/>
      </contour>
      <contour>
        <pt x="113" y="252" on="1"/>
        <pt x="113" y="211" on="0"/>
        <pt x="142" y="139" on="0"/>
        <pt x="192" y="87" on="0"/>
        <pt x="260" y="57" on="0"/>
        <pt x="299" y="57" on="1"/>
        <pt x="346" y="57" on="0"/>
        <pt x="427" y="94" on="0"/>
        <pt x="453" y="127" on="1"/>
        <pt x="453" y="375" on="1"/>
        <pt x="427" y="407" on="0"/>
        <pt x="345" y="444" on="0"/>
        <pt x="299" y="444" on="1"/>
        <pt x="221" y="444" on="0"/>
        <pt x="113" y="334" on="0"/>
      </contour>
    </TTGlyph>
    <TTGlyph name="aring" xMin="36" yMin="-9" xMax="455" yMax="804">
      <component glyphName="a" x="0" y="0" flags="0x204"/>
      <component glyphName="ring" x="-11" y="0" flags="0x4"/>
    </TTGlyph>
    <TTGlyph name="aring.school" xMin="40" yMin="-8" xMax="527" yMax="804">
      <component glyphName="a.school" x="0" y="0" flags="0x204"/>
      <component glyphName="ring" x="35" y="0" flags="0x4"/>
    </TTGlyph>
    <TTGlyph name="asciicircum" xMin="49" yMin="350" xMax="488" yMax="700">
      <contour>
        <pt x="49" y="350" on="1"/>
        <pt x="236" y="700" on="1"/>
        <pt x="301" y="700" on="1"/>
        <pt x="488" y="350" on="1"/>
        <pt x="419" y="350" on="1"/>
        <pt x="268" y="635" on="1"/>
        <pt x="117" y="350" on="1"/>
      </contour>
    </TTGlyph>
    <TTGlyph name="asciitilde" xMin="40" yMin="301" xMax="538" yMax="454">
      <contour>
        <pt x="260" y="425" on="1"/>
        <pt x="340" y="385" on="1"/>
        <pt x="364" y="373" on="0"/>
        <pt x="394" y="363" on="0"/>
        <pt x="407" y="363" on="1"/>
        <pt x="438" y="363" on="0"/>
        <pt x="475" y="408" on="0"/>
        <pt x="482" y="454" on="1"/>
        <pt x="538" y="447" on="1"/>
        <pt x="530" y="378" on="0"/>
        <pt x="462" y="301" on="0"/>
        <pt x="411" y="301" on="1"/>
        <pt x="392" y="301" on="0"/>
        <pt x="346" y="314" on="0"/>
        <pt x="318" y="329" on="1"/>
        <pt x="238" y="369" on="1"/>
        <pt x="212" y="382" on="0"/>
        <pt x="184" y="392" on="0"/>
        <pt x="171" y="392" on="1"/>
        <pt x="140" y="392" on="0"/>
        <pt x="104" y="347" on="0"/>
        <pt x="97" y="301" on="1"/>
        <pt x="40" y="308" on="1"/>
        <pt x="49" y="377" on="0"/>
        <pt x="116" y="454" on="0"/>
        <pt x="167" y="454" on="1"/>
        <pt x="187" y="454" on="0"/>
        <pt x="232" y="441" on="0"/>
      </contour>
    </TTGlyph>
    <TTGlyph name="asterisk" xMin="50" yMin="341" xMax="397" yMax="700">
      <contour>
        <pt x="366" y="406" on="1"/>
        <pt x="248" y="479" on="1"/>
        <pt x="250" y="341" on="1"/>
        <pt x="196" y="341" on="1"/>
        <pt x="198" y="479" on="1"/>
        <pt x="79" y="406" on="1"/>
        <pt x="50" y="451" on="1"/>
        <pt x="174" y="524" on="1"/>
        <pt x="54" y="596" on="1"/>
        <pt x="83" y="640" on="1"/>
        <pt x="197" y="569" on="1"/>
        <pt x="196" y="700" on="1"/>
        <pt x="250" y="700" on="1"/>
        <pt x="249" y="570" on="1"/>
        <pt x="362" y="640" on="1"/>
        <pt x="392" y="596" on="1"/>
        <pt x="272" y="524" on="1"/>
        <pt x="397" y="451" on="1"/>
      </contour>
    </TTGlyph>
    <TTGlyph name="at" xMin="44" yMin="-144" xMax="733" yMax="576">
      <contour>
        <pt x="357" y="51" on="1"/>
        <pt x="296" y="51" on="0"/>
        <pt x="214" y="138" on="0"/>
        <pt x="214" y="202" on="1"/>
        <pt x="214" y="239" on="0"/>
        <pt x="240" y="303" on="0"/>
        <pt x="286" y="351" on="0"/>
        <pt x="348" y="379" on="0"/>
        <pt x="383" y="379" on="1"/>
        <pt x="412" y="379" on="0"/>
        <pt x="465" y="359" on="0"/>
        <pt x="484" y="340" on="1"/>
        <pt x="489" y="366" on="1"/>
        <pt x="545" y="366" on="1"/>
        <pt x="506" y="174" on="1"/>
        <pt x="499" y="138" on="0"/>
        <pt x="528" y="99" on="0"/>
        <pt x="562" y="99" on="1"/>
        <pt x="614" y="99" on="0"/>
        <pt x="685" y="196" on="0"/>
        <pt x="685" y="267" on="1"/>
        <pt x="685" y="324" on="0"/>
        <pt x="641" y="421" on="0"/>
        <pt x="564" y="492" on="0"/>
        <pt x="459" y="532" on="0"/>
        <pt x="398" y="532" on="1"/>
        <pt x="334" y="532" on="0"/>
        <pt x="222" y="482" on="0"/>
        <pt x="140" y="395" on="0"/>
        <pt x="93" y="277" on="0"/>
        <pt x="93" y="209" on="1"/>
        <pt x="93" y="143" on="0"/>
        <pt x="140" y="29" on="0"/>
        <pt x="223" y="-53" on="0"/>
        <pt x="338" y="-99" on="0"/>
        <pt x="406" y="-99" on="1"/>
        <pt x="452" y="-99" on="0"/>
        <pt x="539" y="-78" on="0"/>
        <pt x="576" y="-58" on="1"/>
        <pt x="594" y="-99" on="1"/>
        <pt x="551" y="-121" on="0"/>
        <pt x="454" y="-144" on="0"/>
        <pt x="403" y="-144" on="1"/>
        <pt x="327" y="-144" on="0"/>
        <pt x="194" y="-91" on="0"/>
        <pt x="99" y="3" on="0"/>
        <pt x="44" y="132" on="0"/>
        <pt x="44" y="207" on="1"/>
        <pt x="44" y="285" on="0"/>
        <pt x="98" y="421" on="0"/>
        <pt x="193" y="520" on="0"/>
        <pt x="324" y="576" on="0"/>
        <pt x="400" y="576" on="1"/>
        <pt x="470" y="576" on="0"/>
        <pt x="592" y="529" on="0"/>
        <pt x="682" y="447" on="0"/>
        <pt x="733" y="334" on="0"/>
        <pt x="733" y="269" on="1"/>
        <pt x="733" y="223" on="0"/>
        <pt x="706" y="144" on="0"/>
        <pt x="659" y="87" on="0"/>
        <pt x="594" y="55" on="0"/>
        <pt x="556" y="55" on="1"/>
        <pt x="524" y="55" on="0"/>
        <pt x="476" y="77" on="0"/>
        <pt x="463" y="96" on="1"/>
        <pt x="438" y="74" on="0"/>
        <pt x="384" y="51" on="0"/>
      </contour>
      <contour>
        <pt x="269" y="206" on="1"/>
        <pt x="269" y="158" on="0"/>
        <pt x="325" y="98" on="0"/>
        <pt x="369" y="98" on="1"/>
        <pt x="391" y="98" on="0"/>
        <pt x="433" y="116" on="0"/>
        <pt x="450" y="133" on="1"/>
        <pt x="449" y="143" on="0"/>
        <pt x="449" y="166" on="0"/>
        <pt x="452" y="179" on="1"/>
        <pt x="473" y="285" on="1"/>
        <pt x="459" y="307" on="0"/>
        <pt x="410" y="331" on="0"/>
        <pt x="382" y="331" on="1"/>
        <pt x="336" y="331" on="0"/>
        <pt x="269" y="257" on="0"/>
      </contour>
    </TTGlyph>
    <TTGlyph name="at.cap" xMin="44" yMin="-9" xMax="733" yMax="711">
      <component glyphName="at" x="0" y="135" flags="0x4"/>
    </TTGlyph>
    <TTGlyph name="atilde" xMin="36" yMin="-9" xMax="455" yMax="706">
      <component glyphName="a" x="0" y="0" flags="0x204"/>
      <component glyphName="tilde" x="-7" y="0" flags="0x4"/>
    </TTGlyph>
    <TTGlyph name="atilde.school" xMin="40" yMin="-8" xMax="527" yMax="706">
      <component glyphName="a.school" x="0" y="0" flags="0x204"/>
      <component glyphName="tilde" x="39" y="0" flags="0x4"/>
    </TTGlyph>
    <TTGlyph name="b" xMin="63" yMin="-8" xMax="550" yMax="717">
      <contour>
        <pt x="550" y="251" on="1"/>
        <pt x="550" y="197" on="0"/>
        <pt x="511" y="101" on="0"/>
        <pt x="443" y="32" on="0"/>
        <pt x="350" y="-8" on="0"/>
        <pt x="297" y="-8" on="1"/>
        <pt x="253" y="-8" on="0"/>
        <pt x="170" y="22" on="0"/>
        <pt x="136" y="50" on="1"/>
        <pt x="136" y="0" on="1"/>
        <pt x="63" y="0" on="1"/>
        <pt x="63" y="700" on="1"/>
        <pt x="137" y="717" on="1"/>
        <pt x="137" y="448" on="1"/>
        <pt x="168" y="478" on="0"/>
        <pt x="251" y="509" on="0"/>
        <pt x="298" y="509" on="1"/>
        <pt x="351" y="509" on="0"/>
        <pt x="443" y="469" on="0"/>
        <pt x="511" y="400" on="0"/>
        <pt x="550" y="305" on="0"/>
      </contour>
      <contour>
        <pt x="291" y="444" on="1"/>
        <pt x="244" y="444" on="0"/>
        <pt x="163" y="407" on="0"/>
        <pt x="137" y="374" on="1"/>
        <pt x="137" y="126" on="1"/>
        <pt x="163" y="94" on="0"/>
        <pt x="245" y="57" on="0"/>
        <pt x="291" y="57" on="1"/>
        <pt x="370" y="57" on="0"/>
        <pt x="477" y="168" on="0"/>
        <pt x="477" y="250" on="1"/>
        <pt x="477" y="291" on="0"/>
        <pt x="448" y="362" on="0"/>
        <pt x="398" y="414" on="0"/>
        <pt x="330" y="444" on="0"/>
      </contour>
    </TTGlyph>
    <TTGlyph name="backslash" xMin="30" yMin="-205" xMax="529" yMax="700">
      <contour>
        <pt x="529" y="-205" on="1"/>
        <pt x="451" y="-205" on="1"/>
        <pt x="30" y="700" on="1"/>
        <pt x="107" y="700" on="1"/>
      </contour>
    </TTGlyph>
    <TTGlyph name="bar" xMin="103" yMin="-206" xMax="171" yMax="700">
      <contour>
        <pt x="103" y="-206" on="1"/>
        <pt x="103" y="700" on="1"/>
        <pt x="171" y="700" on="1"/>
        <pt x="171" y="-206" on="1"/>
      </contour>
    </TTGlyph>
    <TTGlyph name="braceleft" xMin="28" yMin="-212" xMax="342" yMax="710">
      <contour>
        <pt x="250" y="89" on="1"/>
        <pt x="202" y="-31" on="1"/>
        <pt x="180" y="-82" on="0"/>
        <pt x="216" y="-152" on="0"/>
        <pt x="265" y="-152" on="1"/>
        <pt x="281" y="-152" on="0"/>
        <pt x="310" y="-147" on="0"/>
        <pt x="327" y="-141" on="1"/>
        <pt x="342" y="-197" on="1"/>
        <pt x="320" y="-205" on="0"/>
        <pt x="282" y="-212" on="0"/>
        <pt x="262" y="-212" on="1"/>
        <pt x="218" y="-212" on="0"/>
        <pt x="155" y="-181" on="0"/>
        <pt x="121" y="-128" on="0"/>
        <pt x="120" y="-55" on="0"/>
        <pt x="138" y="-14" on="1"/>
        <pt x="180" y="85" on="1"/>
        <pt x="204" y="140" on="0"/>
        <pt x="161" y="218" on="0"/>
        <pt x="107" y="218" on="1"/>
        <pt x="28" y="218" on="1"/>
        <pt x="28" y="279" on="1"/>
        <pt x="107" y="279" on="1"/>
        <pt x="161" y="279" on="0"/>
        <pt x="204" y="358" on="0"/>
        <pt x="180" y="413" on="1"/>
        <pt x="138" y="511" on="1"/>
        <pt x="120" y="552" on="0"/>
        <pt x="122" y="625" on="0"/>
        <pt x="155" y="679" on="0"/>
        <pt x="218" y="710" on="0"/>
        <pt x="262" y="710" on="1"/>
        <pt x="282" y="710" on="0"/>
        <pt x="320" y="703" on="0"/>
        <pt x="342" y="695" on="1"/>
        <pt x="327" y="639" on="1"/>
        <pt x="310" y="645" on="0"/>
        <pt x="281" y="650" on="0"/>
        <pt x="265" y="650" on="1"/>
        <pt x="216" y="650" on="0"/>
        <pt x="180" y="580" on="0"/>
        <pt x="202" y="529" on="1"/>
        <pt x="250" y="409" on="1"/>
        <pt x="272" y="355" on="0"/>
        <pt x="225" y="264" on="0"/>
        <pt x="171" y="249" on="1"/>
        <pt x="226" y="233" on="0"/>
        <pt x="272" y="142" on="0"/>
      </contour>
    </TTGlyph>
    <TTGlyph name="braceright" xMin="40" yMin="-212" xMax="354" yMax="710">
      <contour>
        <pt x="132" y="409" on="1"/>
        <pt x="180" y="529" on="1"/>
        <pt x="202" y="580" on="0"/>
        <pt x="166" y="650" on="0"/>
        <pt x="117" y="650" on="1"/>
        <pt x="101" y="650" on="0"/>
        <pt x="72" y="645" on="0"/>
        <pt x="55" y="639" on="1"/>
        <pt x="40" y="695" on="1"/>
        <pt x="62" y="703" on="0"/>
        <pt x="100" y="710" on="0"/>
        <pt x="120" y="710" on="1"/>
        <pt x="164" y="710" on="0"/>
        <pt x="227" y="679" on="0"/>
        <pt x="261" y="626" on="0"/>
        <pt x="262" y="553" on="0"/>
        <pt x="244" y="512" on="1"/>
        <pt x="202" y="413" on="1"/>
        <pt x="178" y="358" on="0"/>
        <pt x="221" y="280" on="0"/>
        <pt x="275" y="280" on="1"/>
        <pt x="354" y="280" on="1"/>
        <pt x="354" y="219" on="1"/>
        <pt x="275" y="219" on="1"/>
        <pt x="221" y="219" on="0"/>
        <pt x="178" y="140" on="0"/>
        <pt x="202" y="85" on="1"/>
        <pt x="244" y="-13" on="1"/>
        <pt x="262" y="-54" on="0"/>
        <pt x="260" y="-127" on="0"/>
        <pt x="227" y="-181" on="0"/>
        <pt x="164" y="-212" on="0"/>
        <pt x="120" y="-212" on="1"/>
        <pt x="100" y="-212" on="0"/>
        <pt x="62" y="-205" on="0"/>
        <pt x="40" y="-197" on="1"/>
        <pt x="55" y="-141" on="1"/>
        <pt x="72" y="-147" on="0"/>
        <pt x="101" y="-152" on="0"/>
        <pt x="117" y="-152" on="1"/>
        <pt x="166" y="-152" on="0"/>
        <pt x="202" y="-82" on="0"/>
        <pt x="180" y="-31" on="1"/>
        <pt x="132" y="89" on="1"/>
        <pt x="110" y="143" on="0"/>
        <pt x="157" y="234" on="0"/>
        <pt x="211" y="249" on="1"/>
        <pt x="156" y="265" on="0"/>
        <pt x="110" y="356" on="0"/>
      </contour>
    </TTGlyph>
    <TTGlyph name="bracketleft" xMin="57" yMin="-207" xMax="309" yMax="700">
      <contour>
        <pt x="309" y="-207" on="1"/>
        <pt x="57" y="-207" on="1"/>
        <pt x="57" y="700" on="1"/>
        <pt x="309" y="700" on="1"/>
        <pt x="309" y="640" on="1"/>
        <pt x="128" y="640" on="1"/>
        <pt x="128" y="-147" on="1"/>
        <pt x="309" y="-147" on="1"/>
      </contour>
    </TTGlyph>
    <TTGlyph name="bracketright" xMin="38" yMin="-207" xMax="290" yMax="700">
      <contour>
        <pt x="38" y="700" on="1"/>
        <pt x="290" y="700" on="1"/>
        <pt x="290" y="-207" on="1"/>
        <pt x="38" y="-207" on="1"/>
        <pt x="38" y="-147" on="1"/>
        <pt x="219" y="-147" on="1"/>
        <pt x="219" y="640" on="1"/>
        <pt x="38" y="640" on="1"/>
      </contour>
    </TTGlyph>
    <TTGlyph name="breve" xMin="106" yMin="592" xMax="414" yMax="728">
      <contour>
        <pt x="260" y="641" on="1"/>
        <pt x="298" y="641" on="0"/>
        <pt x="351" y="685" on="0"/>
        <pt x="362" y="728" on="1"/>
        <pt x="414" y="715" on="1"/>
        <pt x="401" y="658" on="0"/>
        <pt x="319" y="592" on="0"/>
        <pt x="260" y="592" on="1"/>
        <pt x="200" y="592" on="0"/>
        <pt x="119" y="658" on="0"/>
        <pt x="106" y="715" on="1"/>
        <pt x="158" y="728" on="1"/>
        <pt x="168" y="685" on="0"/>
        <pt x="220" y="641" on="0"/>
      </contour>
    </TTGlyph>
    <TTGlyph name="bullet" xMin="63" yMin="252" xMax="265" yMax="454">
      <contour>
        <pt x="163" y="252" on="1"/>
        <pt x="122" y="252" on="0"/>
        <pt x="63" y="311" on="0"/>
        <pt x="63" y="352" on="1"/>
        <pt x="63" y="394" on="0"/>
        <pt x="122" y="454" on="0"/>
        <pt x="163" y="454" on="1"/>
        <pt x="205" y="454" on="0"/>
        <pt x="265" y="394" on="0"/>
        <pt x="265" y="352" on="1"/>
        <pt x="265" y="311" on="0"/>
        <pt x="206" y="252" on="0"/>
      </contour>
    </TTGlyph>
    <TTGlyph name="c" xMin="40" yMin="-9" xMax="491" yMax="511">
      <contour>
        <pt x="297" y="58" on="1"/>
        <pt x="337" y="58" on="0"/>
        <pt x="411" y="90" on="0"/>
        <pt x="443" y="121" on="1"/>
        <pt x="489" y="71" on="1"/>
        <pt x="449" y="33" on="0"/>
        <pt x="349" y="-9" on="0"/>
        <pt x="295" y="-9" on="1"/>
        <pt x="242" y="-9" on="0"/>
        <pt x="148" y="31" on="0"/>
        <pt x="80" y="101" on="0"/>
        <pt x="40" y="197" on="0"/>
        <pt x="40" y="251" on="1"/>
        <pt x="40" y="305" on="0"/>
        <pt x="80" y="400" on="0"/>
        <pt x="148" y="470" on="0"/>
        <pt x="242" y="511" on="0"/>
        <pt x="295" y="511" on="1"/>
        <pt x="349" y="511" on="0"/>
        <pt x="452" y="469" on="0"/>
        <pt x="491" y="432" on="1"/>
        <pt x="444" y="378" on="1"/>
        <pt x="414" y="409" on="0"/>
        <pt x="336" y="443" on="0"/>
        <pt x="296" y="443" on="1"/>
        <pt x="258" y="443" on="0"/>
        <pt x="190" y="413" on="0"/>
        <pt x="141" y="361" on="0"/>
        <pt x="113" y="291" on="0"/>
        <pt x="113" y="251" on="1"/>
        <pt x="113" y="210" on="0"/>
        <pt x="142" y="139" on="0"/>
        <pt x="191" y="88" on="0"/>
        <pt x="259" y="58" on="0"/>
      </contour>
    </TTGlyph>
    <TTGlyph name="cacute" xMin="40" yMin="-9" xMax="491" yMax="716">
      <component glyphName="c" x="0" y="0" flags="0x204"/>
      <component glyphName="acute" x="73" y="0" flags="0x4"/>
    </TTGlyph>
    <TTGlyph name="caron" xMin="116" yMin="598" xMax="404" yMax="718">
      <contour>
        <pt x="178" y="718" on="1"/>
        <pt x="260" y="639" on="1"/>
        <pt x="342" y="718" on="1"/>
        <pt x="404" y="718" on="1"/>
        <pt x="300" y="598" on="1"/>
        <pt x="220" y="598" on="1"/>
        <pt x="116" y="718" on="1"/>
      </contour>
    </TTGlyph>
    <TTGlyph name="caronSlovak" xMin="198" yMin="508" xMax="281" yMax="714">
      <contour>
        <pt x="203" y="714" on="1"/>
        <pt x="281" y="714" on="1"/>
        <pt x="253" y="508" on="1"/>
        <pt x="198" y="508" on="1"/>
      </contour>
    </TTGlyph>
    <TTGlyph name="ccaron" xMin="40" yMin="-9" xMax="491" yMax="718">
      <component glyphName="c" x="0" y="0" flags="0x204"/>
      <component glyphName="caron" x="34" y="0" flags="0x4"/>
    </TTGlyph>
    <TTGlyph name="ccedilla" xMin="40" yMin="-228" xMax="491" yMax="511">
      <contour>
        <pt x="297" y="58" on="1"/>
        <pt x="337" y="58" on="0"/>
        <pt x="411" y="90" on="0"/>
        <pt x="443" y="121" on="1"/>
        <pt x="489" y="71" on="1"/>
        <pt x="453" y="37" on="0"/>
        <pt x="364" y="-4" on="0"/>
        <pt x="315" y="-8" on="1"/>
        <pt x="302" y="-55" on="1"/>
        <pt x="345" y="-57" on="0"/>
        <pt x="397" y="-101" on="0"/>
        <pt x="397" y="-137" on="1"/>
        <pt x="397" y="-177" on="0"/>
        <pt x="332" y="-228" on="0"/>
        <pt x="282" y="-228" on="1"/>
        <pt x="249" y="-228" on="0"/>
        <pt x="191" y="-207" on="0"/>
        <pt x="169" y="-187" on="1"/>
        <pt x="199" y="-155" on="1"/>
        <pt x="218" y="-171" on="0"/>
        <pt x="260" y="-187" on="0"/>
        <pt x="282" y="-187" on="1"/>
        <pt x="312" y="-187" on="0"/>
        <pt x="346" y="-160" on="0"/>
        <pt x="346" y="-138" on="1"/>
        <pt x="346" y="-116" on="0"/>
        <pt x="309" y="-91" on="0"/>
        <pt x="277" y="-91" on="1"/>
        <pt x="248" y="-91" on="1"/>
        <pt x="272" y="-8" on="1"/>
        <pt x="223" y="-4" on="0"/>
        <pt x="137" y="40" on="0"/>
        <pt x="76" y="109" on="0"/>
        <pt x="40" y="200" on="0"/>
        <pt x="40" y="251" on="1"/>
        <pt x="40" y="305" on="0"/>
        <pt x="80" y="400" on="0"/>
        <pt x="148" y="470" on="0"/>
        <pt x="242" y="511" on="0"/>
        <pt x="295" y="511" on="1"/>
        <pt x="349" y="511" on="0"/>
        <pt x="452" y="469" on="0"/>
        <pt x="491" y="432" on="1"/>
        <pt x="444" y="378" on="1"/>
        <pt x="414" y="409" on="0"/>
        <pt x="336" y="443" on="0"/>
        <pt x="296" y="443" on="1"/>
        <pt x="258" y="443" on="0"/>
        <pt x="190" y="413" on="0"/>
        <pt x="141" y="361" on="0"/>
        <pt x="113" y="291" on="0"/>
        <pt x="113" y="251" on="1"/>
        <pt x="113" y="210" on="0"/>
        <pt x="142" y="139" on="0"/>
        <pt x="191" y="88" on="0"/>
        <pt x="259" y="58" on="0"/>
      </contour>
    </TTGlyph>
    <TTGlyph name="ccircumflex" xMin="40" yMin="-9" xMax="491" yMax="717">
      <component glyphName="c" x="0" y="0" flags="0x204"/>
      <component glyphName="circumflex" x="34" y="0" flags="0x4"/>
    </TTGlyph>
    <TTGlyph name="cdotaccent" xMin="40" yMin="-9" xMax="491" yMax="700">
      <component glyphName="c" x="0" y="0" flags="0x204"/>
      <component glyphName="dotaccent" x="160" y="0" flags="0x4"/>
    </TTGlyph>
    <TTGlyph name="cedilla" xMin="165" yMin="-228" xMax="393" yMax="0">
      <contour>
        <pt x="393" y="-137" on="1"/>
        <pt x="393" y="-177" on="0"/>
        <pt x="328" y="-228" on="0"/>
        <pt x="278" y="-228" on="1"/>
        <pt x="245" y="-228" on="0"/>
        <pt x="187" y="-207" on="0"/>
        <pt x="165" y="-187" on="1"/>
        <pt x="195" y="-155" on="1"/>
        <pt x="214" y="-171" on="0"/>
        <pt x="256" y="-187" on="0"/>
        <pt x="278" y="-187" on="1"/>
        <pt x="308" y="-187" on="0"/>
        <pt x="342" y="-160" on="0"/>
        <pt x="342" y="-138" on="1"/>
        <pt x="342" y="-116" on="0"/>
        <pt x="305" y="-91" on="0"/>
        <pt x="273" y="-91" on="1"/>
        <pt x="244" y="-91" on="1"/>
        <pt x="270" y="0" on="1"/>
        <pt x="313" y="0" on="1"/>
        <pt x="298" y="-55" on="1"/>
        <pt x="341" y="-57" on="0"/>
        <pt x="393" y="-101" on="0"/>
      </contour>
    </TTGlyph>
    <TTGlyph name="cent" xMin="40" yMin="-110" xMax="491" yMax="617">
      <contour>
        <pt x="263" y="-110" on="1"/>
        <pt x="263" y="-7" on="1"/>
        <pt x="216" y="-1" on="0"/>
        <pt x="134" y="43" on="0"/>
        <pt x="74" y="111" on="0"/>
        <pt x="40" y="201" on="0"/>
        <pt x="40" y="251" on="1"/>
        <pt x="40" y="301" on="0"/>
        <pt x="74" y="390" on="0"/>
        <pt x="134" y="458" on="0"/>
        <pt x="216" y="503" on="0"/>
        <pt x="263" y="509" on="1"/>
        <pt x="263" y="617" on="1"/>
        <pt x="314" y="617" on="1"/>
        <pt x="314" y="510" on="1"/>
        <pt x="363" y="507" on="0"/>
        <pt x="456" y="466" on="0"/>
        <pt x="491" y="432" on="1"/>
        <pt x="444" y="378" on="1"/>
        <pt x="417" y="406" on="0"/>
        <pt x="350" y="439" on="0"/>
        <pt x="314" y="442" on="1"/>
        <pt x="314" y="59" on="1"/>
        <pt x="349" y="62" on="0"/>
        <pt x="415" y="93" on="0"/>
        <pt x="443" y="121" on="1"/>
        <pt x="489" y="71" on="1"/>
        <pt x="453" y="37" on="0"/>
        <pt x="363" y="-5" on="0"/>
        <pt x="314" y="-8" on="1"/>
        <pt x="314" y="-110" on="1"/>
      </contour>
      <contour>
        <pt x="113" y="251" on="1"/>
        <pt x="113" y="179" on="0"/>
        <pt x="199" y="73" on="0"/>
        <pt x="263" y="61" on="1"/>
        <pt x="263" y="440" on="1"/>
        <pt x="198" y="428" on="0"/>
        <pt x="113" y="322" on="0"/>
      </contour>
    </TTGlyph>
    <TTGlyph name="circumflex" xMin="116" yMin="596" xMax="404" yMax="717">
      <contour>
        <pt x="343" y="596" on="1"/>
        <pt x="259" y="676" on="1"/>
        <pt x="176" y="596" on="1"/>
        <pt x="116" y="596" on="1"/>
        <pt x="220" y="717" on="1"/>
        <pt x="300" y="717" on="1"/>
        <pt x="404" y="596" on="1"/>
      </contour>
    </TTGlyph>
    <TTGlyph name="colon" xMin="48" yMin="-6" xMax="150" yMax="512">
      <component glyphName="period" x="0" y="0" flags="0x204"/>
      <component glyphName="period" x="0" y="416" flags="0x4"/>
    </TTGlyph>
    <TTGlyph name="comma" xMin="18" yMin="-137" xMax="156" yMax="74">
      <contour>
        <pt x="76" y="74" on="1"/>
        <pt x="156" y="74" on="1"/>
        <pt x="76" y="-137" on="1"/>
        <pt x="18" y="-137" on="1"/>
      </contour>
    </TTGlyph>
    <TTGlyph name="commaaccent" xMin="31" yMin="-264" xMax="146" yMax="-85">
      <contour>
        <pt x="72" y="-85" on="1"/>
        <pt x="146" y="-85" on="1"/>
        <pt x="86" y="-264" on="1"/>
        <pt x="31" y="-264" on="1"/>
      </contour>
    </TTGlyph>
    <TTGlyph name="copyright" xMin="44" yMin="-11" xMax="760" yMax="711">
      <contour>
        <pt x="44" y="350" on="1"/>
        <pt x="44" y="426" on="0"/>
        <pt x="99" y="558" on="0"/>
        <pt x="195" y="655" on="0"/>
        <pt x="327" y="711" on="0"/>
        <pt x="402" y="711" on="1"/>
        <pt x="477" y="711" on="0"/>
        <pt x="609" y="655" on="0"/>
        <pt x="705" y="559" on="0"/>
        <pt x="760" y="426" on="0"/>
        <pt x="760" y="350" on="1"/>
        <pt x="760" y="274" on="0"/>
        <pt x="705" y="141" on="0"/>
        <pt x="609" y="45" on="0"/>
        <pt x="477" y="-11" on="0"/>
        <pt x="402" y="-11" on="1"/>
        <pt x="327" y="-11" on="0"/>
        <pt x="195" y="45" on="0"/>
        <pt x="99" y="142" on="0"/>
        <pt x="44" y="274" on="0"/>
      </contour>
      <contour>
        <pt x="714" y="350" on="1"/>
        <pt x="714" y="416" on="0"/>
        <pt x="665" y="533" on="0"/>
        <pt x="581" y="618" on="0"/>
        <pt x="467" y="668" on="0"/>
        <pt x="402" y="668" on="1"/>
        <pt x="337" y="668" on="0"/>
        <pt x="224" y="618" on="0"/>
        <pt x="140" y="533" on="0"/>
        <pt x="92" y="416" on="0"/>
        <pt x="92" y="350" on="1"/>
        <pt x="92" y="284" on="0"/>
        <pt x="140" y="167" on="0"/>
        <pt x="224" y="82" on="0"/>
        <pt x="337" y="32" on="0"/>
        <pt x="402" y="32" on="1"/>
        <pt x="467" y="32" on="0"/>
        <pt x="581" y="82" on="0"/>
        <pt x="665" y="167" on="0"/>
        <pt x="714" y="284" on="0"/>
      </contour>
      <contour>
        <pt x="232" y="350" on="1"/>
        <pt x="232" y="388" on="0"/>
        <pt x="260" y="456" on="0"/>
        <pt x="309" y="506" on="0"/>
        <pt x="375" y="535" on="0"/>
        <pt x="413" y="535" on="1"/>
        <pt x="453" y="535" on="0"/>
        <pt x="526" y="505" on="0"/>
        <pt x="553" y="477" on="1"/>
        <pt x="517" y="437" on="1"/>
        <pt x="496" y="459" on="0"/>
        <pt x="442" y="483" on="0"/>
        <pt x="414" y="483" on="1"/>
        <pt x="361" y="483" on="0"/>
        <pt x="289" y="406" on="0"/>
        <pt x="289" y="350" on="1"/>
        <pt x="289" y="294" on="0"/>
        <pt x="362" y="218" on="0"/>
        <pt x="414" y="218" on="1"/>
        <pt x="442" y="218" on="0"/>
        <pt x="494" y="240" on="0"/>
        <pt x="516" y="262" on="1"/>
        <pt x="552" y="223" on="1"/>
        <pt x="524" y="195" on="0"/>
        <pt x="453" y="166" on="0"/>
        <pt x="413" y="166" on="1"/>
        <pt x="375" y="166" on="0"/>
        <pt x="309" y="195" on="0"/>
        <pt x="260" y="244" on="0"/>
        <pt x="232" y="312" on="0"/>
      </contour>
    </TTGlyph>
    <TTGlyph name="cordinal" xMin="36" yMin="315" xMax="379" yMax="706">
      <contour>
        <pt x="231" y="371" on="1"/>
        <pt x="261" y="371" on="0"/>
        <pt x="316" y="394" on="0"/>
        <pt x="339" y="418" on="1"/>
        <pt x="377" y="376" on="1"/>
        <pt x="347" y="347" on="0"/>
        <pt x="271" y="315" on="0"/>
        <pt x="229" y="315" on="1"/>
        <pt x="189" y="315" on="0"/>
        <pt x="118" y="345" on="0"/>
        <pt x="66" y="398" on="0"/>
        <pt x="36" y="469" on="0"/>
        <pt x="36" y="510" on="1"/>
        <pt x="36" y="551" on="0"/>
        <pt x="66" y="623" on="0"/>
        <pt x="118" y="676" on="0"/>
        <pt x="189" y="706" on="0"/>
        <pt x="229" y="706" on="1"/>
        <pt x="271" y="706" on="0"/>
        <pt x="350" y="674" on="0"/>
        <pt x="379" y="646" on="1"/>
        <pt x="340" y="602" on="1"/>
        <pt x="318" y="625" on="0"/>
        <pt x="260" y="650" on="0"/>
        <pt x="231" y="650" on="1"/>
        <pt x="175" y="650" on="0"/>
        <pt x="98" y="569" on="0"/>
        <pt x="98" y="510" on="1"/>
        <pt x="98" y="452" on="0"/>
        <pt x="175" y="371" on="0"/>
      </contour>
    </TTGlyph>
    <TTGlyph name="d" xMin="40" yMin="-8" xMax="527" yMax="717">
      <contour>
        <pt x="454" y="0" on="1"/>
        <pt x="454" y="53" on="1"/>
        <pt x="422" y="23" on="0"/>
        <pt x="339" y="-8" on="0"/>
        <pt x="292" y="-8" on="1"/>
        <pt x="239" y="-8" on="0"/>
        <pt x="147" y="32" on="0"/>
        <pt x="79" y="101" on="0"/>
        <pt x="40" y="197" on="0"/>
        <pt x="40" y="251" on="1"/>
        <pt x="40" y="305" on="0"/>
        <pt x="79" y="400" on="0"/>
        <pt x="147" y="469" on="0"/>
        <pt x="240" y="509" on="0"/>
        <pt x="293" y="509" on="1"/>
        <pt x="336" y="509" on="0"/>
        <pt x="419" y="480" on="0"/>
        <pt x="453" y="452" on="1"/>
        <pt x="453" y="700" on="1"/>
        <pt x="527" y="717" on="1"/>
        <pt x="527" y="0" on="1"/>
      </contour>
      <contour>
        <pt x="113" y="252" on="1"/>
        <pt x="113" y="211" on="0"/>
        <pt x="142" y="139" on="0"/>
        <pt x="192" y="87" on="0"/>
        <pt x="260" y="57" on="0"/>
        <pt x="299" y="57" on="1"/>
        <pt x="346" y="57" on="0"/>
        <pt x="427" y="94" on="0"/>
        <pt x="453" y="127" on="1"/>
        <pt x="453" y="375" on="1"/>
        <pt x="427" y="407" on="0"/>
        <pt x="345" y="444" on="0"/>
        <pt x="299" y="444" on="1"/>
        <pt x="221" y="444" on="0"/>
        <pt x="113" y="334" on="0"/>
      </contour>
    </TTGlyph>
    <TTGlyph name="dagger" xMin="54" yMin="0" xMax="372" yMax="700">
      <contour>
        <pt x="180" y="0" on="1"/>
        <pt x="180" y="442" on="1"/>
        <pt x="54" y="442" on="1"/>
        <pt x="54" y="502" on="1"/>
        <pt x="180" y="502" on="1"/>
        <pt x="180" y="700" on="1"/>
        <pt x="246" y="700" on="1"/>
        <pt x="246" y="502" on="1"/>
        <pt x="372" y="502" on="1"/>
        <pt x="372" y="442" on="1"/>
        <pt x="246" y="442" on="1"/>
        <pt x="246" y="0" on="1"/>
      </contour>
    </TTGlyph>
    <TTGlyph name="daggerdbl" xMin="54" yMin="0" xMax="372" yMax="700">
      <contour>
        <pt x="180" y="0" on="1"/>
        <pt x="180" y="198" on="1"/>
        <pt x="54" y="198" on="1"/>
        <pt x="54" y="258" on="1"/>
        <pt x="180" y="258" on="1"/>
        <pt x="180" y="442" on="1"/>
        <pt x="54" y="442" on="1"/>
        <pt x="54" y="502" on="1"/>
        <pt x="180" y="502" on="1"/>
        <pt x="180" y="700" on="1"/>
        <pt x="246" y="700" on="1"/>
        <pt x="246" y="502" on="1"/>
        <pt x="372" y="502" on="1"/>
        <pt x="372" y="442" on="1"/>
        <pt x="246" y="442" on="1"/>
        <pt x="246" y="258" on="1"/>
        <pt x="372" y="258" on="1"/>
        <pt x="372" y="198" on="1"/>
        <pt x="246" y="198" on="1"/>
        <pt x="246" y="0" on="1"/>
      </contour>
    </TTGlyph>
    <TTGlyph name="dcaron" xMin="40" yMin="-8" xMax="678" yMax="717">
      <component glyphName="d" x="0" y="0" flags="0x4"/>
      <component glyphName="caronSlovak" x="397" y="0" flags="0x4"/>
    </TTGlyph>
    <TTGlyph name="dcroat" xMin="40" yMin="-8" xMax="589" yMax="717">
      <contour>
        <pt x="454" y="0" on="1"/>
        <pt x="454" y="53" on="1"/>
        <pt x="422" y="23" on="0"/>
        <pt x="339" y="-8" on="0"/>
        <pt x="292" y="-8" on="1"/>
        <pt x="239" y="-8" on="0"/>
        <pt x="147" y="32" on="0"/>
        <pt x="79" y="101" on="0"/>
        <pt x="40" y="197" on="0"/>
        <pt x="40" y="251" on="1"/>
        <pt x="40" y="305" on="0"/>
        <pt x="79" y="400" on="0"/>
        <pt x="147" y="469" on="0"/>
        <pt x="240" y="509" on="0"/>
        <pt x="293" y="509" on="1"/>
        <pt x="336" y="509" on="0"/>
        <pt x="419" y="480" on="0"/>
        <pt x="453" y="452" on="1"/>
        <pt x="453" y="586" on="1"/>
        <pt x="289" y="586" on="1"/>
        <pt x="289" y="644" on="1"/>
        <pt x="453" y="644" on="1"/>
        <pt x="453" y="700" on="1"/>
        <pt x="527" y="717" on="1"/>
        <pt x="527" y="644" on="1"/>
        <pt x="589" y="644" on="1"/>
        <pt x="589" y="586" on="1"/>
        <pt x="527" y="586" on="1"/>
        <pt x="527" y="0" on="1"/>
      </contour>
      <contour>
        <pt x="113" y="252" on="1"/>
        <pt x="113" y="211" on="0"/>
        <pt x="142" y="139" on="0"/>
        <pt x="192" y="87" on="0"/>
        <pt x="260" y="57" on="0"/>
        <pt x="299" y="57" on="1"/>
        <pt x="346" y="57" on="0"/>
        <pt x="427" y="94" on="0"/>
        <pt x="453" y="127" on="1"/>
        <pt x="453" y="375" on="1"/>
        <pt x="427" y="407" on="0"/>
        <pt x="345" y="444" on="0"/>
        <pt x="299" y="444" on="1"/>
        <pt x="221" y="444" on="0"/>
        <pt x="113" y="334" on="0"/>
      </contour>
    </TTGlyph>
    <TTGlyph name="degree" xMin="51" yMin="424" xMax="337" yMax="710">
      <contour>
        <pt x="195" y="424" on="1"/>
        <pt x="135" y="424" on="0"/>
        <pt x="51" y="509" on="0"/>
        <pt x="51" y="569" on="1"/>
        <pt x="51" y="627" on="0"/>
        <pt x="135" y="710" on="0"/>
        <pt x="195" y="710" on="1"/>
        <pt x="252" y="710" on="0"/>
        <pt x="337" y="627" on="0"/>
        <pt x="337" y="569" on="1"/>
        <pt x="337" y="509" on="0"/>
        <pt x="253" y="424" on="0"/>
      </contour>
      <contour>
        <pt x="195" y="473" on="1"/>
        <pt x="232" y="473" on="0"/>
        <pt x="286" y="530" on="0"/>
        <pt x="286" y="570" on="1"/>
        <pt x="286" y="607" on="0"/>
        <pt x="232" y="661" on="0"/>
        <pt x="195" y="661" on="1"/>
        <pt x="157" y="661" on="0"/>
        <pt x="102" y="607" on="0"/>
        <pt x="102" y="570" on="1"/>
        <pt x="102" y="530" on="0"/>
        <pt x="156" y="473" on="0"/>
      </contour>
    </TTGlyph>
    <TTGlyph name="dieresis" xMin="132" yMin="610" xMax="406" yMax="707">
      <contour>
        <pt x="182" y="610" on="1"/>
        <pt x="161" y="610" on="0"/>
        <pt x="132" y="638" on="0"/>
        <pt x="132" y="659" on="1"/>
        <pt x="132" y="679" on="0"/>
        <pt x="161" y="707" on="0"/>
        <pt x="182" y="707" on="1"/>
        <pt x="203" y="707" on="0"/>
        <pt x="231" y="679" on="0"/>
        <pt x="231" y="659" on="1"/>
        <pt x="231" y="638" on="0"/>
        <pt x="202" y="610" on="0"/>
      </contour>
      <contour>
        <pt x="357" y="610" on="1"/>
        <pt x="336" y="610" on="0"/>
        <pt x="308" y="638" on="0"/>
        <pt x="308" y="659" on="1"/>
        <pt x="308" y="679" on="0"/>
        <pt x="336" y="707" on="0"/>
        <pt x="357" y="707" on="1"/>
        <pt x="379" y="707" on="0"/>
        <pt x="406" y="679" on="0"/>
        <pt x="406" y="659" on="1"/>
        <pt x="406" y="638" on="0"/>
        <pt x="378" y="610" on="0"/>
      </contour>
    </TTGlyph>
    <TTGlyph name="divide" xMin="55" yMin="119" xMax="470" yMax="596">
      <contour>
        <pt x="263" y="494" on="1"/>
        <pt x="242" y="494" on="0"/>
        <pt x="212" y="524" on="0"/>
        <pt x="212" y="545" on="1"/>
        <pt x="212" y="566" on="0"/>
        <pt x="242" y="596" on="0"/>
        <pt x="263" y="596" on="1"/>
        <pt x="284" y="596" on="0"/>
        <pt x="314" y="566" on="0"/>
        <pt x="314" y="545" on="1"/>
        <pt x="314" y="524" on="0"/>
        <pt x="284" y="494" on="0"/>
      </contour>
      <contour>
        <pt x="55" y="327" on="1"/>
        <pt x="55" y="389" on="1"/>
        <pt x="470" y="389" on="1"/>
        <pt x="470" y="327" on="1"/>
      </contour>
      <contour>
        <pt x="263" y="119" on="1"/>
        <pt x="242" y="119" on="0"/>
        <pt x="212" y="149" on="0"/>
        <pt x="212" y="170" on="1"/>
        <pt x="212" y="191" on="0"/>
        <pt x="242" y="221" on="0"/>
        <pt x="263" y="221" on="1"/>
        <pt x="284" y="221" on="0"/>
        <pt x="314" y="191" on="0"/>
        <pt x="314" y="170" on="1"/>
        <pt x="314" y="149" on="0"/>
        <pt x="284" y="119" on="0"/>
      </contour>
    </TTGlyph>
    <TTGlyph name="dollar" xMin="22" yMin="-75" xMax="537" yMax="759">
      <contour>
        <pt x="256" y="-75" on="1"/>
        <pt x="256" y="21" on="1"/>
        <pt x="187" y="27" on="0"/>
        <pt x="67" y="84" on="0"/>
        <pt x="22" y="133" on="1"/>
        <pt x="68" y="182" on="1"/>
        <pt x="107" y="140" on="0"/>
        <pt x="203" y="88" on="0"/>
        <pt x="256" y="81" on="1"/>
        <pt x="256" y="327" on="1"/>
        <pt x="221" y="334" on="1"/>
        <pt x="121" y="356" on="0"/>
        <pt x="37" y="433" on="0"/>
        <pt x="37" y="504" on="1"/>
        <pt x="37" y="583" on="0"/>
        <pt x="160" y="682" on="0"/>
        <pt x="256" y="682" on="1"/>
        <pt x="256" y="759" on="1"/>
        <pt x="307" y="759" on="1"/>
        <pt x="307" y="680" on="1"/>
        <pt x="364" y="673" on="0"/>
        <pt x="476" y="630" on="0"/>
        <pt x="524" y="595" on="1"/>
        <pt x="486" y="539" on="1"/>
        <pt x="440" y="571" on="0"/>
        <pt x="350" y="609" on="0"/>
        <pt x="307" y="616" on="1"/>
        <pt x="307" y="385" on="1"/>
        <pt x="341" y="378" on="1"/>
        <pt x="448" y="354" on="0"/>
        <pt x="537" y="276" on="0"/>
        <pt x="537" y="205" on="1"/>
        <pt x="537" y="126" on="0"/>
        <pt x="408" y="23" on="0"/>
        <pt x="307" y="19" on="1"/>
        <pt x="307" y="-75" on="1"/>
      </contour>
      <contour>
        <pt x="240" y="398" on="1"/>
        <pt x="256" y="395" on="1"/>
        <pt x="256" y="620" on="1"/>
        <pt x="189" y="619" on="0"/>
        <pt x="106" y="559" on="0"/>
        <pt x="106" y="510" on="1"/>
        <pt x="106" y="463" on="0"/>
        <pt x="164" y="414" on="0"/>
      </contour>
      <contour>
        <pt x="322" y="314" on="1"/>
        <pt x="307" y="317" on="1"/>
        <pt x="307" y="79" on="1"/>
        <pt x="376" y="83" on="0"/>
        <pt x="466" y="151" on="0"/>
        <pt x="466" y="202" on="1"/>
        <pt x="466" y="248" on="0"/>
        <pt x="405" y="297" on="0"/>
      </contour>
    </TTGlyph>
    <TTGlyph name="dotaccent" xMin="85" yMin="602" xMax="184" yMax="700">
      <contour>
        <pt x="134" y="602" on="1"/>
        <pt x="114" y="602" on="0"/>
        <pt x="85" y="631" on="0"/>
        <pt x="85" y="651" on="1"/>
        <pt x="85" y="671" on="0"/>
        <pt x="114" y="700" on="0"/>
        <pt x="134" y="700" on="1"/>
        <pt x="155" y="700" on="0"/>
        <pt x="184" y="671" on="0"/>
        <pt x="184" y="651" on="1"/>
        <pt x="184" y="631" on="0"/>
        <pt x="155" y="602" on="0"/>
      </contour>
    </TTGlyph>
    <TTGlyph name="dotlessi" xMin="63" yMin="0" xMax="137" yMax="501">
      <contour>
        <pt x="137" y="501" on="1"/>
        <pt x="137" y="0" on="1"/>
        <pt x="63" y="0" on="1"/>
        <pt x="63" y="501" on="1"/>
      </contour>
    </TTGlyph>
    <TTGlyph name="dotlessj" xMin="-38" yMin="-208" xMax="137" yMax="501">
      <contour>
        <pt x="-38" y="-202" on="1"/>
        <pt x="-38" y="-140" on="1"/>
        <pt x="-28" y="-142" on="0"/>
        <pt x="-12" y="-144" on="0"/>
        <pt x="0" y="-144" on="1"/>
        <pt x="34" y="-144" on="0"/>
        <pt x="63" y="-112" on="0"/>
        <pt x="63" y="-76" on="1"/>
        <pt x="63" y="501" on="1"/>
        <pt x="137" y="501" on="1"/>
        <pt x="137" y="-83" on="1"/>
        <pt x="137" y="-142" on="0"/>
        <pt x="71" y="-208" on="0"/>
        <pt x="9" y="-208" on="1"/>
        <pt x="-4" y="-208" on="0"/>
        <pt x="-28" y="-204" on="0"/>
      </contour>
    </TTGlyph>
    <TTGlyph name="e" xMin="40" yMin="-9" xMax="524" yMax="509">
      <contour>
        <pt x="485" y="53" on="1"/>
        <pt x="443" y="22" on="0"/>
        <pt x="352" y="-9" on="0"/>
        <pt x="298" y="-9" on="1"/>
        <pt x="244" y="-9" on="0"/>
        <pt x="149" y="31" on="0"/>
        <pt x="80" y="101" on="0"/>
        <pt x="40" y="196" on="0"/>
        <pt x="40" y="251" on="1"/>
        <pt x="40" y="305" on="0"/>
        <pt x="79" y="399" on="0"/>
        <pt x="145" y="469" on="0"/>
        <pt x="236" y="509" on="0"/>
        <pt x="287" y="509" on="1"/>
        <pt x="337" y="509" on="0"/>
        <pt x="424" y="469" on="0"/>
        <pt x="487" y="399" on="0"/>
        <pt x="524" y="305" on="0"/>
        <pt x="524" y="251" on="1"/>
        <pt x="524" y="228" on="1"/>
        <pt x="113" y="228" on="1"/>
        <pt x="121" y="154" on="0"/>
        <pt x="227" y="56" on="0"/>
        <pt x="301" y="56" on="1"/>
        <pt x="340" y="56" on="0"/>
        <pt x="414" y="80" on="0"/>
        <pt x="439" y="102" on="1"/>
      </contour>
      <contour>
        <pt x="285" y="444" on="1"/>
        <pt x="220" y="444" on="0"/>
        <pt x="125" y="356" on="0"/>
        <pt x="115" y="287" on="1"/>
        <pt x="450" y="287" on="1"/>
        <pt x="440" y="353" on="0"/>
        <pt x="347" y="444" on="0"/>
      </contour>
    </TTGlyph>
    <TTGlyph name="eacute" xMin="40" yMin="-9" xMax="524" yMax="716">
      <component glyphName="e" x="0" y="0" flags="0x204"/>
      <component glyphName="acute" x="65" y="0" flags="0x4"/>
    </TTGlyph>
    <TTGlyph name="ebreve" xMin="40" yMin="-9" xMax="524" yMax="728">
      <component glyphName="e" x="0" y="0" flags="0x204"/>
      <component glyphName="breve" x="26" y="0" flags="0x4"/>
    </TTGlyph>
    <TTGlyph name="ecaron" xMin="40" yMin="-9" xMax="524" yMax="718">
      <component glyphName="e" x="0" y="0" flags="0x204"/>
      <component glyphName="caron" x="26" y="0" flags="0x4"/>
    </TTGlyph>
    <TTGlyph name="ecircumflex" xMin="40" yMin="-9" xMax="524" yMax="717">
      <component glyphName="e" x="0" y="0" flags="0x204"/>
      <component glyphName="circumflex" x="26" y="0" flags="0x4"/>
    </TTGlyph>
    <TTGlyph name="edieresis" xMin="40" yMin="-9" xMax="524" yMax="707">
      <component glyphName="e" x="0" y="0" flags="0x204"/>
      <component glyphName="dieresis" x="17" y="0" flags="0x4"/>
    </TTGlyph>
    <TTGlyph name="edotaccent" xMin="40" yMin="-9" xMax="524" yMax="700">
      <component glyphName="e" x="0" y="0" flags="0x204"/>
      <component glyphName="dotaccent" x="152" y="0" flags="0x4"/>
    </TTGlyph>
    <TTGlyph name="egrave" xMin="40" yMin="-9" xMax="524" yMax="716">
      <component glyphName="e" x="0" y="0" flags="0x204"/>
      <component glyphName="grave" x="-16" y="0" flags="0x4"/>
    </TTGlyph>
    <TTGlyph name="eight" xMin="46" yMin="-10" xMax="569" yMax="711">
      <contour>
        <pt x="307" y="-10" on="1"/>
        <pt x="251" y="-10" on="0"/>
        <pt x="154" y="20" on="0"/>
        <pt x="85" y="73" on="0"/>
        <pt x="46" y="146" on="0"/>
        <pt x="46" y="189" on="1"/>
        <pt x="46" y="250" on="0"/>
        <pt x="130" y="347" on="0"/>
        <pt x="197" y="368" on="1"/>
        <pt x="142" y="389" on="0"/>
        <pt x="74" y="475" on="0"/>
        <pt x="74" y="529" on="1"/>
        <pt x="74" y="568" on="0"/>
        <pt x="110" y="635" on="0"/>
        <pt x="172" y="683" on="0"/>
        <pt x="257" y="711" on="0"/>
        <pt x="307" y="711" on="1"/>
        <pt x="357" y="711" on="0"/>
        <pt x="443" y="683" on="0"/>
        <pt x="505" y="635" on="0"/>
        <pt x="541" y="568" on="0"/>
        <pt x="541" y="529" on="1"/>
        <pt x="541" y="475" on="0"/>
        <pt x="473" y="389" on="0"/>
        <pt x="418" y="368" on="1"/>
        <pt x="485" y="347" on="0"/>
        <pt x="569" y="250" on="0"/>
        <pt x="569" y="189" on="1"/>
        <pt x="569" y="146" on="0"/>
        <pt x="530" y="73" on="0"/>
        <pt x="460" y="20" on="0"/>
        <pt x="364" y="-10" on="0"/>
      </contour>
      <contour>
        <pt x="307" y="400" on="1"/>
        <pt x="375" y="400" on="0"/>
        <pt x="469" y="473" on="0"/>
        <pt x="469" y="526" on="1"/>
        <pt x="469" y="579" on="0"/>
        <pt x="376" y="653" on="0"/>
        <pt x="307" y="653" on="1"/>
        <pt x="239" y="653" on="0"/>
        <pt x="146" y="579" on="0"/>
        <pt x="146" y="526" on="1"/>
        <pt x="146" y="473" on="0"/>
        <pt x="239" y="400" on="0"/>
      </contour>
      <contour>
        <pt x="307" y="50" on="1"/>
        <pt x="387" y="50" on="0"/>
        <pt x="496" y="133" on="0"/>
        <pt x="496" y="194" on="1"/>
        <pt x="496" y="254" on="0"/>
        <pt x="387" y="336" on="0"/>
        <pt x="307" y="336" on="1"/>
        <pt x="227" y="336" on="0"/>
        <pt x="118" y="254" on="0"/>
        <pt x="118" y="194" on="1"/>
        <pt x="118" y="133" on="0"/>
        <pt x="227" y="50" on="0"/>
      </contour>
    </TTGlyph>
    <TTGlyph name="ellipsis" xMin="48" yMin="-6" xMax="539" yMax="96">
      <component glyphName="period" x="0" y="0" flags="0x4"/>
      <component glyphName="period" x="195" y="0" flags="0x4"/>
      <component glyphName="period" x="389" y="0" flags="0x4"/>
    </TTGlyph>
    <TTGlyph name="emacron" xMin="40" yMin="-9" xMax="524" yMax="674">
      <component glyphName="e" x="0" y="0" flags="0x204"/>
      <component glyphName="macron" x="26" y="0" flags="0x4"/>
    </TTGlyph>
    <TTGlyph name="emdash" xMin="49" yMin="248" xMax="648" yMax="314">
      <contour>
        <pt x="49" y="314" on="1"/>
        <pt x="648" y="314" on="1"/>
        <pt x="648" y="248" on="1"/>
        <pt x="49" y="248" on="1"/>
      </contour>
    </TTGlyph>
    <TTGlyph name="emdash.cap" xMin="49" yMin="313" xMax="648" yMax="379">
      <component glyphName="emdash" x="0" y="65" flags="0x4"/>
    </TTGlyph>
    <TTGlyph name="endash" xMin="49" yMin="248" xMax="498" yMax="314">
      <contour>
        <pt x="49" y="314" on="1"/>
        <pt x="498" y="314" on="1"/>
        <pt x="498" y="248" on="1"/>
        <pt x="49" y="248" on="1"/>
      </contour>
    </TTGlyph>
    <TTGlyph name="endash.cap" xMin="49" yMin="313" xMax="498" yMax="379">
      <component glyphName="endash" x="0" y="65" flags="0x4"/>
    </TTGlyph>
    <TTGlyph name="eng" xMin="63" yMin="-208" xMax="488" yMax="511">
      <contour>
        <pt x="63" y="0" on="1"/>
        <pt x="63" y="501" on="1"/>
        <pt x="137" y="501" on="1"/>
        <pt x="137" y="442" on="1"/>
        <pt x="166" y="476" on="0"/>
        <pt x="246" y="511" on="0"/>
        <pt x="295" y="511" on="1"/>
        <pt x="380" y="511" on="0"/>
        <pt x="488" y="403" on="0"/>
        <pt x="488" y="317" on="1"/>
        <pt x="488" y="-83" on="1"/>
        <pt x="488" y="-142" on="0"/>
        <pt x="422" y="-208" on="0"/>
        <pt x="360" y="-208" on="1"/>
        <pt x="348" y="-208" on="0"/>
        <pt x="323" y="-204" on="0"/>
        <pt x="313" y="-202" on="1"/>
        <pt x="313" y="-140" on="1"/>
        <pt x="323" y="-142" on="0"/>
        <pt x="340" y="-144" on="0"/>
        <pt x="352" y="-144" on="1"/>
        <pt x="385" y="-144" on="0"/>
        <pt x="415" y="-112" on="0"/>
        <pt x="415" y="-76" on="1"/>
        <pt x="415" y="302" on="1"/>
        <pt x="415" y="368" on="0"/>
        <pt x="339" y="446" on="0"/>
        <pt x="275" y="446" on="1"/>
        <pt x="230" y="446" on="0"/>
        <pt x="159" y="406" on="0"/>
        <pt x="137" y="369" on="1"/>
        <pt x="137" y="0" on="1"/>
      </contour>
    </TTGlyph>
    <TTGlyph name="eogonek" xMin="40" yMin="-221" xMax="524" yMax="509">
      <contour>
        <pt x="390" y="-200" on="1"/>
        <pt x="374" y="-210" on="0"/>
        <pt x="337" y="-221" on="0"/>
        <pt x="316" y="-221" on="1"/>
        <pt x="272" y="-221" on="0"/>
        <pt x="218" y="-174" on="0"/>
        <pt x="218" y="-135" on="1"/>
        <pt x="218" y="-102" on="0"/>
        <pt x="259" y="-42" on="0"/>
        <pt x="305" y="-9" on="1"/>
        <pt x="298" y="-9" on="1"/>
        <pt x="244" y="-9" on="0"/>
        <pt x="149" y="31" on="0"/>
        <pt x="80" y="101" on="0"/>
        <pt x="40" y="196" on="0"/>
        <pt x="40" y="251" on="1"/>
        <pt x="40" y="305" on="0"/>
        <pt x="79" y="399" on="0"/>
        <pt x="145" y="469" on="0"/>
        <pt x="236" y="509" on="0"/>
        <pt x="287" y="509" on="1"/>
        <pt x="337" y="509" on="0"/>
        <pt x="424" y="469" on="0"/>
        <pt x="487" y="399" on="0"/>
        <pt x="524" y="305" on="0"/>
        <pt x="524" y="251" on="1"/>
        <pt x="524" y="228" on="1"/>
        <pt x="113" y="228" on="1"/>
        <pt x="121" y="154" on="0"/>
        <pt x="227" y="56" on="0"/>
        <pt x="301" y="56" on="1"/>
        <pt x="340" y="56" on="0"/>
        <pt x="414" y="80" on="0"/>
        <pt x="439" y="102" on="1"/>
        <pt x="485" y="53" on="1"/>
        <pt x="459" y="34" on="0"/>
        <pt x="404" y="7" on="0"/>
        <pt x="374" y="0" on="1"/>
        <pt x="320" y="-34" on="0"/>
        <pt x="269" y="-94" on="0"/>
        <pt x="269" y="-123" on="1"/>
        <pt x="269" y="-148" on="0"/>
        <pt x="299" y="-175" on="0"/>
        <pt x="327" y="-175" on="1"/>
        <pt x="340" y="-175" on="0"/>
        <pt x="365" y="-168" on="0"/>
        <pt x="375" y="-161" on="1"/>
      </contour>
      <contour>
        <pt x="285" y="444" on="1"/>
        <pt x="220" y="444" on="0"/>
        <pt x="125" y="356" on="0"/>
        <pt x="115" y="287" on="1"/>
        <pt x="450" y="287" on="1"/>
        <pt x="440" y="353" on="0"/>
        <pt x="347" y="444" on="0"/>
      </contour>
    </TTGlyph>
    <TTGlyph name="equal" xMin="55" yMin="244" xMax="470" yMax="469">
      <component glyphName="minus" x="0" y="-83" flags="0x4"/>
      <component glyphName="minus" x="0" y="80" flags="0x4"/>
    </TTGlyph>
    <TTGlyph name="eth" xMin="41" yMin="-10" xMax="548" yMax="733">
      <contour>
        <pt x="263" y="528" on="1"/>
        <pt x="232" y="574" on="1"/>
        <pt x="319" y="628" on="1"/>
        <pt x="296" y="644" on="0"/>
        <pt x="242" y="669" on="0"/>
        <pt x="212" y="677" on="1"/>
        <pt x="242" y="731" on="1"/>
        <pt x="280" y="719" on="0"/>
        <pt x="349" y="686" on="0"/>
        <pt x="378" y="664" on="1"/>
        <pt x="488" y="733" on="1"/>
        <pt x="519" y="687" on="1"/>
        <pt x="422" y="627" on="1"/>
        <pt x="483" y="567" on="0"/>
        <pt x="548" y="397" on="0"/>
        <pt x="548" y="292" on="1"/>
        <pt x="548" y="224" on="0"/>
        <pt x="511" y="112" on="0"/>
        <pt x="444" y="33" on="0"/>
        <pt x="348" y="-10" on="0"/>
        <pt x="290" y="-10" on="1"/>
        <pt x="238" y="-10" on="0"/>
        <pt x="146" y="30" on="0"/>
        <pt x="80" y="98" on="0"/>
        <pt x="41" y="192" on="0"/>
        <pt x="41" y="246" on="1"/>
        <pt x="41" y="297" on="0"/>
        <pt x="79" y="387" on="0"/>
        <pt x="144" y="452" on="0"/>
        <pt x="234" y="490" on="0"/>
        <pt x="285" y="490" on="1"/>
        <pt x="346" y="490" on="0"/>
        <pt x="444" y="433" on="0"/>
        <pt x="472" y="384" on="1"/>
        <pt x="462" y="446" on="0"/>
        <pt x="407" y="552" on="0"/>
        <pt x="365" y="592" on="1"/>
      </contour>
      <contour>
        <pt x="292" y="57" on="1"/>
        <pt x="367" y="57" on="0"/>
        <pt x="470" y="164" on="0"/>
        <pt x="470" y="242" on="1"/>
        <pt x="470" y="320" on="0"/>
        <pt x="367" y="426" on="0"/>
        <pt x="292" y="426" on="1"/>
        <pt x="217" y="426" on="0"/>
        <pt x="113" y="320" on="0"/>
        <pt x="113" y="242" on="1"/>
        <pt x="113" y="164" on="0"/>
        <pt x="217" y="57" on="0"/>
      </contour>
    </TTGlyph>
    <TTGlyph name="exclam" xMin="48" yMin="-6" xMax="150" yMax="717">
      <contour>
        <pt x="69" y="194" on="1"/>
        <pt x="60" y="717" on="1"/>
        <pt x="137" y="717" on="1"/>
        <pt x="128" y="194" on="1"/>
      </contour>
      <contour>
        <pt x="99" y="-6" on="1"/>
        <pt x="78" y="-6" on="0"/>
        <pt x="48" y="24" on="0"/>
        <pt x="48" y="45" on="1"/>
        <pt x="48" y="66" on="0"/>
        <pt x="78" y="96" on="0"/>
        <pt x="99" y="96" on="1"/>
        <pt x="120" y="96" on="0"/>
        <pt x="150" y="66" on="0"/>
        <pt x="150" y="45" on="1"/>
        <pt x="150" y="24" on="0"/>
        <pt x="120" y="-6" on="0"/>
      </contour>
    </TTGlyph>
    <TTGlyph name="exclamdown" xMin="48" yMin="-13" xMax="150" yMax="710">
      <contour>
        <pt x="129" y="510" on="1"/>
        <pt x="138" y="-13" on="1"/>
        <pt x="61" y="-13" on="1"/>
        <pt x="70" y="510" on="1"/>
      </contour>
      <contour>
        <pt x="99" y="710" on="1"/>
        <pt x="120" y="710" on="0"/>
        <pt x="150" y="680" on="0"/>
        <pt x="150" y="659" on="1"/>
        <pt x="150" y="638" on="0"/>
        <pt x="120" y="608" on="0"/>
        <pt x="99" y="608" on="1"/>
        <pt x="78" y="608" on="0"/>
        <pt x="48" y="638" on="0"/>
        <pt x="48" y="659" on="1"/>
        <pt x="48" y="680" on="0"/>
        <pt x="78" y="710" on="0"/>
      </contour>
    </TTGlyph>
    <TTGlyph name="f" xMin="17" yMin="0" xMax="357" yMax="748">
      <contour>
        <pt x="17" y="501" on="1"/>
        <pt x="135" y="501" on="1"/>
        <pt x="135" y="596" on="1"/>
        <pt x="135" y="669" on="0"/>
        <pt x="215" y="748" on="0"/>
        <pt x="290" y="748" on="1"/>
        <pt x="310" y="748" on="0"/>
        <pt x="342" y="744" on="0"/>
        <pt x="357" y="739" on="1"/>
        <pt x="357" y="673" on="1"/>
        <pt x="340" y="678" on="0"/>
        <pt x="312" y="683" on="0"/>
        <pt x="295" y="683" on="1"/>
        <pt x="251" y="683" on="0"/>
        <pt x="208" y="640" on="0"/>
        <pt x="208" y="594" on="1"/>
        <pt x="208" y="501" on="1"/>
        <pt x="357" y="501" on="1"/>
        <pt x="357" y="438" on="1"/>
        <pt x="208" y="438" on="1"/>
        <pt x="208" y="0" on="1"/>
        <pt x="135" y="0" on="1"/>
        <pt x="135" y="438" on="1"/>
        <pt x="17" y="438" on="1"/>
      </contour>
    </TTGlyph>
    <TTGlyph name="fi" xMin="17" yMin="0" xMax="524" yMax="748">
      <component glyphName="f" x="0" y="0" flags="0x4"/>
      <component glyphName="i" x="374" y="0" flags="0x4"/>
    </TTGlyph>
    <TTGlyph name="five" xMin="25" yMin="-10" xMax="529" yMax="700">
      <contour>
        <pt x="65" y="355" on="1"/>
        <pt x="81" y="700" on="1"/>
        <pt x="492" y="700" on="1"/>
        <pt x="492" y="636" on="1"/>
        <pt x="143" y="636" on="1"/>
        <pt x="133" y="407" on="1"/>
        <pt x="167" y="420" on="0"/>
        <pt x="240" y="433" on="0"/>
        <pt x="278" y="433" on="1"/>
        <pt x="389" y="433" on="0"/>
        <pt x="529" y="313" on="0"/>
        <pt x="529" y="219" on="1"/>
        <pt x="529" y="117" on="0"/>
        <pt x="388" y="-10" on="0"/>
        <pt x="274" y="-10" on="1"/>
        <pt x="202" y="-10" on="0"/>
        <pt x="76" y="38" on="0"/>
        <pt x="25" y="85" on="1"/>
        <pt x="71" y="134" on="1"/>
        <pt x="119" y="92" on="0"/>
        <pt x="215" y="53" on="0"/>
        <pt x="275" y="53" on="1"/>
        <pt x="355" y="53" on="0"/>
        <pt x="455" y="144" on="0"/>
        <pt x="455" y="216" on="1"/>
        <pt x="455" y="285" on="0"/>
        <pt x="349" y="372" on="0"/>
        <pt x="265" y="372" on="1"/>
        <pt x="226" y="372" on="0"/>
        <pt x="147" y="356" on="0"/>
        <pt x="108" y="340" on="1"/>
      </contour>
    </TTGlyph>
    <TTGlyph name="fl" xMin="17" yMin="0" xMax="511" yMax="748">
      <component glyphName="f" x="0" y="0" flags="0x4"/>
      <component glyphName="l" x="374" y="0" flags="0x4"/>
    </TTGlyph>
    <TTGlyph name="four" xMin="27" yMin="0" xMax="582" yMax="700">
      <contour>
        <pt x="498" y="700" on="1"/>
        <pt x="498" y="250" on="1"/>
        <pt x="582" y="250" on="1"/>
        <pt x="582" y="187" on="1"/>
        <pt x="498" y="187" on="1"/>
        <pt x="498" y="0" on="1"/>
        <pt x="425" y="0" on="1"/>
        <pt x="425" y="187" on="1"/>
        <pt x="27" y="187" on="1"/>
        <pt x="27" y="245" on="1"/>
        <pt x="420" y="700" on="1"/>
      </contour>
      <contour>
        <pt x="117" y="250" on="1"/>
        <pt x="425" y="250" on="1"/>
        <pt x="425" y="607" on="1"/>
      </contour>
    </TTGlyph>
    <TTGlyph name="fraction" xMin="30" yMin="0" xMax="485" yMax="700">
      <contour>
        <pt x="91" y="0" on="1"/>
        <pt x="30" y="0" on="1"/>
        <pt x="423" y="700" on="1"/>
        <pt x="485" y="700" on="1"/>
      </contour>
    </TTGlyph>
    <TTGlyph name="g" xMin="40" yMin="-211" xMax="523" yMax="510">
      <contour>
        <pt x="290" y="-4" on="1"/>
        <pt x="238" y="-4" on="0"/>
        <pt x="147" y="36" on="0"/>
        <pt x="79" y="105" on="0"/>
        <pt x="40" y="199" on="0"/>
        <pt x="40" y="253" on="1"/>
        <pt x="40" y="307" on="0"/>
        <pt x="79" y="401" on="0"/>
        <pt x="147" y="470" on="0"/>
        <pt x="239" y="510" on="0"/>
        <pt x="292" y="510" on="1"/>
        <pt x="335" y="510" on="0"/>
        <pt x="416" y="479" on="0"/>
        <pt x="450" y="451" on="1"/>
        <pt x="450" y="501" on="1"/>
        <pt x="523" y="501" on="1"/>
        <pt x="523" y="-12" on="1"/>
        <pt x="523" y="-108" on="0"/>
        <pt x="411" y="-211" on="0"/>
        <pt x="307" y="-211" on="1"/>
        <pt x="255" y="-211" on="0"/>
        <pt x="153" y="-184" on="0"/>
        <pt x="111" y="-159" on="1"/>
        <pt x="143" y="-101" on="1"/>
        <pt x="188" y="-125" on="0"/>
        <pt x="265" y="-147" on="0"/>
        <pt x="304" y="-147" on="1"/>
        <pt x="375" y="-147" on="0"/>
        <pt x="449" y="-79" on="0"/>
        <pt x="449" y="-13" on="1"/>
        <pt x="449" y="54" on="1"/>
        <pt x="415" y="26" on="0"/>
        <pt x="334" y="-4" on="0"/>
      </contour>
      <contour>
        <pt x="113" y="253" on="1"/>
        <pt x="113" y="213" on="0"/>
        <pt x="141" y="142" on="0"/>
        <pt x="190" y="91" on="0"/>
        <pt x="258" y="61" on="0"/>
        <pt x="296" y="61" on="1"/>
        <pt x="344" y="61" on="0"/>
        <pt x="424" y="97" on="0"/>
        <pt x="449" y="130" on="1"/>
        <pt x="449" y="376" on="1"/>
        <pt x="424" y="408" on="0"/>
        <pt x="343" y="444" on="0"/>
        <pt x="296" y="444" on="1"/>
        <pt x="257" y="444" on="0"/>
        <pt x="190" y="415" on="0"/>
        <pt x="141" y="363" on="0"/>
        <pt x="113" y="293" on="0"/>
      </contour>
    </TTGlyph>
    <TTGlyph name="g.alt" xMin="26" yMin="-213" xMax="531" yMax="532">
      <contour>
        <pt x="55" y="323" on="1"/>
        <pt x="55" y="362" on="0"/>
        <pt x="87" y="431" on="0"/>
        <pt x="143" y="482" on="0"/>
        <pt x="219" y="511" on="0"/>
        <pt x="262" y="511" on="1"/>
        <pt x="301" y="511" on="0"/>
        <pt x="369" y="488" on="0"/>
        <pt x="396" y="467" on="1"/>
        <pt x="412" y="497" on="0"/>
        <pt x="471" y="532" on="0"/>
        <pt x="505" y="532" on="1"/>
        <pt x="512" y="532" on="0"/>
        <pt x="524" y="531" on="0"/>
        <pt x="528" y="530" on="1"/>
        <pt x="531" y="466" on="1"/>
        <pt x="525" y="467" on="0"/>
        <pt x="511" y="468" on="0"/>
        <pt x="502" y="468" on="1"/>
        <pt x="478" y="468" on="0"/>
        <pt x="438" y="454" on="0"/>
        <pt x="424" y="441" on="1"/>
        <pt x="445" y="417" on="0"/>
        <pt x="469" y="357" on="0"/>
        <pt x="469" y="323" on="1"/>
        <pt x="469" y="285" on="0"/>
        <pt x="437" y="217" on="0"/>
        <pt x="382" y="168" on="0"/>
        <pt x="306" y="139" on="0"/>
        <pt x="262" y="139" on="1"/>
        <pt x="247" y="139" on="0"/>
        <pt x="217" y="142" on="0"/>
        <pt x="204" y="146" on="1"/>
        <pt x="181" y="139" on="0"/>
        <pt x="156" y="112" on="0"/>
        <pt x="156" y="96" on="1"/>
        <pt x="156" y="77" on="0"/>
        <pt x="186" y="56" on="0"/>
        <pt x="217" y="54" on="1"/>
        <pt x="398" y="45" on="1"/>
        <pt x="460" y="41" on="0"/>
        <pt x="528" y="-13" on="0"/>
        <pt x="528" y="-61" on="1"/>
        <pt x="528" y="-130" on="0"/>
        <pt x="380" y="-213" on="0"/>
        <pt x="256" y="-213" on="1"/>
        <pt x="147" y="-213" on="0"/>
        <pt x="26" y="-150" on="0"/>
        <pt x="26" y="-94" on="1"/>
        <pt x="26" y="-61" on="0"/>
        <pt x="78" y="-6" on="0"/>
        <pt x="126" y="12" on="1"/>
        <pt x="107" y="24" on="0"/>
        <pt x="88" y="59" on="0"/>
        <pt x="88" y="81" on="1"/>
        <pt x="88" y="107" on="0"/>
        <pt x="124" y="152" on="0"/>
        <pt x="154" y="165" on="1"/>
        <pt x="109" y="189" on="0"/>
        <pt x="55" y="272" on="0"/>
      </contour>
      <contour>
        <pt x="399" y="323" on="1"/>
        <pt x="399" y="377" on="0"/>
        <pt x="319" y="450" on="0"/>
        <pt x="262" y="450" on="1"/>
        <pt x="205" y="450" on="0"/>
        <pt x="126" y="377" on="0"/>
        <pt x="126" y="323" on="1"/>
        <pt x="126" y="271" on="0"/>
        <pt x="205" y="199" on="0"/>
        <pt x="262" y="199" on="1"/>
        <pt x="319" y="199" on="0"/>
        <pt x="399" y="272" on="0"/>
      </contour>
      <contour>
        <pt x="96" y="-85" on="1"/>
        <pt x="96" y="-119" on="0"/>
        <pt x="179" y="-158" on="0"/>
        <pt x="251" y="-158" on="1"/>
        <pt x="344" y="-158" on="0"/>
        <pt x="454" y="-111" on="0"/>
        <pt x="454" y="-71" on="1"/>
        <pt x="454" y="-49" on="0"/>
        <pt x="418" y="-23" on="0"/>
        <pt x="384" y="-22" on="1"/>
        <pt x="216" y="-13" on="1"/>
        <pt x="208" y="-12" on="0"/>
        <pt x="193" y="-11" on="0"/>
        <pt x="186" y="-10" on="1"/>
        <pt x="143" y="-20" on="0"/>
        <pt x="96" y="-60" on="0"/>
      </contour>
    </TTGlyph>
    <TTGlyph name="gbreve" xMin="40" yMin="-211" xMax="523" yMax="728">
      <component glyphName="g" x="0" y="0" flags="0x204"/>
      <component glyphName="breve" x="33" y="0" flags="0x4"/>
    </TTGlyph>
    <TTGlyph name="gbreve.alt" xMin="26" yMin="-213" xMax="531" yMax="728">
      <component glyphName="g.alt" x="0" y="0" flags="0x204"/>
      <component glyphName="breve" x="5" y="0" flags="0x4"/>
    </TTGlyph>
    <TTGlyph name="gcircumflex" xMin="40" yMin="-211" xMax="523" yMax="717">
      <component glyphName="g" x="0" y="0" flags="0x204"/>
      <component glyphName="circumflex" x="33" y="0" flags="0x4"/>
    </TTGlyph>
    <TTGlyph name="gcircumflex.alt" xMin="26" yMin="-213" xMax="531" yMax="717">
      <component glyphName="g.alt" x="0" y="0" flags="0x204"/>
      <component glyphName="circumflex" x="5" y="0" flags="0x4"/>
    </TTGlyph>
    <TTGlyph name="gcommaaccent" xMin="40" yMin="-211" xMax="523" yMax="787">
      <contour>
        <pt x="320" y="608" on="1"/>
        <pt x="246" y="608" on="1"/>
        <pt x="306" y="787" on="1"/>
        <pt x="361" y="787" on="1"/>
      </contour>
      <contour>
        <pt x="290" y="-4" on="1"/>
        <pt x="238" y="-4" on="0"/>
        <pt x="147" y="36" on="0"/>
        <pt x="79" y="105" on="0"/>
        <pt x="40" y="199" on="0"/>
        <pt x="40" y="253" on="1"/>
        <pt x="40" y="307" on="0"/>
        <pt x="79" y="401" on="0"/>
        <pt x="147" y="470" on="0"/>
        <pt x="239" y="510" on="0"/>
        <pt x="292" y="510" on="1"/>
        <pt x="335" y="510" on="0"/>
        <pt x="416" y="479" on="0"/>
        <pt x="450" y="451" on="1"/>
        <pt x="450" y="501" on="1"/>
        <pt x="523" y="501" on="1"/>
        <pt x="523" y="-12" on="1"/>
        <pt x="523" y="-108" on="0"/>
        <pt x="411" y="-211" on="0"/>
        <pt x="307" y="-211" on="1"/>
        <pt x="255" y="-211" on="0"/>
        <pt x="153" y="-184" on="0"/>
        <pt x="111" y="-159" on="1"/>
        <pt x="143" y="-101" on="1"/>
        <pt x="188" y="-125" on="0"/>
        <pt x="265" y="-147" on="0"/>
        <pt x="304" y="-147" on="1"/>
        <pt x="375" y="-147" on="0"/>
        <pt x="449" y="-79" on="0"/>
        <pt x="449" y="-13" on="1"/>
        <pt x="449" y="54" on="1"/>
        <pt x="415" y="26" on="0"/>
        <pt x="334" y="-4" on="0"/>
      </contour>
      <contour>
        <pt x="113" y="253" on="1"/>
        <pt x="113" y="213" on="0"/>
        <pt x="141" y="142" on="0"/>
        <pt x="190" y="91" on="0"/>
        <pt x="258" y="61" on="0"/>
        <pt x="296" y="61" on="1"/>
        <pt x="344" y="61" on="0"/>
        <pt x="424" y="97" on="0"/>
        <pt x="449" y="130" on="1"/>
        <pt x="449" y="376" on="1"/>
        <pt x="424" y="408" on="0"/>
        <pt x="343" y="444" on="0"/>
        <pt x="296" y="444" on="1"/>
        <pt x="257" y="444" on="0"/>
        <pt x="190" y="415" on="0"/>
        <pt x="141" y="363" on="0"/>
        <pt x="113" y="293" on="0"/>
      </contour>
    </TTGlyph>
    <TTGlyph name="gcommaaccent.alt" xMin="26" yMin="-213" xMax="531" yMax="775">
      <contour>
        <pt x="300" y="596" on="1"/>
        <pt x="226" y="596" on="1"/>
        <pt x="286" y="775" on="1"/>
        <pt x="341" y="775" on="1"/>
      </contour>
      <contour>
        <pt x="55" y="323" on="1"/>
        <pt x="55" y="362" on="0"/>
        <pt x="87" y="431" on="0"/>
        <pt x="143" y="482" on="0"/>
        <pt x="219" y="511" on="0"/>
        <pt x="262" y="511" on="1"/>
        <pt x="301" y="511" on="0"/>
        <pt x="369" y="488" on="0"/>
        <pt x="396" y="467" on="1"/>
        <pt x="412" y="497" on="0"/>
        <pt x="471" y="532" on="0"/>
        <pt x="505" y="532" on="1"/>
        <pt x="512" y="532" on="0"/>
        <pt x="524" y="531" on="0"/>
        <pt x="528" y="530" on="1"/>
        <pt x="531" y="466" on="1"/>
        <pt x="525" y="467" on="0"/>
        <pt x="511" y="468" on="0"/>
        <pt x="502" y="468" on="1"/>
        <pt x="478" y="468" on="0"/>
        <pt x="438" y="454" on="0"/>
        <pt x="424" y="441" on="1"/>
        <pt x="445" y="417" on="0"/>
        <pt x="469" y="357" on="0"/>
        <pt x="469" y="323" on="1"/>
        <pt x="469" y="285" on="0"/>
        <pt x="437" y="217" on="0"/>
        <pt x="382" y="168" on="0"/>
        <pt x="306" y="139" on="0"/>
        <pt x="262" y="139" on="1"/>
        <pt x="247" y="139" on="0"/>
        <pt x="217" y="142" on="0"/>
        <pt x="204" y="146" on="1"/>
        <pt x="181" y="139" on="0"/>
        <pt x="156" y="112" on="0"/>
        <pt x="156" y="96" on="1"/>
        <pt x="156" y="77" on="0"/>
        <pt x="186" y="56" on="0"/>
        <pt x="217" y="54" on="1"/>
        <pt x="398" y="45" on="1"/>
        <pt x="460" y="41" on="0"/>
        <pt x="528" y="-13" on="0"/>
        <pt x="528" y="-61" on="1"/>
        <pt x="528" y="-130" on="0"/>
        <pt x="380" y="-213" on="0"/>
        <pt x="256" y="-213" on="1"/>
        <pt x="147" y="-213" on="0"/>
        <pt x="26" y="-150" on="0"/>
        <pt x="26" y="-94" on="1"/>
        <pt x="26" y="-61" on="0"/>
        <pt x="78" y="-6" on="0"/>
        <pt x="126" y="12" on="1"/>
        <pt x="107" y="24" on="0"/>
        <pt x="88" y="59" on="0"/>
        <pt x="88" y="81" on="1"/>
        <pt x="88" y="107" on="0"/>
        <pt x="124" y="152" on="0"/>
        <pt x="154" y="165" on="1"/>
        <pt x="109" y="189" on="0"/>
        <pt x="55" y="272" on="0"/>
      </contour>
      <contour>
        <pt x="399" y="323" on="1"/>
        <pt x="399" y="377" on="0"/>
        <pt x="319" y="450" on="0"/>
        <pt x="262" y="450" on="1"/>
        <pt x="205" y="450" on="0"/>
        <pt x="126" y="377" on="0"/>
        <pt x="126" y="323" on="1"/>
        <pt x="126" y="271" on="0"/>
        <pt x="205" y="199" on="0"/>
        <pt x="262" y="199" on="1"/>
        <pt x="319" y="199" on="0"/>
        <pt x="399" y="272" on="0"/>
      </contour>
      <contour>
        <pt x="96" y="-85" on="1"/>
        <pt x="96" y="-119" on="0"/>
        <pt x="179" y="-158" on="0"/>
        <pt x="251" y="-158" on="1"/>
        <pt x="344" y="-158" on="0"/>
        <pt x="454" y="-111" on="0"/>
        <pt x="454" y="-71" on="1"/>
        <pt x="454" y="-49" on="0"/>
        <pt x="418" y="-23" on="0"/>
        <pt x="384" y="-22" on="1"/>
        <pt x="216" y="-13" on="1"/>
        <pt x="208" y="-12" on="0"/>
        <pt x="193" y="-11" on="0"/>
        <pt x="186" y="-10" on="1"/>
        <pt x="143" y="-20" on="0"/>
        <pt x="96" y="-60" on="0"/>
      </contour>
    </TTGlyph>
    <TTGlyph name="gdotaccent" xMin="40" yMin="-211" xMax="523" yMax="700">
      <component glyphName="g" x="0" y="0" flags="0x204"/>
      <component glyphName="dotaccent" x="158" y="0" flags="0x4"/>
    </TTGlyph>
    <TTGlyph name="gdotaccent.alt" xMin="26" yMin="-213" xMax="531" yMax="700">
      <component glyphName="g.alt" x="0" y="0" flags="0x204"/>
      <component glyphName="dotaccent" x="131" y="0" flags="0x4"/>
    </TTGlyph>
    <TTGlyph name="germandbls" xMin="63" yMin="-11" xMax="606" yMax="735">
      <contour>
        <pt x="337" y="364" on="1"/>
        <pt x="337" y="345" on="0"/>
        <pt x="365" y="321" on="0"/>
        <pt x="405" y="307" on="1"/>
        <pt x="482" y="281" on="1"/>
        <pt x="548" y="258" on="0"/>
        <pt x="606" y="192" on="0"/>
        <pt x="606" y="141" on="1"/>
        <pt x="606" y="73" on="0"/>
        <pt x="505" y="-11" on="0"/>
        <pt x="424" y="-11" on="1"/>
        <pt x="367" y="-11" on="0"/>
        <pt x="269" y="30" on="0"/>
        <pt x="228" y="70" on="1"/>
        <pt x="273" y="113" on="1"/>
        <pt x="307" y="79" on="0"/>
        <pt x="380" y="46" on="0"/>
        <pt x="423" y="46" on="1"/>
        <pt x="474" y="46" on="0"/>
        <pt x="537" y="94" on="0"/>
        <pt x="537" y="134" on="1"/>
        <pt x="537" y="168" on="0"/>
        <pt x="500" y="209" on="0"/>
        <pt x="454" y="225" on="1"/>
        <pt x="374" y="251" on="1"/>
        <pt x="314" y="271" on="0"/>
        <pt x="265" y="318" on="0"/>
        <pt x="265" y="355" on="1"/>
        <pt x="265" y="400" on="0"/>
        <pt x="326" y="450" on="0"/>
        <pt x="398" y="489" on="0"/>
        <pt x="459" y="533" on="0"/>
        <pt x="459" y="573" on="1"/>
        <pt x="459" y="617" on="0"/>
        <pt x="373" y="673" on="0"/>
        <pt x="307" y="673" on="1"/>
        <pt x="224" y="673" on="0"/>
        <pt x="136" y="575" on="0"/>
        <pt x="136" y="484" on="1"/>
        <pt x="136" y="0" on="1"/>
        <pt x="63" y="0" on="1"/>
        <pt x="63" y="482" on="1"/>
        <pt x="63" y="601" on="0"/>
        <pt x="192" y="735" on="0"/>
        <pt x="305" y="735" on="1"/>
        <pt x="407" y="735" on="0"/>
        <pt x="531" y="649" on="0"/>
        <pt x="531" y="579" on="1"/>
        <pt x="531" y="525" on="0"/>
        <pt x="470" y="465" on="0"/>
        <pt x="398" y="425" on="0"/>
        <pt x="337" y="392" on="0"/>
      </contour>
    </TTGlyph>
    <TTGlyph name="grave" xMin="165" yMin="600" xMax="353" yMax="716">
      <contour>
        <pt x="261" y="716" on="1"/>
        <pt x="353" y="600" on="1"/>
        <pt x="288" y="600" on="1"/>
        <pt x="165" y="716" on="1"/>
      </contour>
    </TTGlyph>
    <TTGlyph name="greater" xMin="76" yMin="103" xMax="432" yMax="594">
      <contour>
        <pt x="114" y="594" on="1"/>
        <pt x="432" y="348" on="1"/>
        <pt x="114" y="103" on="1"/>
        <pt x="77" y="150" on="1"/>
        <pt x="338" y="347" on="1"/>
        <pt x="76" y="546" on="1"/>
      </contour>
    </TTGlyph>
    <TTGlyph name="guillemotleft" xMin="31" yMin="0" xMax="555" yMax="501">
      <component glyphName="guilsinglleft" x="0" y="0" flags="0x4"/>
      <component glyphName="guilsinglleft" x="208" y="0" flags="0x4"/>
    </TTGlyph>
    <TTGlyph name="guillemotright" xMin="42" yMin="0" xMax="567" yMax="501">
      <contour>
        <pt x="254" y="0" on="1"/>
        <pt x="482" y="248" on="1"/>
        <pt x="251" y="501" on="1"/>
        <pt x="333" y="501" on="1"/>
        <pt x="567" y="250" on="1"/>
        <pt x="333" y="0" on="1"/>
      </contour>
      <contour>
        <pt x="45" y="0" on="1"/>
        <pt x="273" y="248" on="1"/>
        <pt x="42" y="501" on="1"/>
        <pt x="124" y="501" on="1"/>
        <pt x="358" y="250" on="1"/>
        <pt x="124" y="0" on="1"/>
      </contour>
    </TTGlyph>
    <TTGlyph name="guilsinglleft" xMin="31" yMin="0" xMax="347" yMax="501">
      <contour>
        <pt x="344" y="501" on="1"/>
        <pt x="116" y="253" on="1"/>
        <pt x="347" y="0" on="1"/>
        <pt x="265" y="0" on="1"/>
        <pt x="31" y="251" on="1"/>
        <pt x="265" y="501" on="1"/>
      </contour>
    </TTGlyph>
    <TTGlyph name="guilsinglright" xMin="42" yMin="0" xMax="358" yMax="501">
      <contour>
        <pt x="45" y="0" on="1"/>
        <pt x="273" y="248" on="1"/>
        <pt x="42" y="501" on="1"/>
        <pt x="124" y="501" on="1"/>
        <pt x="358" y="250" on="1"/>
        <pt x="124" y="0" on="1"/>
      </contour>
    </TTGlyph>
    <TTGlyph name="h" xMin="63" yMin="0" xMax="488" yMax="717">
      <contour>
        <pt x="63" y="0" on="1"/>
        <pt x="63" y="700" on="1"/>
        <pt x="137" y="717" on="1"/>
        <pt x="137" y="442" on="1"/>
        <pt x="166" y="476" on="0"/>
        <pt x="246" y="511" on="0"/>
        <pt x="295" y="511" on="1"/>
        <pt x="380" y="511" on="0"/>
        <pt x="488" y="403" on="0"/>
        <pt x="488" y="317" on="1"/>
        <pt x="488" y="0" on="1"/>
        <pt x="415" y="0" on="1"/>
        <pt x="415" y="302" on="1"/>
        <pt x="415" y="368" on="0"/>
        <pt x="339" y="446" on="0"/>
        <pt x="275" y="446" on="1"/>
        <pt x="230" y="446" on="0"/>
        <pt x="159" y="406" on="0"/>
        <pt x="137" y="369" on="1"/>
        <pt x="137" y="0" on="1"/>
      </contour>
    </TTGlyph>
    <TTGlyph name="hbar" xMin="0" yMin="0" xMax="488" yMax="717">
      <contour>
        <pt x="63" y="0" on="1"/>
        <pt x="63" y="586" on="1"/>
        <pt x="0" y="586" on="1"/>
        <pt x="0" y="644" on="1"/>
        <pt x="63" y="644" on="1"/>
        <pt x="63" y="700" on="1"/>
        <pt x="137" y="717" on="1"/>
        <pt x="137" y="644" on="1"/>
        <pt x="300" y="644" on="1"/>
        <pt x="300" y="586" on="1"/>
        <pt x="137" y="586" on="1"/>
        <pt x="137" y="442" on="1"/>
        <pt x="166" y="476" on="0"/>
        <pt x="246" y="511" on="0"/>
        <pt x="295" y="511" on="1"/>
        <pt x="380" y="511" on="0"/>
        <pt x="488" y="403" on="0"/>
        <pt x="488" y="317" on="1"/>
        <pt x="488" y="0" on="1"/>
        <pt x="415" y="0" on="1"/>
        <pt x="415" y="302" on="1"/>
        <pt x="415" y="368" on="0"/>
        <pt x="339" y="446" on="0"/>
        <pt x="275" y="446" on="1"/>
        <pt x="230" y="446" on="0"/>
        <pt x="159" y="406" on="0"/>
        <pt x="137" y="369" on="1"/>
        <pt x="137" y="0" on="1"/>
      </contour>
    </TTGlyph>
    <TTGlyph name="hcircumflex" xMin="-44" yMin="0" xMax="488" yMax="916">
      <contour>
        <pt x="183" y="795" on="1"/>
        <pt x="99" y="875" on="1"/>
        <pt x="16" y="795" on="1"/>
        <pt x="-44" y="795" on="1"/>
        <pt x="60" y="916" on="1"/>
        <pt x="140" y="916" on="1"/>
        <pt x="244" y="795" on="1"/>
      </contour>
      <contour>
        <pt x="63" y="0" on="1"/>
        <pt x="63" y="700" on="1"/>
        <pt x="137" y="700" on="1"/>
        <pt x="137" y="442" on="1"/>
        <pt x="166" y="476" on="0"/>
        <pt x="246" y="511" on="0"/>
        <pt x="295" y="511" on="1"/>
        <pt x="380" y="511" on="0"/>
        <pt x="488" y="403" on="0"/>
        <pt x="488" y="317" on="1"/>
        <pt x="488" y="0" on="1"/>
        <pt x="415" y="0" on="1"/>
        <pt x="415" y="302" on="1"/>
        <pt x="415" y="368" on="0"/>
        <pt x="339" y="446" on="0"/>
        <pt x="275" y="446" on="1"/>
        <pt x="230" y="446" on="0"/>
        <pt x="159" y="406" on="0"/>
        <pt x="137" y="369" on="1"/>
        <pt x="137" y="0" on="1"/>
      </contour>
    </TTGlyph>
    <TTGlyph name="hungarumlaut" xMin="125" yMin="603" xMax="481" yMax="716">
      <contour>
        <pt x="229" y="716" on="1"/>
        <pt x="315" y="716" on="1"/>
        <pt x="188" y="603" on="1"/>
        <pt x="125" y="603" on="1"/>
      </contour>
      <contour>
        <pt x="394" y="716" on="1"/>
        <pt x="481" y="716" on="1"/>
        <pt x="351" y="603" on="1"/>
        <pt x="290" y="603" on="1"/>
      </contour>
    </TTGlyph>
    <TTGlyph name="hyphen" xMin="49" yMin="248" xMax="398" yMax="314">
      <contour>
        <pt x="49" y="314" on="1"/>
        <pt x="398" y="314" on="1"/>
        <pt x="398" y="248" on="1"/>
        <pt x="49" y="248" on="1"/>
      </contour>
    </TTGlyph>
    <TTGlyph name="hyphen.cap" xMin="49" yMin="313" xMax="398" yMax="379">
      <component glyphName="hyphen" x="0" y="65" flags="0x4"/>
    </TTGlyph>
    <TTGlyph name="i" xMin="50" yMin="0" xMax="150" yMax="697">
      <contour>
        <pt x="100" y="597" on="1"/>
        <pt x="80" y="597" on="0"/>
        <pt x="50" y="627" on="0"/>
        <pt x="50" y="647" on="1"/>
        <pt x="50" y="668" on="0"/>
        <pt x="80" y="697" on="0"/>
        <pt x="100" y="697" on="1"/>
        <pt x="121" y="697" on="0"/>
        <pt x="150" y="668" on="0"/>
        <pt x="150" y="647" on="1"/>
        <pt x="150" y="627" on="0"/>
        <pt x="121" y="597" on="0"/>
      </contour>
      <contour>
        <pt x="137" y="501" on="1"/>
        <pt x="137" y="0" on="1"/>
        <pt x="63" y="0" on="1"/>
        <pt x="63" y="501" on="1"/>
      </contour>
    </TTGlyph>
    <TTGlyph name="iacute" xMin="45" yMin="0" xMax="234" yMax="716">
      <component glyphName="dotlessi" x="0" y="0" flags="0x4"/>
      <component glyphName="acute" x="-122" y="0" flags="0x4"/>
    </TTGlyph>
    <TTGlyph name="ibreve" xMin="-54" yMin="0" xMax="254" yMax="728">
      <component glyphName="dotlessi" x="0" y="0" flags="0x4"/>
      <component glyphName="breve" x="-160" y="0" flags="0x4"/>
    </TTGlyph>
    <TTGlyph name="icircumflex" xMin="-44" yMin="0" xMax="244" yMax="717">
      <component glyphName="dotlessi" x="0" y="0" flags="0x4"/>
      <component glyphName="circumflex" x="-160" y="0" flags="0x4"/>
    </TTGlyph>
    <TTGlyph name="idieresis" xMin="-38" yMin="0" xMax="236" yMax="707">
      <component glyphName="dotlessi" x="0" y="0" flags="0x4"/>
      <component glyphName="dieresis" x="-170" y="0" flags="0x4"/>
    </TTGlyph>
    <TTGlyph name="idotaccent" xMin="50" yMin="0" xMax="150" yMax="697">
      <component glyphName="i" x="0" y="0" flags="0x4"/>
    </TTGlyph>
    <TTGlyph name="igrave" xMin="-37" yMin="0" xMax="151" yMax="716">
      <component glyphName="dotlessi" x="0" y="0" flags="0x4"/>
      <component glyphName="grave" x="-202" y="0" flags="0x4"/>
    </TTGlyph>
    <TTGlyph name="ij" xMin="50" yMin="-208" xMax="348" yMax="697">
      <component glyphName="i" x="0" y="0" flags="0x4"/>
      <component glyphName="j" x="198" y="0" flags="0x4"/>
    </TTGlyph>
    <TTGlyph name="imacron" xMin="-38" yMin="0" xMax="245" yMax="674">
      <component glyphName="dotlessi" x="0" y="0" flags="0x4"/>
      <component glyphName="macron" x="-160" y="0" flags="0x4"/>
    </TTGlyph>
    <TTGlyph name="iogonek" xMin="-20" yMin="-221" xMax="152" yMax="697">
      <contour>
        <pt x="100" y="597" on="1"/>
        <pt x="80" y="597" on="0"/>
        <pt x="50" y="627" on="0"/>
        <pt x="50" y="647" on="1"/>
        <pt x="50" y="668" on="0"/>
        <pt x="80" y="697" on="0"/>
        <pt x="100" y="697" on="1"/>
        <pt x="121" y="697" on="0"/>
        <pt x="150" y="668" on="0"/>
        <pt x="150" y="647" on="1"/>
        <pt x="150" y="627" on="0"/>
        <pt x="121" y="597" on="0"/>
      </contour>
      <contour>
        <pt x="137" y="0" on="1"/>
        <pt x="83" y="-34" on="0"/>
        <pt x="31" y="-94" on="0"/>
        <pt x="31" y="-123" on="1"/>
        <pt x="31" y="-148" on="0"/>
        <pt x="61" y="-175" on="0"/>
        <pt x="89" y="-175" on="1"/>
        <pt x="102" y="-175" on="0"/>
        <pt x="127" y="-168" on="0"/>
        <pt x="137" y="-161" on="1"/>
        <pt x="152" y="-200" on="1"/>
        <pt x="136" y="-210" on="0"/>
        <pt x="99" y="-221" on="0"/>
        <pt x="78" y="-221" on="1"/>
        <pt x="34" y="-221" on="0"/>
        <pt x="-20" y="-174" on="0"/>
        <pt x="-20" y="-135" on="1"/>
        <pt x="-20" y="-100" on="0"/>
        <pt x="27" y="-36" on="0"/>
        <pt x="79" y="0" on="1"/>
        <pt x="63" y="0" on="1"/>
        <pt x="63" y="501" on="1"/>
        <pt x="137" y="501" on="1"/>
      </contour>
    </TTGlyph>
    <TTGlyph name="itilde" xMin="-64" yMin="0" xMax="271" yMax="706">
      <component glyphName="dotlessi" x="0" y="0" flags="0x4"/>
      <component glyphName="tilde" x="-156" y="0" flags="0x4"/>
    </TTGlyph>
    <TTGlyph name="j" xMin="-38" yMin="-208" xMax="150" yMax="697">
      <contour>
        <pt x="100" y="597" on="1"/>
        <pt x="80" y="597" on="0"/>
        <pt x="50" y="627" on="0"/>
        <pt x="50" y="647" on="1"/>
        <pt x="50" y="668" on="0"/>
        <pt x="80" y="697" on="0"/>
        <pt x="100" y="697" on="1"/>
        <pt x="121" y="697" on="0"/>
        <pt x="150" y="668" on="0"/>
        <pt x="150" y="647" on="1"/>
        <pt x="150" y="627" on="0"/>
        <pt x="121" y="597" on="0"/>
      </contour>
      <contour>
        <pt x="8" y="-208" on="1"/>
        <pt x="-6" y="-208" on="0"/>
        <pt x="-30" y="-204" on="0"/>
        <pt x="-38" y="-202" on="1"/>
        <pt x="-38" y="-140" on="1"/>
        <pt x="-29" y="-142" on="0"/>
        <pt x="-12" y="-144" on="0"/>
        <pt x="-1" y="-144" on="1"/>
        <pt x="33" y="-144" on="0"/>
        <pt x="63" y="-112" on="0"/>
        <pt x="63" y="-76" on="1"/>
        <pt x="63" y="501" on="1"/>
        <pt x="137" y="501" on="1"/>
        <pt x="137" y="-82" on="1"/>
        <pt x="137" y="-142" on="0"/>
        <pt x="69" y="-208" on="0"/>
      </contour>
    </TTGlyph>
    <TTGlyph name="jcircumflex" xMin="-44" yMin="-208" xMax="244" yMax="717">
      <component glyphName="dotlessj" x="0" y="0" flags="0x4"/>
      <component glyphName="circumflex" x="-160" y="0" flags="0x4"/>
    </TTGlyph>
    <TTGlyph name="k" xMin="63" yMin="0" xMax="502" yMax="717">
      <contour>
        <pt x="63" y="0" on="1"/>
        <pt x="63" y="700" on="1"/>
        <pt x="137" y="717" on="1"/>
        <pt x="137" y="275" on="1"/>
        <pt x="399" y="501" on="1"/>
        <pt x="489" y="501" on="1"/>
        <pt x="214" y="263" on="1"/>
        <pt x="502" y="0" on="1"/>
        <pt x="401" y="0" on="1"/>
        <pt x="137" y="240" on="1"/>
        <pt x="137" y="0" on="1"/>
      </contour>
    </TTGlyph>
    <TTGlyph name="kcommaaccent" xMin="63" yMin="-264" xMax="502" yMax="717">
      <component glyphName="k" x="0" y="0" flags="0x204"/>
      <component glyphName="commaaccent" x="139" y="0" flags="0x4"/>
    </TTGlyph>
    <TTGlyph name="kgreenlandic" xMin="63" yMin="0" xMax="502" yMax="501">
      <contour>
        <pt x="63" y="0" on="1"/>
        <pt x="63" y="501" on="1"/>
        <pt x="137" y="501" on="1"/>
        <pt x="137" y="275" on="1"/>
        <pt x="399" y="501" on="1"/>
        <pt x="489" y="501" on="1"/>
        <pt x="214" y="263" on="1"/>
        <pt x="502" y="0" on="1"/>
        <pt x="401" y="0" on="1"/>
        <pt x="137" y="240" on="1"/>
        <pt x="137" y="0" on="1"/>
      </contour>
    </TTGlyph>
    <TTGlyph name="l" xMin="63" yMin="0" xMax="137" yMax="717">
      <contour>
        <pt x="137" y="717" on="1"/>
        <pt x="137" y="0" on="1"/>
        <pt x="63" y="0" on="1"/>
        <pt x="63" y="700" on="1"/>
      </contour>
    </TTGlyph>
    <TTGlyph name="lacute" xMin="46" yMin="0" xMax="235" yMax="915">
      <contour>
        <pt x="140" y="915" on="1"/>
        <pt x="235" y="915" on="1"/>
        <pt x="111" y="799" on="1"/>
        <pt x="46" y="799" on="1"/>
      </contour>
      <contour>
        <pt x="63" y="0" on="1"/>
        <pt x="63" y="700" on="1"/>
        <pt x="137" y="700" on="1"/>
        <pt x="137" y="0" on="1"/>
      </contour>
    </TTGlyph>
    <TTGlyph name="lcaron" xMin="63" yMin="0" xMax="287" yMax="717">
      <component glyphName="l" x="0" y="0" flags="0x4"/>
      <component glyphName="caronSlovak" x="6" y="0" flags="0x4"/>
    </TTGlyph>
    <TTGlyph name="lcommaaccent" xMin="22" yMin="-264" xMax="137" yMax="717">
      <component glyphName="l" x="0" y="0" flags="0x204"/>
      <component glyphName="commaaccent" x="-9" y="0" flags="0x4"/>
    </TTGlyph>
    <TTGlyph name="ldot" xMin="63" yMin="0" xMax="299" yMax="717">
      <component glyphName="l" x="0" y="0" flags="0x4"/>
      <component glyphName="dotaccent" x="115" y="-299" flags="0x4"/>
    </TTGlyph>
    <TTGlyph name="less" xMin="73" yMin="103" xMax="429" yMax="594">
      <contour>
        <pt x="391" y="103" on="1"/>
        <pt x="73" y="349" on="1"/>
        <pt x="391" y="594" on="1"/>
        <pt x="428" y="547" on="1"/>
        <pt x="167" y="350" on="1"/>
        <pt x="429" y="151" on="1"/>
      </contour>
    </TTGlyph>
    <TTGlyph name="lslash" xMin="9" yMin="0" xMax="233" yMax="717">
      <contour>
        <pt x="9" y="328" on="1"/>
        <pt x="84" y="389" on="1"/>
        <pt x="84" y="700" on="1"/>
        <pt x="158" y="717" on="1"/>
        <pt x="158" y="449" on="1"/>
        <pt x="233" y="510" on="1"/>
        <pt x="233" y="435" on="1"/>
        <pt x="158" y="374" on="1"/>
        <pt x="158" y="0" on="1"/>
        <pt x="84" y="0" on="1"/>
        <pt x="84" y="315" on="1"/>
        <pt x="9" y="254" on="1"/>
      </contour>
    </TTGlyph>
    <TTGlyph name="m" xMin="63" yMin="0" xMax="798" yMax="511">
      <contour>
        <pt x="63" y="0" on="1"/>
        <pt x="63" y="501" on="1"/>
        <pt x="137" y="501" on="1"/>
        <pt x="137" y="446" on="1"/>
        <pt x="165" y="478" on="0"/>
        <pt x="239" y="511" on="0"/>
        <pt x="284" y="511" on="1"/>
        <pt x="336" y="511" on="0"/>
        <pt x="419" y="462" on="0"/>
        <pt x="442" y="420" on="1"/>
        <pt x="473" y="466" on="0"/>
        <pt x="560" y="511" on="0"/>
        <pt x="614" y="511" on="1"/>
        <pt x="695" y="511" on="0"/>
        <pt x="798" y="403" on="0"/>
        <pt x="798" y="317" on="1"/>
        <pt x="798" y="0" on="1"/>
        <pt x="725" y="0" on="1"/>
        <pt x="725" y="302" on="1"/>
        <pt x="725" y="368" on="0"/>
        <pt x="655" y="446" on="0"/>
        <pt x="595" y="446" on="1"/>
        <pt x="554" y="446" on="0"/>
        <pt x="486" y="404" on="0"/>
        <pt x="462" y="364" on="1"/>
        <pt x="464" y="353" on="0"/>
        <pt x="467" y="330" on="0"/>
        <pt x="467" y="317" on="1"/>
        <pt x="467" y="0" on="1"/>
        <pt x="394" y="0" on="1"/>
        <pt x="394" y="302" on="1"/>
        <pt x="394" y="368" on="0"/>
        <pt x="324" y="446" on="0"/>
        <pt x="265" y="446" on="1"/>
        <pt x="225" y="446" on="0"/>
        <pt x="160" y="409" on="0"/>
        <pt x="137" y="373" on="1"/>
        <pt x="137" y="0" on="1"/>
      </contour>
    </TTGlyph>
    <TTGlyph name="macron" xMin="122" yMin="621" xMax="405" yMax="674">
      <contour>
        <pt x="405" y="674" on="1"/>
        <pt x="405" y="621" on="1"/>
        <pt x="122" y="621" on="1"/>
        <pt x="122" y="674" on="1"/>
      </contour>
    </TTGlyph>
    <TTGlyph name="minus" xMin="55" yMin="327" xMax="470" yMax="389">
      <contour>
        <pt x="470" y="389" on="1"/>
        <pt x="470" y="327" on="1"/>
        <pt x="55" y="327" on="1"/>
        <pt x="55" y="389" on="1"/>
      </contour>
    </TTGlyph>
    <TTGlyph name="multiply" xMin="77" yMin="161" xMax="467" yMax="557">
      <contour>
        <pt x="116" y="162" on="1"/>
        <pt x="77" y="202" on="1"/>
        <pt x="232" y="359" on="1"/>
        <pt x="77" y="516" on="1"/>
        <pt x="117" y="557" on="1"/>
        <pt x="272" y="400" on="1"/>
        <pt x="427" y="557" on="1"/>
        <pt x="466" y="517" on="1"/>
        <pt x="311" y="360" on="1"/>
        <pt x="467" y="202" on="1"/>
        <pt x="427" y="161" on="1"/>
        <pt x="271" y="319" on="1"/>
      </contour>
    </TTGlyph>
    <TTGlyph name="n" xMin="63" yMin="0" xMax="488" yMax="511">
      <contour>
        <pt x="63" y="0" on="1"/>
        <pt x="63" y="501" on="1"/>
        <pt x="137" y="501" on="1"/>
        <pt x="137" y="442" on="1"/>
        <pt x="166" y="476" on="0"/>
        <pt x="246" y="511" on="0"/>
        <pt x="295" y="511" on="1"/>
        <pt x="380" y="511" on="0"/>
        <pt x="488" y="403" on="0"/>
        <pt x="488" y="317" on="1"/>
        <pt x="488" y="0" on="1"/>
        <pt x="415" y="0" on="1"/>
        <pt x="415" y="302" on="1"/>
        <pt x="415" y="368" on="0"/>
        <pt x="339" y="446" on="0"/>
        <pt x="275" y="446" on="1"/>
        <pt x="230" y="446" on="0"/>
        <pt x="159" y="406" on="0"/>
        <pt x="137" y="369" on="1"/>
        <pt x="137" y="0" on="1"/>
      </contour>
    </TTGlyph>
    <TTGlyph name="nacute" xMin="63" yMin="0" xMax="488" yMax="716">
      <component glyphName="n" x="0" y="0" flags="0x204"/>
      <component glyphName="acute" x="55" y="0" flags="0x4"/>
    </TTGlyph>
    <TTGlyph name="ncaron" xMin="63" yMin="0" xMax="488" yMax="718">
      <component glyphName="n" x="0" y="0" flags="0x204"/>
      <component glyphName="caron" x="16" y="0" flags="0x4"/>
    </TTGlyph>
    <TTGlyph name="ncommaaccent" xMin="63" yMin="-264" xMax="488" yMax="511">
      <component glyphName="n" x="0" y="0" flags="0x204"/>
      <component glyphName="commaaccent" x="167" y="0" flags="0x4"/>
    </TTGlyph>
    <TTGlyph name="nine" xMin="39" yMin="-10" xMax="567" yMax="709">
      <contour>
        <pt x="284" y="709" on="1"/>
        <pt x="346" y="709" on="0"/>
        <pt x="450" y="660" on="0"/>
        <pt x="525" y="572" on="0"/>
        <pt x="567" y="449" on="0"/>
        <pt x="567" y="375" on="1"/>
        <pt x="567" y="288" on="0"/>
        <pt x="520" y="145" on="0"/>
        <pt x="435" y="45" on="0"/>
        <pt x="315" y="-10" on="0"/>
        <pt x="242" y="-10" on="1"/>
        <pt x="196" y="-10" on="0"/>
        <pt x="108" y="14" on="0"/>
        <pt x="74" y="36" on="1"/>
        <pt x="110" y="93" on="1"/>
        <pt x="141" y="75" on="0"/>
        <pt x="211" y="56" on="0"/>
        <pt x="245" y="56" on="1"/>
        <pt x="358" y="56" on="0"/>
        <pt x="490" y="219" on="0"/>
        <pt x="494" y="362" on="1"/>
        <pt x="455" y="316" on="0"/>
        <pt x="341" y="262" on="0"/>
        <pt x="281" y="262" on="1"/>
        <pt x="229" y="262" on="0"/>
        <pt x="140" y="295" on="0"/>
        <pt x="75" y="353" on="0"/>
        <pt x="39" y="434" on="0"/>
        <pt x="39" y="481" on="1"/>
        <pt x="39" y="530" on="0"/>
        <pt x="76" y="614" on="0"/>
        <pt x="141" y="675" on="0"/>
        <pt x="231" y="709" on="0"/>
      </contour>
      <contour>
        <pt x="294" y="323" on="1"/>
        <pt x="349" y="323" on="0"/>
        <pt x="453" y="378" on="0"/>
        <pt x="491" y="427" on="1"/>
        <pt x="479" y="525" on="0"/>
        <pt x="367" y="645" on="0"/>
        <pt x="285" y="645" on="1"/>
        <pt x="211" y="645" on="0"/>
        <pt x="113" y="552" on="0"/>
        <pt x="113" y="483" on="1"/>
        <pt x="113" y="412" on="0"/>
        <pt x="214" y="323" on="0"/>
      </contour>
    </TTGlyph>
    <TTGlyph name="notequal" xMin="54" yMin="133" xMax="471" yMax="579">
      <contour>
        <pt x="54" y="133" on="1"/>
        <pt x="142" y="246" on="1"/>
        <pt x="55" y="246" on="1"/>
        <pt x="55" y="306" on="1"/>
        <pt x="189" y="306" on="1"/>
        <pt x="267" y="407" on="1"/>
        <pt x="55" y="407" on="1"/>
        <pt x="55" y="467" on="1"/>
        <pt x="314" y="467" on="1"/>
        <pt x="401" y="579" on="1"/>
        <pt x="471" y="579" on="1"/>
        <pt x="384" y="467" on="1"/>
        <pt x="470" y="467" on="1"/>
        <pt x="470" y="407" on="1"/>
        <pt x="337" y="407" on="1"/>
        <pt x="259" y="306" on="1"/>
        <pt x="470" y="306" on="1"/>
        <pt x="470" y="246" on="1"/>
        <pt x="212" y="246" on="1"/>
        <pt x="124" y="133" on="1"/>
      </contour>
    </TTGlyph>
    <TTGlyph name="ntilde" xMin="63" yMin="0" xMax="488" yMax="706">
      <component glyphName="n" x="0" y="0" flags="0x204"/>
      <component glyphName="tilde" x="21" y="0" flags="0x4"/>
    </TTGlyph>
    <TTGlyph name="numbersign" xMin="30" yMin="0" xMax="662" yMax="700">
      <contour>
        <pt x="79" y="0" on="1"/>
        <pt x="142" y="219" on="1"/>
        <pt x="30" y="219" on="1"/>
        <pt x="30" y="277" on="1"/>
        <pt x="158" y="277" on="1"/>
        <pt x="200" y="423" on="1"/>
        <pt x="80" y="423" on="1"/>
        <pt x="80" y="481" on="1"/>
        <pt x="216" y="481" on="1"/>
        <pt x="279" y="700" on="1"/>
        <pt x="347" y="700" on="1"/>
        <pt x="284" y="481" on="1"/>
        <pt x="482" y="481" on="1"/>
        <pt x="545" y="700" on="1"/>
        <pt x="613" y="700" on="1"/>
        <pt x="550" y="481" on="1"/>
        <pt x="662" y="481" on="1"/>
        <pt x="662" y="423" on="1"/>
        <pt x="534" y="423" on="1"/>
        <pt x="492" y="277" on="1"/>
        <pt x="612" y="277" on="1"/>
        <pt x="612" y="219" on="1"/>
        <pt x="476" y="219" on="1"/>
        <pt x="413" y="0" on="1"/>
        <pt x="345" y="0" on="1"/>
        <pt x="408" y="219" on="1"/>
        <pt x="210" y="219" on="1"/>
        <pt x="147" y="0" on="1"/>
      </contour>
      <contour>
        <pt x="226" y="277" on="1"/>
        <pt x="424" y="277" on="1"/>
        <pt x="466" y="423" on="1"/>
        <pt x="268" y="423" on="1"/>
      </contour>
    </TTGlyph>
    <TTGlyph name="o" xMin="40" yMin="-10" xMax="551" yMax="511">
      <contour>
        <pt x="40" y="251" on="1"/>
        <pt x="40" y="305" on="0"/>
        <pt x="80" y="401" on="0"/>
        <pt x="149" y="471" on="0"/>
        <pt x="243" y="511" on="0"/>
        <pt x="296" y="511" on="1"/>
        <pt x="349" y="511" on="0"/>
        <pt x="442" y="471" on="0"/>
        <pt x="511" y="401" on="0"/>
        <pt x="551" y="305" on="0"/>
        <pt x="551" y="251" on="1"/>
        <pt x="551" y="196" on="0"/>
        <pt x="511" y="100" on="0"/>
        <pt x="442" y="30" on="0"/>
        <pt x="349" y="-10" on="0"/>
        <pt x="296" y="-10" on="1"/>
        <pt x="243" y="-10" on="0"/>
        <pt x="149" y="30" on="0"/>
        <pt x="80" y="100" on="0"/>
        <pt x="40" y="196" on="0"/>
      </contour>
      <contour>
        <pt x="296" y="56" on="1"/>
        <pt x="334" y="56" on="0"/>
        <pt x="401" y="86" on="0"/>
        <pt x="450" y="139" on="0"/>
        <pt x="478" y="210" on="0"/>
        <pt x="478" y="251" on="1"/>
        <pt x="478" y="292" on="0"/>
        <pt x="450" y="363" on="0"/>
        <pt x="401" y="415" on="0"/>
        <pt x="334" y="445" on="0"/>
        <pt x="296" y="445" on="1"/>
        <pt x="258" y="445" on="0"/>
        <pt x="191" y="415" on="0"/>
        <pt x="142" y="363" on="0"/>
        <pt x="113" y="292" on="0"/>
        <pt x="113" y="251" on="1"/>
        <pt x="113" y="210" on="0"/>
        <pt x="141" y="139" on="0"/>
        <pt x="190" y="86" on="0"/>
        <pt x="258" y="56" on="0"/>
      </contour>
    </TTGlyph>
    <TTGlyph name="oacute" xMin="40" yMin="-10" xMax="551" yMax="716">
      <component glyphName="o" x="0" y="0" flags="0x204"/>
      <component glyphName="acute" x="75" y="0" flags="0x4"/>
    </TTGlyph>
    <TTGlyph name="obreve" xMin="40" yMin="-10" xMax="551" yMax="728">
      <component glyphName="o" x="0" y="0" flags="0x204"/>
      <component glyphName="breve" x="36" y="0" flags="0x4"/>
    </TTGlyph>
    <TTGlyph name="ocircumflex" xMin="40" yMin="-10" xMax="551" yMax="717">
      <component glyphName="o" x="0" y="0" flags="0x204"/>
      <component glyphName="circumflex" x="36" y="0" flags="0x4"/>
    </TTGlyph>
    <TTGlyph name="odieresis" xMin="40" yMin="-10" xMax="551" yMax="707">
      <component glyphName="o" x="0" y="0" flags="0x204"/>
      <component glyphName="dieresis" x="26" y="0" flags="0x4"/>
    </TTGlyph>
    <TTGlyph name="oe" xMin="40" yMin="-10" xMax="962" yMax="511">
      <contour>
        <pt x="40" y="251" on="1"/>
        <pt x="40" y="305" on="0"/>
        <pt x="80" y="401" on="0"/>
        <pt x="149" y="471" on="0"/>
        <pt x="243" y="511" on="0"/>
        <pt x="296" y="511" on="1"/>
        <pt x="366" y="511" on="0"/>
        <pt x="482" y="440" on="0"/>
        <pt x="514" y="382" on="1"/>
        <pt x="545" y="439" on="0"/>
        <pt x="657" y="509" on="0"/>
        <pt x="726" y="509" on="1"/>
        <pt x="775" y="509" on="0"/>
        <pt x="862" y="469" on="0"/>
        <pt x="925" y="399" on="0"/>
        <pt x="962" y="305" on="0"/>
        <pt x="962" y="251" on="1"/>
        <pt x="962" y="228" on="1"/>
        <pt x="552" y="228" on="1"/>
        <pt x="560" y="154" on="0"/>
        <pt x="666" y="56" on="0"/>
        <pt x="740" y="56" on="1"/>
        <pt x="779" y="56" on="0"/>
        <pt x="852" y="80" on="0"/>
        <pt x="878" y="102" on="1"/>
        <pt x="924" y="53" on="1"/>
        <pt x="882" y="22" on="0"/>
        <pt x="790" y="-9" on="0"/>
        <pt x="737" y="-9" on="1"/>
        <pt x="665" y="-9" on="0"/>
        <pt x="546" y="62" on="0"/>
        <pt x="514" y="120" on="1"/>
        <pt x="482" y="61" on="0"/>
        <pt x="366" y="-10" on="0"/>
        <pt x="296" y="-10" on="1"/>
        <pt x="243" y="-10" on="0"/>
        <pt x="149" y="30" on="0"/>
        <pt x="80" y="100" on="0"/>
        <pt x="40" y="196" on="0"/>
      </contour>
      <contour>
        <pt x="296" y="56" on="1"/>
        <pt x="334" y="56" on="0"/>
        <pt x="401" y="86" on="0"/>
        <pt x="450" y="139" on="0"/>
        <pt x="478" y="210" on="0"/>
        <pt x="478" y="251" on="1"/>
        <pt x="478" y="292" on="0"/>
        <pt x="450" y="363" on="0"/>
        <pt x="401" y="415" on="0"/>
        <pt x="334" y="445" on="0"/>
        <pt x="296" y="445" on="1"/>
        <pt x="258" y="445" on="0"/>
        <pt x="191" y="415" on="0"/>
        <pt x="142" y="363" on="0"/>
        <pt x="113" y="292" on="0"/>
        <pt x="113" y="251" on="1"/>
        <pt x="113" y="210" on="0"/>
        <pt x="141" y="139" on="0"/>
        <pt x="190" y="86" on="0"/>
        <pt x="258" y="56" on="0"/>
      </contour>
      <contour>
        <pt x="723" y="444" on="1"/>
        <pt x="658" y="444" on="0"/>
        <pt x="564" y="356" on="0"/>
        <pt x="554" y="287" on="1"/>
        <pt x="889" y="287" on="1"/>
        <pt x="879" y="353" on="0"/>
        <pt x="785" y="444" on="0"/>
      </contour>
    </TTGlyph>
    <TTGlyph name="ogonek" xMin="161" yMin="-221" xMax="333" yMax="16">
      <contour>
        <pt x="318" y="0" on="1"/>
        <pt x="264" y="-34" on="0"/>
        <pt x="212" y="-94" on="0"/>
        <pt x="212" y="-123" on="1"/>
        <pt x="212" y="-148" on="0"/>
        <pt x="242" y="-175" on="0"/>
        <pt x="270" y="-175" on="1"/>
        <pt x="283" y="-175" on="0"/>
        <pt x="308" y="-168" on="0"/>
        <pt x="318" y="-161" on="1"/>
        <pt x="333" y="-200" on="1"/>
        <pt x="317" y="-210" on="0"/>
        <pt x="280" y="-221" on="0"/>
        <pt x="259" y="-221" on="1"/>
        <pt x="215" y="-221" on="0"/>
        <pt x="161" y="-174" on="0"/>
        <pt x="161" y="-135" on="1"/>
        <pt x="161" y="-96" on="0"/>
        <pt x="219" y="-26" on="0"/>
        <pt x="284" y="16" on="1"/>
      </contour>
    </TTGlyph>
    <TTGlyph name="ograve" xMin="40" yMin="-10" xMax="551" yMax="716">
      <component glyphName="o" x="0" y="0" flags="0x204"/>
      <component glyphName="grave" x="-6" y="0" flags="0x4"/>
    </TTGlyph>
    <TTGlyph name="ohungarumlaut" xMin="40" yMin="-10" xMax="551" yMax="716">
      <component glyphName="o" x="0" y="0" flags="0x204"/>
      <component glyphName="hungarumlaut" x="49" y="0" flags="0x4"/>
    </TTGlyph>
    <TTGlyph name="omacron" xMin="40" yMin="-10" xMax="551" yMax="674">
      <component glyphName="o" x="0" y="0" flags="0x204"/>
      <component glyphName="macron" x="36" y="0" flags="0x4"/>
    </TTGlyph>
    <TTGlyph name="one" xMin="28" yMin="0" xMax="219" yMax="700">
      <contour>
        <pt x="219" y="700" on="1"/>
        <pt x="219" y="0" on="1"/>
        <pt x="146" y="0" on="1"/>
        <pt x="146" y="623" on="1"/>
        <pt x="28" y="571" on="1"/>
        <pt x="28" y="638" on="1"/>
        <pt x="172" y="700" on="1"/>
      </contour>
    </TTGlyph>
    <TTGlyph name="onehalf" xMin="20" yMin="0" xMax="616" yMax="700">
      <component glyphName="onesuperior" x="0" y="0" flags="0x4"/>
      <component glyphName="fraction" x="8" y="0" flags="0x4"/>
      <component glyphName="uni2082" x="346" y="0" flags="0x4"/>
    </TTGlyph>
    <TTGlyph name="onequarter" xMin="20" yMin="0" xMax="587" yMax="700">
      <component glyphName="uni2084" x="273" y="0" flags="0x4"/>
      <component glyphName="onesuperior" x="0" y="0" flags="0x4"/>
      <component glyphName="fraction" x="8" y="0" flags="0x4"/>
    </TTGlyph>
    <TTGlyph name="onesuperior" xMin="20" yMin="350" xMax="135" yMax="700">
      <component glyphName="uni2081" x="0" y="350" flags="0x4"/>
    </TTGlyph>
    <TTGlyph name="ordfeminine" xMin="33" yMin="315" xMax="354" yMax="707">
      <contour>
        <pt x="173" y="315" on="1"/>
        <pt x="111" y="315" on="0"/>
        <pt x="33" y="378" on="0"/>
        <pt x="33" y="429" on="1"/>
        <pt x="33" y="482" on="0"/>
        <pt x="116" y="544" on="0"/>
        <pt x="186" y="544" on="1"/>
        <pt x="214" y="544" on="0"/>
        <pt x="269" y="532" on="0"/>
        <pt x="293" y="521" on="1"/>
        <pt x="293" y="567" on="1"/>
        <pt x="293" y="610" on="0"/>
        <pt x="245" y="654" on="0"/>
        <pt x="196" y="654" on="1"/>
        <pt x="169" y="654" on="0"/>
        <pt x="112" y="638" on="0"/>
        <pt x="78" y="622" on="1"/>
        <pt x="55" y="669" on="1"/>
        <pt x="96" y="688" on="0"/>
        <pt x="168" y="707" on="0"/>
        <pt x="203" y="707" on="1"/>
        <pt x="275" y="707" on="0"/>
        <pt x="354" y="637" on="0"/>
        <pt x="354" y="574" on="1"/>
        <pt x="354" y="322" on="1"/>
        <pt x="293" y="322" on="1"/>
        <pt x="293" y="357" on="1"/>
        <pt x="268" y="336" on="0"/>
        <pt x="208" y="315" on="0"/>
      </contour>
      <contour>
        <pt x="93" y="431" on="1"/>
        <pt x="93" y="400" on="0"/>
        <pt x="144" y="363" on="0"/>
        <pt x="185" y="363" on="1"/>
        <pt x="217" y="363" on="0"/>
        <pt x="271" y="383" on="0"/>
        <pt x="293" y="402" on="1"/>
        <pt x="293" y="473" on="1"/>
        <pt x="271" y="487" on="0"/>
        <pt x="219" y="500" on="0"/>
        <pt x="188" y="500" on="1"/>
        <pt x="145" y="500" on="0"/>
        <pt x="93" y="462" on="0"/>
      </contour>
    </TTGlyph>
    <TTGlyph name="ordmasculine" xMin="36" yMin="314" xMax="424" yMax="707">
      <contour>
        <pt x="36" y="510" on="1"/>
        <pt x="36" y="551" on="0"/>
        <pt x="66" y="623" on="0"/>
        <pt x="119" y="676" on="0"/>
        <pt x="190" y="707" on="0"/>
        <pt x="230" y="707" on="1"/>
        <pt x="271" y="707" on="0"/>
        <pt x="342" y="676" on="0"/>
        <pt x="394" y="623" on="0"/>
        <pt x="424" y="551" on="0"/>
        <pt x="424" y="510" on="1"/>
        <pt x="424" y="469" on="0"/>
        <pt x="394" y="398" on="0"/>
        <pt x="342" y="345" on="0"/>
        <pt x="271" y="314" on="0"/>
        <pt x="230" y="314" on="1"/>
        <pt x="190" y="314" on="0"/>
        <pt x="119" y="345" on="0"/>
        <pt x="66" y="398" on="0"/>
        <pt x="36" y="469" on="0"/>
      </contour>
      <contour>
        <pt x="364" y="510" on="1"/>
        <pt x="364" y="570" on="0"/>
        <pt x="287" y="652" on="0"/>
        <pt x="230" y="652" on="1"/>
        <pt x="175" y="652" on="0"/>
        <pt x="98" y="570" on="0"/>
        <pt x="98" y="510" on="1"/>
        <pt x="98" y="451" on="0"/>
        <pt x="175" y="369" on="0"/>
        <pt x="230" y="369" on="1"/>
        <pt x="287" y="369" on="0"/>
        <pt x="364" y="451" on="0"/>
      </contour>
    </TTGlyph>
    <TTGlyph name="oslash" xMin="40" yMin="-10" xMax="551" yMax="511">
      <contour>
        <pt x="53" y="0" on="1"/>
        <pt x="111" y="69" on="1"/>
        <pt x="78" y="104" on="0"/>
        <pt x="40" y="197" on="0"/>
        <pt x="40" y="251" on="1"/>
        <pt x="40" y="305" on="0"/>
        <pt x="80" y="401" on="0"/>
        <pt x="149" y="471" on="0"/>
        <pt x="243" y="511" on="0"/>
        <pt x="296" y="511" on="1"/>
        <pt x="336" y="511" on="0"/>
        <pt x="410" y="487" on="0"/>
        <pt x="441" y="466" on="1"/>
        <pt x="471" y="501" on="1"/>
        <pt x="537" y="501" on="1"/>
        <pt x="480" y="433" on="1"/>
        <pt x="513" y="398" on="0"/>
        <pt x="551" y="304" on="0"/>
        <pt x="551" y="251" on="1"/>
        <pt x="551" y="196" on="0"/>
        <pt x="511" y="100" on="0"/>
        <pt x="442" y="30" on="0"/>
        <pt x="349" y="-10" on="0"/>
        <pt x="296" y="-10" on="1"/>
        <pt x="255" y="-10" on="0"/>
        <pt x="180" y="14" on="0"/>
        <pt x="149" y="36" on="1"/>
        <pt x="119" y="0" on="1"/>
      </contour>
      <contour>
        <pt x="113" y="251" on="1"/>
        <pt x="113" y="214" on="0"/>
        <pt x="136" y="149" on="0"/>
        <pt x="156" y="124" on="1"/>
        <pt x="398" y="413" on="1"/>
        <pt x="376" y="428" on="0"/>
        <pt x="324" y="445" on="0"/>
        <pt x="296" y="445" on="1"/>
        <pt x="258" y="445" on="0"/>
        <pt x="191" y="415" on="0"/>
        <pt x="142" y="363" on="0"/>
        <pt x="113" y="292" on="0"/>
      </contour>
      <contour>
        <pt x="296" y="56" on="1"/>
        <pt x="334" y="56" on="0"/>
        <pt x="401" y="86" on="0"/>
        <pt x="450" y="139" on="0"/>
        <pt x="478" y="210" on="0"/>
        <pt x="478" y="251" on="1"/>
        <pt x="478" y="288" on="0"/>
        <pt x="455" y="353" on="0"/>
        <pt x="435" y="378" on="1"/>
        <pt x="193" y="89" on="1"/>
        <pt x="215" y="73" on="0"/>
        <pt x="267" y="56" on="0"/>
      </contour>
    </TTGlyph>
    <TTGlyph name="otilde" xMin="40" yMin="-10" xMax="551" yMax="706">
      <component glyphName="o" x="0" y="0" flags="0x204"/>
      <component glyphName="tilde" x="40" y="0" flags="0x4"/>
    </TTGlyph>
    <TTGlyph name="p" xMin="63" yMin="-205" xMax="550" yMax="509">
      <contour>
        <pt x="63" y="-205" on="1"/>
        <pt x="63" y="501" on="1"/>
        <pt x="136" y="501" on="1"/>
        <pt x="136" y="447" on="1"/>
        <pt x="168" y="478" on="0"/>
        <pt x="251" y="509" on="0"/>
        <pt x="298" y="509" on="1"/>
        <pt x="351" y="509" on="0"/>
        <pt x="443" y="469" on="0"/>
        <pt x="511" y="400" on="0"/>
        <pt x="550" y="305" on="0"/>
        <pt x="550" y="251" on="1"/>
        <pt x="550" y="197" on="0"/>
        <pt x="511" y="101" on="0"/>
        <pt x="443" y="32" on="0"/>
        <pt x="350" y="-8" on="0"/>
        <pt x="297" y="-8" on="1"/>
        <pt x="253" y="-8" on="0"/>
        <pt x="171" y="22" on="0"/>
        <pt x="137" y="50" on="1"/>
        <pt x="137" y="-205" on="1"/>
      </contour>
      <contour>
        <pt x="291" y="444" on="1"/>
        <pt x="244" y="444" on="0"/>
        <pt x="163" y="407" on="0"/>
        <pt x="137" y="374" on="1"/>
        <pt x="137" y="126" on="1"/>
        <pt x="163" y="94" on="0"/>
        <pt x="245" y="57" on="0"/>
        <pt x="291" y="57" on="1"/>
        <pt x="370" y="57" on="0"/>
        <pt x="477" y="168" on="0"/>
        <pt x="477" y="250" on="1"/>
        <pt x="477" y="291" on="0"/>
        <pt x="448" y="362" on="0"/>
        <pt x="398" y="414" on="0"/>
        <pt x="330" y="444" on="0"/>
      </contour>
    </TTGlyph>
    <TTGlyph name="paragraph" xMin="38" yMin="0" xMax="574" yMax="700">
      <contour>
        <pt x="318" y="0" on="1"/>
        <pt x="318" y="289" on="1"/>
        <pt x="259" y="289" on="1"/>
        <pt x="161" y="289" on="0"/>
        <pt x="38" y="404" on="0"/>
        <pt x="38" y="494" on="1"/>
        <pt x="38" y="586" on="0"/>
        <pt x="161" y="700" on="0"/>
        <pt x="258" y="700" on="1"/>
        <pt x="574" y="700" on="1"/>
        <pt x="574" y="0" on="1"/>
        <pt x="505" y="0" on="1"/>
        <pt x="505" y="289" on="1"/>
        <pt x="386" y="289" on="1"/>
        <pt x="386" y="0" on="1"/>
      </contour>
      <contour>
        <pt x="505" y="352" on="1"/>
        <pt x="505" y="637" on="1"/>
        <pt x="386" y="637" on="1"/>
        <pt x="386" y="352" on="1"/>
      </contour>
      <contour>
        <pt x="259" y="352" on="1"/>
        <pt x="318" y="352" on="1"/>
        <pt x="318" y="637" on="1"/>
        <pt x="259" y="637" on="1"/>
        <pt x="192" y="637" on="0"/>
        <pt x="109" y="558" on="0"/>
        <pt x="109" y="495" on="1"/>
        <pt x="109" y="430" on="0"/>
        <pt x="192" y="352" on="0"/>
      </contour>
    </TTGlyph>
    <TTGlyph name="parenleft" xMin="64" yMin="-213" xMax="352" yMax="710">
      <contour>
        <pt x="64" y="249" on="1"/>
        <pt x="64" y="401" on="0"/>
        <pt x="193" y="639" on="0"/>
        <pt x="313" y="710" on="1"/>
        <pt x="352" y="660" on="1"/>
        <pt x="248" y="600" on="0"/>
        <pt x="135" y="384" on="0"/>
        <pt x="135" y="249" on="1"/>
        <pt x="135" y="113" on="0"/>
        <pt x="248" y="-102" on="0"/>
        <pt x="352" y="-162" on="1"/>
        <pt x="313" y="-213" on="1"/>
        <pt x="193" y="-141" on="0"/>
        <pt x="64" y="97" on="0"/>
      </contour>
    </TTGlyph>
    <TTGlyph name="parenright" xMin="37" yMin="-207" xMax="325" yMax="716">
      <contour>
        <pt x="325" y="254" on="1"/>
        <pt x="325" y="102" on="0"/>
        <pt x="196" y="-136" on="0"/>
        <pt x="76" y="-207" on="1"/>
        <pt x="37" y="-157" on="1"/>
        <pt x="141" y="-97" on="0"/>
        <pt x="254" y="119" on="0"/>
        <pt x="254" y="254" on="1"/>
        <pt x="254" y="390" on="0"/>
        <pt x="141" y="605" on="0"/>
        <pt x="37" y="665" on="1"/>
        <pt x="76" y="716" on="1"/>
        <pt x="196" y="644" on="0"/>
        <pt x="325" y="406" on="0"/>
      </contour>
    </TTGlyph>
    <TTGlyph name="percent" xMin="27" yMin="-5" xMax="714" yMax="705">
      <component glyphName="uni2070" x="0" y="0" flags="0x4"/>
      <component glyphName="fraction" x="112" y="0" flags="0x4"/>
      <component glyphName="uni2080" x="390" y="0" flags="0x4"/>
    </TTGlyph>
    <TTGlyph name="period" xMin="48" yMin="-6" xMax="150" yMax="96">
      <contour>
        <pt x="99" y="96" on="1"/>
        <pt x="120" y="96" on="0"/>
        <pt x="150" y="66" on="0"/>
        <pt x="150" y="45" on="1"/>
        <pt x="150" y="24" on="0"/>
        <pt x="120" y="-6" on="0"/>
        <pt x="99" y="-6" on="1"/>
        <pt x="78" y="-6" on="0"/>
        <pt x="48" y="24" on="0"/>
        <pt x="48" y="45" on="1"/>
        <pt x="48" y="66" on="0"/>
        <pt x="78" y="96" on="0"/>
      </contour>
    </TTGlyph>
    <TTGlyph name="periodcentered" xMin="48" yMin="231" xMax="150" yMax="333">
      <component glyphName="period" x="0" y="237" flags="0x4"/>
    </TTGlyph>
    <TTGlyph name="periodcentered.cap" xMin="48" yMin="296" xMax="150" yMax="398">
      <component glyphName="periodcentered" x="0" y="65" flags="0x4"/>
    </TTGlyph>
    <TTGlyph name="perthousand" xMin="27" yMin="-5" xMax="1058" yMax="705">
      <component glyphName="uni2070" x="0" y="0" flags="0x4"/>
      <component glyphName="fraction" x="112" y="0" flags="0x4"/>
      <component glyphName="uni2080" x="390" y="0" flags="0x4"/>
      <component glyphName="uni2080" x="734" y="0" flags="0x4"/>
    </TTGlyph>
    <TTGlyph name="plus" xMin="55" yMin="145" xMax="470" yMax="567">
      <contour>
        <pt x="294" y="145" on="1"/>
        <pt x="231" y="145" on="1"/>
        <pt x="231" y="327" on="1"/>
        <pt x="55" y="327" on="1"/>
        <pt x="55" y="389" on="1"/>
        <pt x="231" y="389" on="1"/>
        <pt x="231" y="567" on="1"/>
        <pt x="294" y="567" on="1"/>
        <pt x="294" y="389" on="1"/>
        <pt x="470" y="389" on="1"/>
        <pt x="470" y="327" on="1"/>
        <pt x="294" y="327" on="1"/>
      </contour>
    </TTGlyph>
    <TTGlyph name="plusminus" xMin="55" yMin="-1" xMax="470" yMax="585">
      <contour>
        <pt x="294" y="173" on="1"/>
        <pt x="231" y="173" on="1"/>
        <pt x="231" y="350" on="1"/>
        <pt x="55" y="350" on="1"/>
        <pt x="55" y="412" on="1"/>
        <pt x="231" y="412" on="1"/>
        <pt x="231" y="585" on="1"/>
        <pt x="294" y="585" on="1"/>
        <pt x="294" y="412" on="1"/>
        <pt x="470" y="412" on="1"/>
        <pt x="470" y="350" on="1"/>
        <pt x="294" y="350" on="1"/>
      </contour>
      <contour>
        <pt x="470" y="60" on="1"/>
        <pt x="470" y="-1" on="1"/>
        <pt x="55" y="-1" on="1"/>
        <pt x="55" y="60" on="1"/>
      </contour>
    </TTGlyph>
    <TTGlyph name="q" xMin="40" yMin="-205" xMax="527" yMax="509">
      <contour>
        <pt x="292" y="-8" on="1"/>
        <pt x="239" y="-8" on="0"/>
        <pt x="147" y="32" on="0"/>
        <pt x="79" y="101" on="0"/>
        <pt x="40" y="197" on="0"/>
        <pt x="40" y="251" on="1"/>
        <pt x="40" y="305" on="0"/>
        <pt x="79" y="400" on="0"/>
        <pt x="147" y="469" on="0"/>
        <pt x="240" y="509" on="0"/>
        <pt x="293" y="509" on="1"/>
        <pt x="338" y="509" on="0"/>
        <pt x="421" y="479" on="0"/>
        <pt x="454" y="452" on="1"/>
        <pt x="454" y="501" on="1"/>
        <pt x="527" y="501" on="1"/>
        <pt x="527" y="-205" on="1"/>
        <pt x="453" y="-205" on="1"/>
        <pt x="453" y="52" on="1"/>
        <pt x="421" y="23" on="0"/>
        <pt x="338" y="-8" on="0"/>
      </contour>
      <contour>
        <pt x="113" y="252" on="1"/>
        <pt x="113" y="211" on="0"/>
        <pt x="142" y="139" on="0"/>
        <pt x="192" y="87" on="0"/>
        <pt x="260" y="57" on="0"/>
        <pt x="299" y="57" on="1"/>
        <pt x="346" y="57" on="0"/>
        <pt x="427" y="94" on="0"/>
        <pt x="453" y="127" on="1"/>
        <pt x="453" y="375" on="1"/>
        <pt x="427" y="407" on="0"/>
        <pt x="345" y="444" on="0"/>
        <pt x="299" y="444" on="1"/>
        <pt x="221" y="444" on="0"/>
        <pt x="113" y="334" on="0"/>
      </contour>
    </TTGlyph>
    <TTGlyph name="question" xMin="20" yMin="-6" xMax="466" yMax="708">
      <contour>
        <pt x="349" y="363" on="1"/>
        <pt x="315" y="339" on="1"/>
        <pt x="278" y="314" on="0"/>
        <pt x="248" y="246" on="0"/>
        <pt x="252" y="196" on="1"/>
        <pt x="188" y="196" on="1"/>
        <pt x="184" y="264" on="0"/>
        <pt x="221" y="350" on="0"/>
        <pt x="270" y="385" on="1"/>
        <pt x="314" y="416" on="1"/>
        <pt x="357" y="447" on="0"/>
        <pt x="393" y="500" on="0"/>
        <pt x="393" y="534" on="1"/>
        <pt x="393" y="580" on="0"/>
        <pt x="308" y="642" on="0"/>
        <pt x="248" y="642" on="1"/>
        <pt x="199" y="642" on="0"/>
        <pt x="112" y="596" on="0"/>
        <pt x="78" y="552" on="1"/>
        <pt x="20" y="590" on="1"/>
        <pt x="63" y="647" on="0"/>
        <pt x="183" y="708" on="0"/>
        <pt x="252" y="708" on="1"/>
        <pt x="298" y="708" on="0"/>
        <pt x="376" y="682" on="0"/>
        <pt x="433" y="636" on="0"/>
        <pt x="466" y="572" on="0"/>
        <pt x="466" y="535" on="1"/>
        <pt x="466" y="484" on="0"/>
        <pt x="415" y="409" on="0"/>
      </contour>
      <contour>
        <pt x="220" y="96" on="1"/>
        <pt x="241" y="96" on="0"/>
        <pt x="271" y="66" on="0"/>
        <pt x="271" y="45" on="1"/>
        <pt x="271" y="24" on="0"/>
        <pt x="241" y="-6" on="0"/>
        <pt x="220" y="-6" on="1"/>
        <pt x="199" y="-6" on="0"/>
        <pt x="169" y="24" on="0"/>
        <pt x="169" y="45" on="1"/>
        <pt x="169" y="66" on="0"/>
        <pt x="199" y="96" on="0"/>
      </contour>
    </TTGlyph>
    <TTGlyph name="questiondown" xMin="35" yMin="-5" xMax="481" yMax="709">
      <contour>
        <pt x="152" y="340" on="1"/>
        <pt x="186" y="364" on="1"/>
        <pt x="223" y="389" on="0"/>
        <pt x="253" y="457" on="0"/>
        <pt x="249" y="507" on="1"/>
        <pt x="313" y="507" on="1"/>
        <pt x="317" y="439" on="0"/>
        <pt x="280" y="353" on="0"/>
        <pt x="231" y="318" on="1"/>
        <pt x="187" y="287" on="1"/>
        <pt x="144" y="256" on="0"/>
        <pt x="108" y="203" on="0"/>
        <pt x="108" y="169" on="1"/>
        <pt x="108" y="123" on="0"/>
        <pt x="193" y="61" on="0"/>
        <pt x="253" y="61" on="1"/>
        <pt x="302" y="61" on="0"/>
        <pt x="389" y="107" on="0"/>
        <pt x="423" y="151" on="1"/>
        <pt x="481" y="113" on="1"/>
        <pt x="438" y="56" on="0"/>
        <pt x="318" y="-5" on="0"/>
        <pt x="249" y="-5" on="1"/>
        <pt x="203" y="-5" on="0"/>
        <pt x="125" y="21" on="0"/>
        <pt x="68" y="67" on="0"/>
        <pt x="35" y="131" on="0"/>
        <pt x="35" y="168" on="1"/>
        <pt x="35" y="219" on="0"/>
        <pt x="86" y="294" on="0"/>
      </contour>
      <contour>
        <pt x="281" y="607" on="1"/>
        <pt x="260" y="607" on="0"/>
        <pt x="230" y="637" on="0"/>
        <pt x="230" y="658" on="1"/>
        <pt x="230" y="679" on="0"/>
        <pt x="260" y="709" on="0"/>
        <pt x="281" y="709" on="1"/>
        <pt x="302" y="709" on="0"/>
        <pt x="332" y="679" on="0"/>
        <pt x="332" y="658" on="1"/>
        <pt x="332" y="637" on="0"/>
        <pt x="302" y="607" on="0"/>
      </contour>
    </TTGlyph>
    <TTGlyph name="quotedbl" xMin="58" yMin="497" xMax="261" yMax="701">
      <component glyphName="quotesingle" x="0" y="0" flags="0x4"/>
      <component glyphName="quotesingle" x="128" y="0" flags="0x4"/>
    </TTGlyph>
    <TTGlyph name="quotedblbase" xMin="18" yMin="-137" xMax="292" yMax="74">
      <component glyphName="comma" x="136" y="0" flags="0x4"/>
      <component glyphName="comma" x="0" y="0" flags="0x4"/>
    </TTGlyph>
    <TTGlyph name="quotedblleft" xMin="29" yMin="508" xMax="303" yMax="719">
      <contour>
        <pt x="109" y="508" on="1"/>
        <pt x="29" y="508" on="1"/>
        <pt x="109" y="719" on="1"/>
        <pt x="167" y="719" on="1"/>
      </contour>
      <contour>
        <pt x="245" y="508" on="1"/>
        <pt x="165" y="508" on="1"/>
        <pt x="245" y="719" on="1"/>
        <pt x="303" y="719" on="1"/>
      </contour>
    </TTGlyph>
    <TTGlyph name="quotedblright" xMin="44" yMin="508" xMax="318" yMax="719">
      <component glyphName="comma" x="162" y="645" flags="0x4"/>
      <component glyphName="comma" x="26" y="645" flags="0x4"/>
    </TTGlyph>
    <TTGlyph name="quoteleft" xMin="29" yMin="508" xMax="167" yMax="719">
      <contour>
        <pt x="109" y="508" on="1"/>
        <pt x="29" y="508" on="1"/>
        <pt x="109" y="719" on="1"/>
        <pt x="167" y="719" on="1"/>
      </contour>
    </TTGlyph>
</ttFont>
